<ttFont>
    <TTGlyph name="A" xMin="88" yMin="0" xMax="678" yMax="716">
      <contour>
        <pt x="88" y="0" on="1"/>
        <pt x="88" y="402" on="1"/>
        <pt x="88" y="556" on="0"/>
        <pt x="244" y="716" on="0"/>
        <pt x="523" y="716" on="0"/>
        <pt x="678" y="558" on="0"/>
        <pt x="678" y="408" on="1"/>
        <pt x="678" y="0" on="1"/>
        <pt x="559" y="0" on="1"/>
        <pt x="559" y="173" on="1"/>
        <pt x="206" y="173" on="1"/>
        <pt x="206" y="0" on="1"/>
      </contour>
      <contour>
        <pt x="206" y="407" on="1"/>
        <pt x="206" y="283" on="1"/>
        <pt x="559" y="283" on="1"/>
        <pt x="559" y="402" on="1"/>
        <pt x="559" y="499" on="0"/>
        <pt x="465" y="605" on="0"/>
        <pt x="299" y="605" on="0"/>
        <pt x="206" y="503" on="0"/>
      </contour>
    </TTGlyph>
    <TTGlyph name="AE" xMin="-11" yMin="0" xMax="986" yMax="699">
      <contour>
        <pt x="974" y="699" on="1"/>
        <pt x="974" y="589" on="1"/>
        <pt x="601" y="589" on="1"/>
        <pt x="601" y="397" on="1"/>
        <pt x="936" y="397" on="1"/>
        <pt x="936" y="294" on="1"/>
        <pt x="601" y="294" on="1"/>
        <pt x="601" y="110" on="1"/>
        <pt x="986" y="110" on="1"/>
        <pt x="986" y="0" on="1"/>
        <pt x="472" y="0" on="1"/>
        <pt x="472" y="159" on="1"/>
        <pt x="219" y="159" on="1"/>
        <pt x="134" y="0" on="1"/>
        <pt x="-11" y="0" on="1"/>
        <pt x="355" y="699" on="1"/>
      </contour>
      <contour>
        <pt x="472" y="272" on="1"/>
        <pt x="472" y="589" on="1"/>
        <pt x="443" y="589" on="1"/>
        <pt x="276" y="272" on="1"/>
      </contour>
    </TTGlyph>
    <TTGlyph name="Aacute" xMin="88" yMin="0" xMax="678" yMax="903">
      <contour>
        <pt x="428" y="758" on="1"/>
        <pt x="326" y="758" on="1"/>
        <pt x="432" y="903" on="1"/>
        <pt x="550" y="854" on="1"/>
      </contour>
      <contour>
        <pt x="88" y="0" on="1"/>
        <pt x="88" y="402" on="1"/>
        <pt x="88" y="556" on="0"/>
        <pt x="244" y="716" on="0"/>
        <pt x="523" y="716" on="0"/>
        <pt x="678" y="558" on="0"/>
        <pt x="678" y="408" on="1"/>
        <pt x="678" y="0" on="1"/>
        <pt x="559" y="0" on="1"/>
        <pt x="559" y="173" on="1"/>
        <pt x="206" y="173" on="1"/>
        <pt x="206" y="0" on="1"/>
      </contour>
      <contour>
        <pt x="206" y="407" on="1"/>
        <pt x="206" y="283" on="1"/>
        <pt x="559" y="283" on="1"/>
        <pt x="559" y="402" on="1"/>
        <pt x="559" y="499" on="0"/>
        <pt x="465" y="605" on="0"/>
        <pt x="299" y="605" on="0"/>
        <pt x="206" y="503" on="0"/>
      </contour>
    </TTGlyph>
    <TTGlyph name="Acircumflex" xMin="88" yMin="0" xMax="678" yMax="891">
      <contour>
        <pt x="88" y="0" on="1"/>
        <pt x="88" y="402" on="1"/>
        <pt x="88" y="556" on="0"/>
        <pt x="244" y="716" on="0"/>
        <pt x="523" y="716" on="0"/>
        <pt x="678" y="558" on="0"/>
        <pt x="678" y="408" on="1"/>
        <pt x="678" y="0" on="1"/>
        <pt x="559" y="0" on="1"/>
        <pt x="559" y="173" on="1"/>
        <pt x="206" y="173" on="1"/>
        <pt x="206" y="0" on="1"/>
      </contour>
      <contour>
        <pt x="206" y="407" on="1"/>
        <pt x="206" y="283" on="1"/>
        <pt x="559" y="283" on="1"/>
        <pt x="559" y="402" on="1"/>
        <pt x="559" y="499" on="0"/>
        <pt x="465" y="605" on="0"/>
        <pt x="299" y="605" on="0"/>
        <pt x="206" y="503" on="0"/>
      </contour>
      <contour>
        <pt x="330" y="891" on="1"/>
        <pt x="434" y="891" on="1"/>
        <pt x="556" y="757" on="1"/>
        <pt x="459" y="757" on="1"/>
        <pt x="382" y="813" on="1"/>
        <pt x="305" y="757" on="1"/>
        <pt x="208" y="757" on="1"/>
      </contour>
    </TTGlyph>
    <TTGlyph name="Adieresis" xMin="88" yMin="0" xMax="678" yMax="876">
      <contour>
        <pt x="88" y="0" on="1"/>
        <pt x="88" y="402" on="1"/>
        <pt x="88" y="556" on="0"/>
        <pt x="244" y="716" on="0"/>
        <pt x="523" y="716" on="0"/>
        <pt x="678" y="558" on="0"/>
        <pt x="678" y="408" on="1"/>
        <pt x="678" y="0" on="1"/>
        <pt x="559" y="0" on="1"/>
        <pt x="559" y="173" on="1"/>
        <pt x="206" y="173" on="1"/>
        <pt x="206" y="0" on="1"/>
      </contour>
      <contour>
        <pt x="206" y="407" on="1"/>
        <pt x="206" y="283" on="1"/>
        <pt x="559" y="283" on="1"/>
        <pt x="559" y="402" on="1"/>
        <pt x="559" y="499" on="0"/>
        <pt x="465" y="605" on="0"/>
        <pt x="299" y="605" on="0"/>
        <pt x="206" y="503" on="0"/>
      </contour>
      <contour>
        <pt x="269" y="753" on="0"/>
        <pt x="234" y="789" on="0"/>
        <pt x="234" y="840" on="0"/>
        <pt x="270" y="876" on="0"/>
        <pt x="321" y="876" on="0"/>
        <pt x="357" y="841" on="0"/>
        <pt x="357" y="790" on="0"/>
        <pt x="320" y="753" on="0"/>
      </contour>
      <contour>
        <pt x="455" y="753" on="0"/>
        <pt x="419" y="789" on="0"/>
        <pt x="419" y="840" on="0"/>
        <pt x="455" y="876" on="0"/>
        <pt x="506" y="876" on="0"/>
        <pt x="542" y="841" on="0"/>
        <pt x="542" y="790" on="0"/>
        <pt x="506" y="753" on="0"/>
      </contour>
    </TTGlyph>
    <TTGlyph name="Agrave" xMin="88" yMin="0" xMax="678" yMax="902">
      <contour>
        <pt x="88" y="0" on="1"/>
        <pt x="88" y="402" on="1"/>
        <pt x="88" y="556" on="0"/>
        <pt x="244" y="716" on="0"/>
        <pt x="523" y="716" on="0"/>
        <pt x="678" y="558" on="0"/>
        <pt x="678" y="408" on="1"/>
        <pt x="678" y="0" on="1"/>
        <pt x="559" y="0" on="1"/>
        <pt x="559" y="173" on="1"/>
        <pt x="206" y="173" on="1"/>
        <pt x="206" y="0" on="1"/>
      </contour>
      <contour>
        <pt x="206" y="407" on="1"/>
        <pt x="206" y="283" on="1"/>
        <pt x="559" y="283" on="1"/>
        <pt x="559" y="402" on="1"/>
        <pt x="559" y="499" on="0"/>
        <pt x="465" y="605" on="0"/>
        <pt x="299" y="605" on="0"/>
        <pt x="206" y="503" on="0"/>
      </contour>
      <contour>
        <pt x="463" y="757" on="1"/>
        <pt x="361" y="757" on="1"/>
        <pt x="239" y="853" on="1"/>
        <pt x="357" y="902" on="1"/>
      </contour>
    </TTGlyph>
    <TTGlyph name="Aring" xMin="90" yMin="0" xMax="680" yMax="886">
      <contour>
        <pt x="428" y="886" on="0"/>
        <pt x="494" y="823" on="0"/>
        <pt x="494" y="738" on="0"/>
        <pt x="462" y="709" on="1"/>
        <pt x="566" y="688" on="0"/>
        <pt x="680" y="536" on="0"/>
        <pt x="680" y="408" on="1"/>
        <pt x="680" y="0" on="1"/>
        <pt x="561" y="0" on="1"/>
        <pt x="561" y="173" on="1"/>
        <pt x="208" y="173" on="1"/>
        <pt x="208" y="0" on="1"/>
        <pt x="90" y="0" on="1"/>
        <pt x="90" y="402" on="1"/>
        <pt x="90" y="533" on="0"/>
        <pt x="204" y="688" on="0"/>
        <pt x="308" y="709" on="1"/>
        <pt x="277" y="738" on="0"/>
        <pt x="277" y="823" on="0"/>
        <pt x="342" y="886" on="0"/>
      </contour>
      <contour>
        <pt x="208" y="407" on="1"/>
        <pt x="208" y="283" on="1"/>
        <pt x="561" y="283" on="1"/>
        <pt x="561" y="402" on="1"/>
        <pt x="561" y="499" on="0"/>
        <pt x="467" y="605" on="0"/>
        <pt x="301" y="605" on="0"/>
        <pt x="208" y="503" on="0"/>
      </contour>
      <contour>
        <pt x="410" y="726" on="0"/>
        <pt x="440" y="757" on="0"/>
        <pt x="440" y="806" on="0"/>
        <pt x="410" y="837" on="0"/>
        <pt x="361" y="837" on="0"/>
        <pt x="330" y="806" on="0"/>
        <pt x="330" y="757" on="0"/>
        <pt x="361" y="726" on="0"/>
      </contour>
    </TTGlyph>
    <TTGlyph name="Atilde" xMin="88" yMin="0" xMax="678" yMax="887">
      <contour>
        <pt x="88" y="0" on="1"/>
        <pt x="88" y="402" on="1"/>
        <pt x="88" y="556" on="0"/>
        <pt x="244" y="716" on="0"/>
        <pt x="523" y="716" on="0"/>
        <pt x="678" y="558" on="0"/>
        <pt x="678" y="408" on="1"/>
        <pt x="678" y="0" on="1"/>
        <pt x="559" y="0" on="1"/>
        <pt x="559" y="173" on="1"/>
        <pt x="206" y="173" on="1"/>
        <pt x="206" y="0" on="1"/>
      </contour>
      <contour>
        <pt x="206" y="407" on="1"/>
        <pt x="206" y="283" on="1"/>
        <pt x="559" y="283" on="1"/>
        <pt x="559" y="402" on="1"/>
        <pt x="559" y="499" on="0"/>
        <pt x="465" y="605" on="0"/>
        <pt x="299" y="605" on="0"/>
        <pt x="206" y="503" on="0"/>
      </contour>
      <contour>
        <pt x="460" y="754" on="1"/>
        <pt x="434" y="754" on="0"/>
        <pt x="341" y="801" on="0"/>
        <pt x="328" y="801" on="1"/>
        <pt x="295" y="801" on="0"/>
        <pt x="294" y="757" on="1"/>
        <pt x="220" y="757" on="1"/>
        <pt x="220" y="815" on="0"/>
        <pt x="267" y="887" on="0"/>
        <pt x="309" y="887" on="1"/>
        <pt x="336" y="887" on="0"/>
        <pt x="432" y="840" on="0"/>
        <pt x="447" y="840" on="1"/>
        <pt x="477" y="840" on="0"/>
        <pt x="477" y="884" on="1"/>
        <pt x="552" y="884" on="1"/>
        <pt x="549" y="754" on="0"/>
      </contour>
    </TTGlyph>
    <TTGlyph name="B" xMin="97" yMin="0" xMax="655" yMax="699">
      <contour>
        <pt x="403" y="0" on="1"/>
        <pt x="97" y="0" on="1"/>
        <pt x="97" y="699" on="1"/>
        <pt x="369" y="699" on="1"/>
        <pt x="440" y="699" on="0"/>
        <pt x="543" y="665" on="0"/>
        <pt x="568" y="636" on="1"/>
        <pt x="616" y="582" on="0"/>
        <pt x="616" y="514" on="1"/>
        <pt x="616" y="432" on="0"/>
        <pt x="564" y="392" on="1"/>
        <pt x="545" y="378" on="0"/>
        <pt x="531" y="371" on="0"/>
        <pt x="513" y="363" on="1"/>
        <pt x="578" y="349" on="0"/>
        <pt x="655" y="260" on="0"/>
        <pt x="655" y="194" on="1"/>
        <pt x="655" y="121" on="0"/>
        <pt x="605" y="65" on="1"/>
        <pt x="546" y="0" on="0"/>
      </contour>
      <contour>
        <pt x="215" y="409" on="1"/>
        <pt x="365" y="409" on="1"/>
        <pt x="493" y="409" on="0"/>
        <pt x="493" y="496" on="1"/>
        <pt x="493" y="546" on="0"/>
        <pt x="431" y="590" on="0"/>
        <pt x="366" y="590" on="1"/>
        <pt x="215" y="590" on="1"/>
      </contour>
      <contour>
        <pt x="215" y="109" on="1"/>
        <pt x="400" y="109" on="1"/>
        <pt x="465" y="109" on="0"/>
        <pt x="534" y="150" on="0"/>
        <pt x="534" y="207" on="1"/>
        <pt x="534" y="300" on="0"/>
        <pt x="385" y="300" on="1"/>
        <pt x="215" y="300" on="1"/>
      </contour>
    </TTGlyph>
    <TTGlyph name="C" xMin="52" yMin="-8" xMax="699" yMax="716">
      <contour>
        <pt x="416" y="107" on="1"/>
        <pt x="477" y="107" on="0"/>
        <pt x="565" y="148" on="0"/>
        <pt x="613" y="193" on="1"/>
        <pt x="689" y="115" on="1"/>
        <pt x="578" y="-8" on="0"/>
        <pt x="261" y="-8" on="0"/>
        <pt x="52" y="196" on="0"/>
        <pt x="52" y="508" on="0"/>
        <pt x="265" y="716" on="0"/>
        <pt x="590" y="716" on="0"/>
        <pt x="699" y="596" on="1"/>
        <pt x="624" y="514" on="1"/>
        <pt x="574" y="562" on="0"/>
        <pt x="485" y="600" on="0"/>
        <pt x="425" y="600" on="1"/>
        <pt x="319" y="600" on="0"/>
        <pt x="175" y="463" on="0"/>
        <pt x="175" y="250" on="0"/>
        <pt x="318" y="107" on="0"/>
      </contour>
    </TTGlyph>
    <TTGlyph name="Ccedilla" xMin="52" yMin="-212" xMax="699" yMax="716">
      <contour>
        <pt x="416" y="107" on="1"/>
        <pt x="477" y="107" on="0"/>
        <pt x="565" y="148" on="0"/>
        <pt x="613" y="193" on="1"/>
        <pt x="689" y="115" on="1"/>
        <pt x="585" y="-1" on="0"/>
        <pt x="435" y="-7" on="1"/>
        <pt x="419" y="-38" on="1"/>
        <pt x="489" y="-47" on="0"/>
        <pt x="489" y="-117" on="1"/>
        <pt x="489" y="-155" on="0"/>
        <pt x="427" y="-212" on="0"/>
        <pt x="332" y="-212" on="0"/>
        <pt x="296" y="-190" on="1"/>
        <pt x="322" y="-133" on="1"/>
        <pt x="341" y="-143" on="0"/>
        <pt x="380" y="-143" on="0"/>
        <pt x="402" y="-120" on="0"/>
        <pt x="402" y="-88" on="0"/>
        <pt x="379" y="-63" on="0"/>
        <pt x="344" y="-63" on="0"/>
        <pt x="332" y="-68" on="1"/>
        <pt x="365" y="-5" on="1"/>
        <pt x="228" y="12" on="0"/>
        <pt x="52" y="210" on="0"/>
        <pt x="52" y="508" on="0"/>
        <pt x="265" y="716" on="0"/>
        <pt x="590" y="716" on="0"/>
        <pt x="699" y="596" on="1"/>
        <pt x="624" y="514" on="1"/>
        <pt x="574" y="562" on="0"/>
        <pt x="485" y="600" on="0"/>
        <pt x="425" y="600" on="1"/>
        <pt x="319" y="600" on="0"/>
        <pt x="175" y="463" on="0"/>
        <pt x="175" y="250" on="0"/>
        <pt x="318" y="107" on="0"/>
      </contour>
    </TTGlyph>
    <TTGlyph name="D" xMin="97" yMin="0" xMax="727" yMax="699">
      <contour>
        <pt x="525" y="699" on="0"/>
        <pt x="727" y="516" on="0"/>
        <pt x="727" y="190" on="0"/>
        <pt x="531" y="0" on="0"/>
        <pt x="329" y="0" on="1"/>
        <pt x="97" y="0" on="1"/>
        <pt x="97" y="699" on="1"/>
        <pt x="337" y="699" on="1"/>
      </contour>
      <contour>
        <pt x="608" y="350" on="1"/>
        <pt x="608" y="590" on="0"/>
        <pt x="333" y="590" on="1"/>
        <pt x="215" y="590" on="1"/>
        <pt x="215" y="111" on="1"/>
        <pt x="346" y="111" on="1"/>
        <pt x="473" y="111" on="0"/>
        <pt x="608" y="232" on="0"/>
      </contour>
    </TTGlyph>
    <TTGlyph name="Delta" xMin="30" yMin="0" xMax="760" yMax="699">
      <contour>
        <pt x="452" y="699" on="1"/>
        <pt x="760" y="0" on="1"/>
        <pt x="30" y="0" on="1"/>
        <pt x="338" y="699" on="1"/>
      </contour>
      <contour>
        <pt x="206" y="111" on="1"/>
        <pt x="584" y="109" on="1"/>
        <pt x="395" y="535" on="1"/>
      </contour>
    </TTGlyph>
    <TTGlyph name="E" xMin="50" yMin="-7" xMax="549" yMax="716">
      <contour>
        <pt x="341" y="600" on="1"/>
        <pt x="210" y="600" on="0"/>
        <pt x="210" y="522" on="1"/>
        <pt x="210" y="421" on="0"/>
        <pt x="377" y="421" on="1"/>
        <pt x="472" y="421" on="1"/>
        <pt x="472" y="315" on="1"/>
        <pt x="409" y="315" on="0"/>
        <pt x="334" y="315" on="0"/>
        <pt x="277" y="311" on="0"/>
        <pt x="249" y="304" on="0"/>
        <pt x="208" y="288" on="0"/>
        <pt x="198" y="277" on="1"/>
        <pt x="172" y="248" on="0"/>
        <pt x="172" y="208" on="1"/>
        <pt x="172" y="107" on="0"/>
        <pt x="338" y="107" on="1"/>
        <pt x="390" y="107" on="0"/>
        <pt x="489" y="132" on="0"/>
        <pt x="517" y="149" on="1"/>
        <pt x="549" y="43" on="1"/>
        <pt x="456" y="-7" on="0"/>
        <pt x="195" y="-7" on="0"/>
        <pt x="50" y="103" on="0"/>
        <pt x="50" y="205" on="1"/>
        <pt x="50" y="321" on="0"/>
        <pt x="165" y="376" on="1"/>
        <pt x="84" y="433" on="0"/>
        <pt x="84" y="533" on="1"/>
        <pt x="84" y="614" on="0"/>
        <pt x="217" y="716" on="0"/>
        <pt x="329" y="716" on="1"/>
        <pt x="375" y="716" on="0"/>
        <pt x="480" y="696" on="0"/>
        <pt x="513" y="680" on="1"/>
        <pt x="489" y="568" on="1"/>
        <pt x="416" y="600" on="0"/>
      </contour>
    </TTGlyph>
    <TTGlyph name="Eacute" xMin="50" yMin="-7" xMax="549" yMax="903">
      <contour>
        <pt x="348" y="758" on="1"/>
        <pt x="246" y="758" on="1"/>
        <pt x="352" y="903" on="1"/>
        <pt x="470" y="854" on="1"/>
      </contour>
      <contour>
        <pt x="341" y="600" on="1"/>
        <pt x="210" y="600" on="0"/>
        <pt x="210" y="522" on="1"/>
        <pt x="210" y="421" on="0"/>
        <pt x="377" y="421" on="1"/>
        <pt x="472" y="421" on="1"/>
        <pt x="472" y="315" on="1"/>
        <pt x="409" y="315" on="0"/>
        <pt x="334" y="315" on="0"/>
        <pt x="277" y="311" on="0"/>
        <pt x="249" y="304" on="0"/>
        <pt x="208" y="288" on="0"/>
        <pt x="198" y="277" on="1"/>
        <pt x="172" y="248" on="0"/>
        <pt x="172" y="208" on="1"/>
        <pt x="172" y="107" on="0"/>
        <pt x="338" y="107" on="1"/>
        <pt x="390" y="107" on="0"/>
        <pt x="489" y="132" on="0"/>
        <pt x="517" y="149" on="1"/>
        <pt x="549" y="43" on="1"/>
        <pt x="456" y="-7" on="0"/>
        <pt x="195" y="-7" on="0"/>
        <pt x="50" y="103" on="0"/>
        <pt x="50" y="205" on="1"/>
        <pt x="50" y="321" on="0"/>
        <pt x="165" y="376" on="1"/>
        <pt x="84" y="433" on="0"/>
        <pt x="84" y="533" on="1"/>
        <pt x="84" y="614" on="0"/>
        <pt x="217" y="716" on="0"/>
        <pt x="329" y="716" on="1"/>
        <pt x="375" y="716" on="0"/>
        <pt x="480" y="696" on="0"/>
        <pt x="513" y="680" on="1"/>
        <pt x="489" y="568" on="1"/>
        <pt x="416" y="600" on="0"/>
      </contour>
    </TTGlyph>
    <TTGlyph name="Ecircumflex" xMin="50" yMin="-7" xMax="549" yMax="891">
      <contour>
        <pt x="341" y="600" on="1"/>
        <pt x="210" y="600" on="0"/>
        <pt x="210" y="522" on="1"/>
        <pt x="210" y="421" on="0"/>
        <pt x="377" y="421" on="1"/>
        <pt x="472" y="421" on="1"/>
        <pt x="472" y="315" on="1"/>
        <pt x="409" y="315" on="0"/>
        <pt x="334" y="315" on="0"/>
        <pt x="277" y="311" on="0"/>
        <pt x="249" y="304" on="0"/>
        <pt x="208" y="288" on="0"/>
        <pt x="198" y="277" on="1"/>
        <pt x="172" y="248" on="0"/>
        <pt x="172" y="208" on="1"/>
        <pt x="172" y="107" on="0"/>
        <pt x="338" y="107" on="1"/>
        <pt x="390" y="107" on="0"/>
        <pt x="489" y="132" on="0"/>
        <pt x="517" y="149" on="1"/>
        <pt x="549" y="43" on="1"/>
        <pt x="456" y="-7" on="0"/>
        <pt x="195" y="-7" on="0"/>
        <pt x="50" y="103" on="0"/>
        <pt x="50" y="205" on="1"/>
        <pt x="50" y="321" on="0"/>
        <pt x="165" y="376" on="1"/>
        <pt x="84" y="433" on="0"/>
        <pt x="84" y="533" on="1"/>
        <pt x="84" y="614" on="0"/>
        <pt x="217" y="716" on="0"/>
        <pt x="329" y="716" on="1"/>
        <pt x="375" y="716" on="0"/>
        <pt x="480" y="696" on="0"/>
        <pt x="513" y="680" on="1"/>
        <pt x="489" y="568" on="1"/>
        <pt x="416" y="600" on="0"/>
      </contour>
      <contour>
        <pt x="258" y="891" on="1"/>
        <pt x="362" y="891" on="1"/>
        <pt x="484" y="757" on="1"/>
        <pt x="387" y="757" on="1"/>
        <pt x="310" y="813" on="1"/>
        <pt x="233" y="757" on="1"/>
        <pt x="136" y="757" on="1"/>
      </contour>
    </TTGlyph>
    <TTGlyph name="Edieresis" xMin="50" yMin="-7" xMax="549" yMax="876">
      <contour>
        <pt x="206" y="753" on="0"/>
        <pt x="171" y="789" on="0"/>
        <pt x="171" y="840" on="0"/>
        <pt x="206" y="876" on="0"/>
        <pt x="258" y="876" on="0"/>
        <pt x="294" y="841" on="0"/>
        <pt x="294" y="790" on="0"/>
        <pt x="258" y="753" on="0"/>
      </contour>
      <contour>
        <pt x="392" y="753" on="0"/>
        <pt x="356" y="789" on="0"/>
        <pt x="356" y="840" on="0"/>
        <pt x="392" y="876" on="0"/>
        <pt x="443" y="876" on="0"/>
        <pt x="479" y="841" on="0"/>
        <pt x="479" y="790" on="0"/>
        <pt x="442" y="753" on="0"/>
      </contour>
      <contour>
        <pt x="341" y="600" on="1"/>
        <pt x="210" y="600" on="0"/>
        <pt x="210" y="522" on="1"/>
        <pt x="210" y="421" on="0"/>
        <pt x="377" y="421" on="1"/>
        <pt x="472" y="421" on="1"/>
        <pt x="472" y="315" on="1"/>
        <pt x="409" y="315" on="0"/>
        <pt x="334" y="315" on="0"/>
        <pt x="277" y="311" on="0"/>
        <pt x="249" y="304" on="0"/>
        <pt x="208" y="288" on="0"/>
        <pt x="198" y="277" on="1"/>
        <pt x="172" y="248" on="0"/>
        <pt x="172" y="208" on="1"/>
        <pt x="172" y="107" on="0"/>
        <pt x="338" y="107" on="1"/>
        <pt x="390" y="107" on="0"/>
        <pt x="489" y="132" on="0"/>
        <pt x="517" y="149" on="1"/>
        <pt x="549" y="43" on="1"/>
        <pt x="456" y="-7" on="0"/>
        <pt x="195" y="-7" on="0"/>
        <pt x="50" y="103" on="0"/>
        <pt x="50" y="205" on="1"/>
        <pt x="50" y="321" on="0"/>
        <pt x="165" y="376" on="1"/>
        <pt x="84" y="433" on="0"/>
        <pt x="84" y="533" on="1"/>
        <pt x="84" y="614" on="0"/>
        <pt x="217" y="716" on="0"/>
        <pt x="329" y="716" on="1"/>
        <pt x="375" y="716" on="0"/>
        <pt x="480" y="696" on="0"/>
        <pt x="513" y="680" on="1"/>
        <pt x="489" y="568" on="1"/>
        <pt x="416" y="600" on="0"/>
      </contour>
    </TTGlyph>
    <TTGlyph name="Egrave" xMin="50" yMin="-7" xMax="549" yMax="902">
      <contour>
        <pt x="413" y="757" on="1"/>
        <pt x="311" y="757" on="1"/>
        <pt x="189" y="853" on="1"/>
        <pt x="307" y="902" on="1"/>
      </contour>
      <contour>
        <pt x="341" y="600" on="1"/>
        <pt x="210" y="600" on="0"/>
        <pt x="210" y="522" on="1"/>
        <pt x="210" y="421" on="0"/>
        <pt x="377" y="421" on="1"/>
        <pt x="472" y="421" on="1"/>
        <pt x="472" y="315" on="1"/>
        <pt x="409" y="315" on="0"/>
        <pt x="334" y="315" on="0"/>
        <pt x="277" y="311" on="0"/>
        <pt x="249" y="304" on="0"/>
        <pt x="208" y="288" on="0"/>
        <pt x="198" y="277" on="1"/>
        <pt x="172" y="248" on="0"/>
        <pt x="172" y="208" on="1"/>
        <pt x="172" y="107" on="0"/>
        <pt x="338" y="107" on="1"/>
        <pt x="390" y="107" on="0"/>
        <pt x="489" y="132" on="0"/>
        <pt x="517" y="149" on="1"/>
        <pt x="549" y="43" on="1"/>
        <pt x="456" y="-7" on="0"/>
        <pt x="195" y="-7" on="0"/>
        <pt x="50" y="103" on="0"/>
        <pt x="50" y="205" on="1"/>
        <pt x="50" y="321" on="0"/>
        <pt x="165" y="376" on="1"/>
        <pt x="84" y="433" on="0"/>
        <pt x="84" y="533" on="1"/>
        <pt x="84" y="614" on="0"/>
        <pt x="217" y="716" on="0"/>
        <pt x="329" y="716" on="1"/>
        <pt x="375" y="716" on="0"/>
        <pt x="480" y="696" on="0"/>
        <pt x="513" y="680" on="1"/>
        <pt x="489" y="568" on="1"/>
        <pt x="416" y="600" on="0"/>
      </contour>
    </TTGlyph>
    <TTGlyph name="Eth" xMin="26" yMin="0" xMax="735" yMax="699">
      <contour>
        <pt x="26" y="294" on="1"/>
        <pt x="26" y="399" on="1"/>
        <pt x="105" y="399" on="1"/>
        <pt x="105" y="699" on="1"/>
        <pt x="345" y="699" on="1"/>
        <pt x="533" y="699" on="0"/>
        <pt x="735" y="516" on="0"/>
        <pt x="735" y="190" on="0"/>
        <pt x="539" y="0" on="0"/>
        <pt x="337" y="0" on="1"/>
        <pt x="105" y="0" on="1"/>
        <pt x="105" y="294" on="1"/>
      </contour>
      <contour>
        <pt x="616" y="350" on="1"/>
        <pt x="616" y="590" on="0"/>
        <pt x="341" y="590" on="1"/>
        <pt x="223" y="590" on="1"/>
        <pt x="223" y="399" on="1"/>
        <pt x="473" y="399" on="1"/>
        <pt x="473" y="294" on="1"/>
        <pt x="223" y="294" on="1"/>
        <pt x="223" y="111" on="1"/>
        <pt x="354" y="111" on="1"/>
        <pt x="481" y="111" on="0"/>
        <pt x="616" y="232" on="0"/>
      </contour>
    </TTGlyph>
    <TTGlyph name="Euro" xMin="52" yMin="4" xMax="716" yMax="716">
      <contour>
        <pt x="52" y="393" on="1"/>
        <pt x="52" y="479" on="1"/>
        <pt x="156" y="479" on="1"/>
        <pt x="189" y="586" on="0"/>
        <pt x="357" y="716" on="0"/>
        <pt x="464" y="716" on="1"/>
        <pt x="623" y="716" on="0"/>
        <pt x="716" y="601" on="1"/>
        <pt x="645" y="511" on="1"/>
        <pt x="601" y="558" on="0"/>
        <pt x="522" y="596" on="0"/>
        <pt x="406" y="596" on="0"/>
        <pt x="313" y="535" on="0"/>
        <pt x="290" y="479" on="1"/>
        <pt x="528" y="479" on="1"/>
        <pt x="528" y="393" on="1"/>
        <pt x="269" y="393" on="1"/>
        <pt x="268" y="381" on="0"/>
        <pt x="268" y="332" on="0"/>
        <pt x="271" y="310" on="1"/>
        <pt x="528" y="310" on="1"/>
        <pt x="528" y="224" on="1"/>
        <pt x="298" y="224" on="1"/>
        <pt x="352" y="120" on="0"/>
        <pt x="461" y="120" on="1"/>
        <pt x="515" y="120" on="0"/>
        <pt x="592" y="161" on="0"/>
        <pt x="635" y="205" on="1"/>
        <pt x="706" y="119" on="1"/>
        <pt x="613" y="4" on="0"/>
        <pt x="461" y="4" on="1"/>
        <pt x="357" y="4" on="0"/>
        <pt x="196" y="123" on="0"/>
        <pt x="161" y="224" on="1"/>
        <pt x="52" y="224" on="1"/>
        <pt x="52" y="310" on="1"/>
        <pt x="142" y="310" on="1"/>
        <pt x="139" y="334" on="0"/>
        <pt x="139" y="382" on="0"/>
        <pt x="140" y="393" on="1"/>
      </contour>
    </TTGlyph>
    <TTGlyph name="F" xMin="90" yMin="0" xMax="562" yMax="716">
      <contour>
        <pt x="538" y="568" on="1"/>
        <pt x="465" y="600" on="0"/>
        <pt x="284" y="600" on="0"/>
        <pt x="208" y="517" on="0"/>
        <pt x="208" y="450" on="1"/>
        <pt x="208" y="367" on="1"/>
        <pt x="455" y="367" on="1"/>
        <pt x="455" y="257" on="1"/>
        <pt x="208" y="257" on="1"/>
        <pt x="208" y="0" on="1"/>
        <pt x="90" y="0" on="1"/>
        <pt x="90" y="438" on="1"/>
        <pt x="90" y="575" on="0"/>
        <pt x="238" y="716" on="0"/>
        <pt x="358" y="716" on="1"/>
        <pt x="406" y="716" on="0"/>
        <pt x="530" y="695" on="0"/>
        <pt x="562" y="680" on="1"/>
      </contour>
    </TTGlyph>
    <TTGlyph name="G" xMin="53" yMin="-7" xMax="700" yMax="716">
      <contour>
        <pt x="426" y="600" on="1"/>
        <pt x="320" y="600" on="0"/>
        <pt x="176" y="463" on="0"/>
        <pt x="176" y="238" on="0"/>
        <pt x="298" y="106" on="0"/>
        <pt x="513" y="106" on="0"/>
        <pt x="582" y="191" on="1"/>
        <pt x="582" y="330" on="1"/>
        <pt x="700" y="330" on="1"/>
        <pt x="700" y="-7" on="1"/>
        <pt x="582" y="-7" on="1"/>
        <pt x="582" y="52" on="1"/>
        <pt x="498" y="-7" on="0"/>
        <pt x="397" y="-7" on="1"/>
        <pt x="244" y="-7" on="0"/>
        <pt x="53" y="194" on="0"/>
        <pt x="53" y="508" on="0"/>
        <pt x="266" y="716" on="0"/>
        <pt x="568" y="716" on="0"/>
        <pt x="668" y="628" on="1"/>
        <pt x="605" y="538" on="1"/>
        <pt x="564" y="573" on="0"/>
        <pt x="481" y="600" on="0"/>
      </contour>
    </TTGlyph>
    <TTGlyph name="H" xMin="97" yMin="0" xMax="680" yMax="699">
      <contour>
        <pt x="97" y="0" on="1"/>
        <pt x="97" y="699" on="1"/>
        <pt x="215" y="699" on="1"/>
        <pt x="215" y="396" on="1"/>
        <pt x="562" y="396" on="1"/>
        <pt x="562" y="699" on="1"/>
        <pt x="680" y="699" on="1"/>
        <pt x="680" y="0" on="1"/>
        <pt x="562" y="0" on="1"/>
        <pt x="562" y="286" on="1"/>
        <pt x="215" y="286" on="1"/>
        <pt x="215" y="0" on="1"/>
      </contour>
    </TTGlyph>
    <TTGlyph name="I" xMin="52" yMin="-7" xMax="432" yMax="699">
      <contour>
        <pt x="432" y="99" on="1"/>
        <pt x="432" y="-7" on="1"/>
        <pt x="52" y="-7" on="1"/>
        <pt x="52" y="99" on="1"/>
        <pt x="180" y="99" on="1"/>
        <pt x="180" y="593" on="1"/>
        <pt x="52" y="593" on="1"/>
        <pt x="52" y="699" on="1"/>
        <pt x="432" y="699" on="1"/>
        <pt x="432" y="593" on="1"/>
        <pt x="298" y="593" on="1"/>
        <pt x="298" y="99" on="1"/>
      </contour>
    </TTGlyph>
    <TTGlyph name="Iacute" xMin="52" yMin="-7" xMax="432" yMax="903">
      <contour>
        <pt x="287" y="758" on="1"/>
        <pt x="185" y="758" on="1"/>
        <pt x="291" y="903" on="1"/>
        <pt x="409" y="854" on="1"/>
      </contour>
      <contour>
        <pt x="432" y="99" on="1"/>
        <pt x="432" y="-7" on="1"/>
        <pt x="52" y="-7" on="1"/>
        <pt x="52" y="99" on="1"/>
        <pt x="180" y="99" on="1"/>
        <pt x="180" y="593" on="1"/>
        <pt x="52" y="593" on="1"/>
        <pt x="52" y="699" on="1"/>
        <pt x="432" y="699" on="1"/>
        <pt x="432" y="593" on="1"/>
        <pt x="298" y="593" on="1"/>
        <pt x="298" y="99" on="1"/>
      </contour>
    </TTGlyph>
    <TTGlyph name="Icircumflex" xMin="52" yMin="-7" xMax="432" yMax="891">
      <contour>
        <pt x="432" y="99" on="1"/>
        <pt x="432" y="-7" on="1"/>
        <pt x="52" y="-7" on="1"/>
        <pt x="52" y="99" on="1"/>
        <pt x="180" y="99" on="1"/>
        <pt x="180" y="593" on="1"/>
        <pt x="52" y="593" on="1"/>
        <pt x="52" y="699" on="1"/>
        <pt x="432" y="699" on="1"/>
        <pt x="432" y="593" on="1"/>
        <pt x="298" y="593" on="1"/>
        <pt x="298" y="99" on="1"/>
      </contour>
      <contour>
        <pt x="187" y="891" on="1"/>
        <pt x="291" y="891" on="1"/>
        <pt x="413" y="757" on="1"/>
        <pt x="316" y="757" on="1"/>
        <pt x="239" y="813" on="1"/>
        <pt x="162" y="757" on="1"/>
        <pt x="65" y="757" on="1"/>
      </contour>
    </TTGlyph>
    <TTGlyph name="Idieresis" xMin="52" yMin="-7" xMax="432" yMax="876">
      <contour>
        <pt x="432" y="99" on="1"/>
        <pt x="432" y="-7" on="1"/>
        <pt x="52" y="-7" on="1"/>
        <pt x="52" y="99" on="1"/>
        <pt x="180" y="99" on="1"/>
        <pt x="180" y="593" on="1"/>
        <pt x="52" y="593" on="1"/>
        <pt x="52" y="699" on="1"/>
        <pt x="432" y="699" on="1"/>
        <pt x="432" y="593" on="1"/>
        <pt x="298" y="593" on="1"/>
        <pt x="298" y="99" on="1"/>
      </contour>
      <contour>
        <pt x="121" y="753" on="0"/>
        <pt x="86" y="789" on="0"/>
        <pt x="86" y="840" on="0"/>
        <pt x="122" y="876" on="0"/>
        <pt x="173" y="876" on="0"/>
        <pt x="209" y="841" on="0"/>
        <pt x="209" y="790" on="0"/>
        <pt x="172" y="753" on="0"/>
      </contour>
      <contour>
        <pt x="307" y="753" on="0"/>
        <pt x="271" y="789" on="0"/>
        <pt x="271" y="840" on="0"/>
        <pt x="307" y="876" on="0"/>
        <pt x="358" y="876" on="0"/>
        <pt x="394" y="841" on="0"/>
        <pt x="394" y="790" on="0"/>
        <pt x="358" y="753" on="0"/>
      </contour>
    </TTGlyph>
    <TTGlyph name="Igrave" xMin="52" yMin="-7" xMax="432" yMax="902">
      <contour>
        <pt x="324" y="757" on="1"/>
        <pt x="222" y="757" on="1"/>
        <pt x="100" y="853" on="1"/>
        <pt x="218" y="902" on="1"/>
      </contour>
      <contour>
        <pt x="432" y="99" on="1"/>
        <pt x="432" y="-7" on="1"/>
        <pt x="52" y="-7" on="1"/>
        <pt x="52" y="99" on="1"/>
        <pt x="180" y="99" on="1"/>
        <pt x="180" y="593" on="1"/>
        <pt x="52" y="593" on="1"/>
        <pt x="52" y="699" on="1"/>
        <pt x="432" y="699" on="1"/>
        <pt x="432" y="593" on="1"/>
        <pt x="298" y="593" on="1"/>
        <pt x="298" y="99" on="1"/>
      </contour>
    </TTGlyph>
    <TTGlyph name="Itilde" xMin="52" yMin="-7" xMax="432" yMax="887">
      <contour>
        <pt x="432" y="99" on="1"/>
        <pt x="432" y="-7" on="1"/>
        <pt x="52" y="-7" on="1"/>
        <pt x="52" y="99" on="1"/>
        <pt x="180" y="99" on="1"/>
        <pt x="180" y="593" on="1"/>
        <pt x="52" y="593" on="1"/>
        <pt x="52" y="699" on="1"/>
        <pt x="432" y="699" on="1"/>
        <pt x="432" y="593" on="1"/>
        <pt x="298" y="593" on="1"/>
        <pt x="298" y="99" on="1"/>
      </contour>
      <contour>
        <pt x="315" y="754" on="1"/>
        <pt x="289" y="754" on="0"/>
        <pt x="196" y="801" on="0"/>
        <pt x="183" y="801" on="1"/>
        <pt x="150" y="801" on="0"/>
        <pt x="149" y="757" on="1"/>
        <pt x="75" y="757" on="1"/>
        <pt x="75" y="815" on="0"/>
        <pt x="122" y="887" on="0"/>
        <pt x="164" y="887" on="1"/>
        <pt x="191" y="887" on="0"/>
        <pt x="287" y="840" on="0"/>
        <pt x="302" y="840" on="1"/>
        <pt x="332" y="840" on="0"/>
        <pt x="332" y="884" on="1"/>
        <pt x="407" y="884" on="1"/>
        <pt x="404" y="754" on="0"/>
      </contour>
    </TTGlyph>
    <TTGlyph name="J" xMin="11" yMin="-116" xMax="474" yMax="699">
      <contour>
        <pt x="114" y="593" on="1"/>
        <pt x="114" y="699" on="1"/>
        <pt x="474" y="699" on="1"/>
        <pt x="474" y="128" on="1"/>
        <pt x="474" y="46" on="0"/>
        <pt x="438" y="-11" on="1"/>
        <pt x="372" y="-116" on="0"/>
        <pt x="102" y="-116" on="0"/>
        <pt x="11" y="-15" on="1"/>
        <pt x="81" y="73" on="1"/>
        <pt x="148" y="-2" on="0"/>
        <pt x="225" y="-2" on="1"/>
        <pt x="274" y="-2" on="0"/>
        <pt x="356" y="62" on="0"/>
        <pt x="356" y="122" on="1"/>
        <pt x="356" y="593" on="1"/>
      </contour>
    </TTGlyph>
    <TTGlyph name="Jcircumflex" xMin="11" yMin="-116" xMax="474" yMax="891">
      <contour>
        <pt x="114" y="593" on="1"/>
        <pt x="114" y="699" on="1"/>
        <pt x="474" y="699" on="1"/>
        <pt x="474" y="128" on="1"/>
        <pt x="474" y="46" on="0"/>
        <pt x="438" y="-11" on="1"/>
        <pt x="372" y="-116" on="0"/>
        <pt x="102" y="-116" on="0"/>
        <pt x="11" y="-15" on="1"/>
        <pt x="81" y="73" on="1"/>
        <pt x="148" y="-2" on="0"/>
        <pt x="225" y="-2" on="1"/>
        <pt x="274" y="-2" on="0"/>
        <pt x="356" y="62" on="0"/>
        <pt x="356" y="122" on="1"/>
        <pt x="356" y="593" on="1"/>
      </contour>
      <contour>
        <pt x="240" y="891" on="1"/>
        <pt x="344" y="891" on="1"/>
        <pt x="466" y="757" on="1"/>
        <pt x="369" y="757" on="1"/>
        <pt x="292" y="813" on="1"/>
        <pt x="215" y="757" on="1"/>
        <pt x="118" y="757" on="1"/>
      </contour>
    </TTGlyph>
    <TTGlyph name="K" xMin="97" yMin="0" xMax="689" yMax="699">
      <contour>
        <pt x="97" y="699" on="1"/>
        <pt x="215" y="699" on="1"/>
        <pt x="215" y="358" on="1"/>
        <pt x="535" y="699" on="1"/>
        <pt x="685" y="699" on="1"/>
        <pt x="404" y="393" on="1"/>
        <pt x="689" y="0" on="1"/>
        <pt x="549" y="0" on="1"/>
        <pt x="317" y="306" on="1"/>
        <pt x="215" y="196" on="1"/>
        <pt x="215" y="0" on="1"/>
        <pt x="97" y="0" on="1"/>
      </contour>
    </TTGlyph>
    <TTGlyph name="L" xMin="97" yMin="0" xMax="534" yMax="699">
      <contour>
        <pt x="97" y="0" on="1"/>
        <pt x="97" y="699" on="1"/>
        <pt x="215" y="699" on="1"/>
        <pt x="215" y="112" on="1"/>
        <pt x="534" y="112" on="1"/>
        <pt x="534" y="0" on="1"/>
      </contour>
    </TTGlyph>
    <TTGlyph name="Lslash" xMin="30" yMin="0" xMax="546" yMax="699">
      <contour>
        <pt x="109" y="699" on="1"/>
        <pt x="227" y="699" on="1"/>
        <pt x="227" y="362" on="1"/>
        <pt x="446" y="430" on="1"/>
        <pt x="446" y="325" on="1"/>
        <pt x="227" y="257" on="1"/>
        <pt x="227" y="112" on="1"/>
        <pt x="546" y="112" on="1"/>
        <pt x="546" y="0" on="1"/>
        <pt x="109" y="0" on="1"/>
        <pt x="109" y="220" on="1"/>
        <pt x="30" y="196" on="1"/>
        <pt x="30" y="301" on="1"/>
        <pt x="109" y="325" on="1"/>
      </contour>
    </TTGlyph>
    <TTGlyph name="M" xMin="97" yMin="0" xMax="987" yMax="716">
      <contour>
        <pt x="602" y="410" on="1"/>
        <pt x="602" y="0" on="1"/>
        <pt x="482" y="0" on="1"/>
        <pt x="482" y="410" on="1"/>
        <pt x="482" y="600" on="0"/>
        <pt x="351" y="600" on="1"/>
        <pt x="290" y="600" on="0"/>
        <pt x="215" y="516" on="0"/>
        <pt x="215" y="428" on="1"/>
        <pt x="215" y="0" on="1"/>
        <pt x="97" y="0" on="1"/>
        <pt x="97" y="699" on="1"/>
        <pt x="215" y="699" on="1"/>
        <pt x="215" y="643" on="1"/>
        <pt x="241" y="679" on="0"/>
        <pt x="325" y="716" on="0"/>
        <pt x="424" y="716" on="0"/>
        <pt x="519" y="649" on="0"/>
        <pt x="542" y="589" on="1"/>
        <pt x="568" y="650" on="0"/>
        <pt x="684" y="716" on="0"/>
        <pt x="750" y="716" on="1"/>
        <pt x="863" y="716" on="0"/>
        <pt x="987" y="578" on="0"/>
        <pt x="987" y="462" on="1"/>
        <pt x="987" y="0" on="1"/>
        <pt x="869" y="0" on="1"/>
        <pt x="869" y="423" on="1"/>
        <pt x="869" y="600" on="0"/>
        <pt x="733" y="600" on="1"/>
        <pt x="671" y="600" on="0"/>
        <pt x="602" y="494" on="0"/>
      </contour>
    </TTGlyph>
    <TTGlyph name="N" xMin="97" yMin="0" xMax="689" yMax="715">
      <contour>
        <pt x="571" y="495" on="0"/>
        <pt x="484" y="605" on="0"/>
        <pt x="320" y="605" on="0"/>
        <pt x="215" y="492" on="0"/>
        <pt x="215" y="397" on="1"/>
        <pt x="215" y="0" on="1"/>
        <pt x="97" y="0" on="1"/>
        <pt x="97" y="699" on="1"/>
        <pt x="215" y="699" on="1"/>
        <pt x="215" y="633" on="1"/>
        <pt x="256" y="674" on="0"/>
        <pt x="365" y="715" on="0"/>
        <pt x="418" y="715" on="1"/>
        <pt x="534" y="715" on="0"/>
        <pt x="689" y="553" on="0"/>
        <pt x="689" y="411" on="1"/>
        <pt x="689" y="0" on="1"/>
        <pt x="571" y="0" on="1"/>
        <pt x="571" y="397" on="1"/>
      </contour>
    </TTGlyph>
    <TTGlyph name="Nacute" xMin="97" yMin="0" xMax="689" yMax="932">
      <contour>
        <pt x="571" y="495" on="0"/>
        <pt x="484" y="605" on="0"/>
        <pt x="320" y="605" on="0"/>
        <pt x="215" y="492" on="0"/>
        <pt x="215" y="397" on="1"/>
        <pt x="215" y="0" on="1"/>
        <pt x="97" y="0" on="1"/>
        <pt x="97" y="699" on="1"/>
        <pt x="215" y="699" on="1"/>
        <pt x="215" y="633" on="1"/>
        <pt x="256" y="674" on="0"/>
        <pt x="365" y="715" on="0"/>
        <pt x="418" y="715" on="1"/>
        <pt x="534" y="715" on="0"/>
        <pt x="689" y="553" on="0"/>
        <pt x="689" y="411" on="1"/>
        <pt x="689" y="0" on="1"/>
        <pt x="571" y="0" on="1"/>
        <pt x="571" y="397" on="1"/>
      </contour>
      <contour>
        <pt x="471" y="787" on="1"/>
        <pt x="369" y="787" on="1"/>
        <pt x="475" y="932" on="1"/>
        <pt x="593" y="883" on="1"/>
      </contour>
    </TTGlyph>
    <TTGlyph name="Ntilde" xMin="97" yMin="0" xMax="689" yMax="887">
      <contour>
        <pt x="472" y="754" on="1"/>
        <pt x="446" y="754" on="0"/>
        <pt x="353" y="801" on="0"/>
        <pt x="340" y="801" on="1"/>
        <pt x="307" y="801" on="0"/>
        <pt x="306" y="757" on="1"/>
        <pt x="232" y="757" on="1"/>
        <pt x="232" y="815" on="0"/>
        <pt x="279" y="887" on="0"/>
        <pt x="321" y="887" on="1"/>
        <pt x="348" y="887" on="0"/>
        <pt x="444" y="840" on="0"/>
        <pt x="459" y="840" on="1"/>
        <pt x="489" y="840" on="0"/>
        <pt x="489" y="884" on="1"/>
        <pt x="564" y="884" on="1"/>
        <pt x="561" y="754" on="0"/>
      </contour>
      <contour>
        <pt x="571" y="495" on="0"/>
        <pt x="484" y="605" on="0"/>
        <pt x="320" y="605" on="0"/>
        <pt x="215" y="492" on="0"/>
        <pt x="215" y="397" on="1"/>
        <pt x="215" y="0" on="1"/>
        <pt x="97" y="0" on="1"/>
        <pt x="97" y="699" on="1"/>
        <pt x="215" y="699" on="1"/>
        <pt x="215" y="633" on="1"/>
        <pt x="256" y="674" on="0"/>
        <pt x="365" y="715" on="0"/>
        <pt x="418" y="715" on="1"/>
        <pt x="534" y="715" on="0"/>
        <pt x="689" y="553" on="0"/>
        <pt x="689" y="411" on="1"/>
        <pt x="689" y="0" on="1"/>
        <pt x="571" y="0" on="1"/>
        <pt x="571" y="397" on="1"/>
      </contour>
    </TTGlyph>
    <TTGlyph name="O" xMin="52" yMin="-7" xMax="788" yMax="716">
      <contour>
        <pt x="524" y="608" on="0"/>
        <pt x="316" y="608" on="0"/>
        <pt x="173" y="460" on="0"/>
        <pt x="173" y="249" on="0"/>
        <pt x="316" y="101" on="0"/>
        <pt x="524" y="101" on="0"/>
        <pt x="667" y="249" on="0"/>
        <pt x="667" y="460" on="0"/>
      </contour>
      <contour>
        <pt x="576" y="-7" on="0"/>
        <pt x="264" y="-7" on="0"/>
        <pt x="52" y="200" on="0"/>
        <pt x="52" y="509" on="0"/>
        <pt x="264" y="716" on="0"/>
        <pt x="576" y="716" on="0"/>
        <pt x="788" y="509" on="0"/>
        <pt x="788" y="200" on="0"/>
      </contour>
    </TTGlyph>
    <TTGlyph name="OE" xMin="53" yMin="-7" xMax="961" yMax="716">
      <contour>
        <pt x="753" y="600" on="1"/>
        <pt x="622" y="600" on="0"/>
        <pt x="622" y="522" on="1"/>
        <pt x="622" y="421" on="0"/>
        <pt x="789" y="421" on="1"/>
        <pt x="884" y="421" on="1"/>
        <pt x="884" y="315" on="1"/>
        <pt x="821" y="315" on="0"/>
        <pt x="746" y="315" on="0"/>
        <pt x="689" y="311" on="0"/>
        <pt x="661" y="304" on="0"/>
        <pt x="620" y="288" on="0"/>
        <pt x="610" y="277" on="1"/>
        <pt x="584" y="248" on="0"/>
        <pt x="584" y="208" on="1"/>
        <pt x="584" y="107" on="0"/>
        <pt x="750" y="107" on="1"/>
        <pt x="802" y="107" on="0"/>
        <pt x="901" y="132" on="0"/>
        <pt x="929" y="149" on="1"/>
        <pt x="961" y="43" on="1"/>
        <pt x="868" y="-7" on="0"/>
        <pt x="739" y="-7" on="1"/>
        <pt x="682" y="-7" on="0"/>
        <pt x="632" y="4" on="1"/>
        <pt x="632" y="0" on="1"/>
        <pt x="409" y="0" on="1"/>
        <pt x="258" y="0" on="0"/>
        <pt x="53" y="200" on="0"/>
        <pt x="53" y="499" on="0"/>
        <pt x="258" y="699" on="0"/>
        <pt x="409" y="699" on="1"/>
        <pt x="628" y="699" on="1"/>
        <pt x="677" y="716" on="0"/>
        <pt x="787" y="716" on="0"/>
        <pt x="892" y="696" on="0"/>
        <pt x="925" y="680" on="1"/>
        <pt x="901" y="568" on="1"/>
        <pt x="828" y="600" on="0"/>
      </contour>
      <contour>
        <pt x="181" y="452" on="0"/>
        <pt x="181" y="248" on="0"/>
        <pt x="320" y="103" on="0"/>
        <pt x="420" y="103" on="1"/>
        <pt x="486" y="103" on="1"/>
        <pt x="462" y="146" on="0"/>
        <pt x="462" y="205" on="1"/>
        <pt x="462" y="321" on="0"/>
        <pt x="577" y="376" on="1"/>
        <pt x="496" y="433" on="0"/>
        <pt x="496" y="533" on="1"/>
        <pt x="496" y="566" on="0"/>
        <pt x="508" y="596" on="1"/>
        <pt x="420" y="596" on="1"/>
        <pt x="319" y="596" on="0"/>
      </contour>
    </TTGlyph>
    <TTGlyph name="Oacute" xMin="52" yMin="-7" xMax="788" yMax="902">
      <contour>
        <pt x="524" y="608" on="0"/>
        <pt x="316" y="608" on="0"/>
        <pt x="173" y="460" on="0"/>
        <pt x="173" y="249" on="0"/>
        <pt x="316" y="101" on="0"/>
        <pt x="524" y="101" on="0"/>
        <pt x="667" y="249" on="0"/>
        <pt x="667" y="460" on="0"/>
      </contour>
      <contour>
        <pt x="576" y="-7" on="0"/>
        <pt x="264" y="-7" on="0"/>
        <pt x="52" y="200" on="0"/>
        <pt x="52" y="509" on="0"/>
        <pt x="264" y="716" on="0"/>
        <pt x="576" y="716" on="0"/>
        <pt x="788" y="509" on="0"/>
        <pt x="788" y="200" on="0"/>
      </contour>
      <contour>
        <pt x="438" y="757" on="1"/>
        <pt x="336" y="757" on="1"/>
        <pt x="442" y="902" on="1"/>
        <pt x="560" y="853" on="1"/>
      </contour>
    </TTGlyph>
    <TTGlyph name="Ocircumflex" xMin="52" yMin="-7" xMax="788" yMax="891">
      <contour>
        <pt x="524" y="608" on="0"/>
        <pt x="316" y="608" on="0"/>
        <pt x="173" y="460" on="0"/>
        <pt x="173" y="249" on="0"/>
        <pt x="316" y="101" on="0"/>
        <pt x="524" y="101" on="0"/>
        <pt x="667" y="249" on="0"/>
        <pt x="667" y="460" on="0"/>
      </contour>
      <contour>
        <pt x="576" y="-7" on="0"/>
        <pt x="264" y="-7" on="0"/>
        <pt x="52" y="200" on="0"/>
        <pt x="52" y="509" on="0"/>
        <pt x="264" y="716" on="0"/>
        <pt x="576" y="716" on="0"/>
        <pt x="788" y="509" on="0"/>
        <pt x="788" y="200" on="0"/>
      </contour>
      <contour>
        <pt x="366" y="891" on="1"/>
        <pt x="470" y="891" on="1"/>
        <pt x="592" y="757" on="1"/>
        <pt x="495" y="757" on="1"/>
        <pt x="418" y="813" on="1"/>
        <pt x="341" y="757" on="1"/>
        <pt x="244" y="757" on="1"/>
      </contour>
    </TTGlyph>
    <TTGlyph name="Odieresis" xMin="52" yMin="-7" xMax="788" yMax="876">
      <contour>
        <pt x="296" y="753" on="0"/>
        <pt x="261" y="789" on="0"/>
        <pt x="261" y="840" on="0"/>
        <pt x="296" y="876" on="0"/>
        <pt x="348" y="876" on="0"/>
        <pt x="384" y="841" on="0"/>
        <pt x="384" y="790" on="0"/>
        <pt x="348" y="753" on="0"/>
      </contour>
      <contour>
        <pt x="482" y="753" on="0"/>
        <pt x="446" y="789" on="0"/>
        <pt x="446" y="840" on="0"/>
        <pt x="482" y="876" on="0"/>
        <pt x="533" y="876" on="0"/>
        <pt x="569" y="841" on="0"/>
        <pt x="569" y="790" on="0"/>
        <pt x="532" y="753" on="0"/>
      </contour>
      <contour>
        <pt x="524" y="608" on="0"/>
        <pt x="316" y="608" on="0"/>
        <pt x="173" y="460" on="0"/>
        <pt x="173" y="249" on="0"/>
        <pt x="316" y="101" on="0"/>
        <pt x="524" y="101" on="0"/>
        <pt x="667" y="249" on="0"/>
        <pt x="667" y="460" on="0"/>
      </contour>
      <contour>
        <pt x="576" y="-7" on="0"/>
        <pt x="264" y="-7" on="0"/>
        <pt x="52" y="200" on="0"/>
        <pt x="52" y="509" on="0"/>
        <pt x="264" y="716" on="0"/>
        <pt x="576" y="716" on="0"/>
        <pt x="788" y="509" on="0"/>
        <pt x="788" y="200" on="0"/>
      </contour>
    </TTGlyph>
    <TTGlyph name="Ograve" xMin="52" yMin="-7" xMax="788" yMax="902">
      <contour>
        <pt x="496" y="757" on="1"/>
        <pt x="394" y="757" on="1"/>
        <pt x="272" y="853" on="1"/>
        <pt x="390" y="902" on="1"/>
      </contour>
      <contour>
        <pt x="524" y="608" on="0"/>
        <pt x="316" y="608" on="0"/>
        <pt x="173" y="460" on="0"/>
        <pt x="173" y="249" on="0"/>
        <pt x="316" y="101" on="0"/>
        <pt x="524" y="101" on="0"/>
        <pt x="667" y="249" on="0"/>
        <pt x="667" y="460" on="0"/>
      </contour>
      <contour>
        <pt x="576" y="-7" on="0"/>
        <pt x="264" y="-7" on="0"/>
        <pt x="52" y="200" on="0"/>
        <pt x="52" y="509" on="0"/>
        <pt x="264" y="716" on="0"/>
        <pt x="576" y="716" on="0"/>
        <pt x="788" y="509" on="0"/>
        <pt x="788" y="200" on="0"/>
      </contour>
    </TTGlyph>
    <TTGlyph name="Omega" xMin="54" yMin="0" xMax="852" yMax="716">
      <contour>
        <pt x="297" y="716" on="0"/>
        <pt x="609" y="716" on="0"/>
        <pt x="821" y="509" on="0"/>
        <pt x="821" y="214" on="0"/>
        <pt x="704" y="111" on="1"/>
        <pt x="852" y="111" on="1"/>
        <pt x="852" y="0" on="1"/>
        <pt x="518" y="0" on="1"/>
        <pt x="518" y="110" on="1"/>
        <pt x="599" y="132" on="0"/>
        <pt x="700" y="267" on="0"/>
        <pt x="700" y="354" on="1"/>
        <pt x="700" y="460" on="0"/>
        <pt x="557" y="608" on="0"/>
        <pt x="349" y="608" on="0"/>
        <pt x="206" y="460" on="0"/>
        <pt x="206" y="354" on="1"/>
        <pt x="206" y="267" on="0"/>
        <pt x="307" y="132" on="0"/>
        <pt x="388" y="110" on="1"/>
        <pt x="388" y="0" on="1"/>
        <pt x="54" y="0" on="1"/>
        <pt x="54" y="111" on="1"/>
        <pt x="202" y="111" on="1"/>
        <pt x="85" y="214" on="0"/>
        <pt x="85" y="509" on="0"/>
      </contour>
    </TTGlyph>
    <TTGlyph name="Oslash" xMin="52" yMin="-117" xMax="788" yMax="811">
      <contour>
        <pt x="788" y="355" on="1"/>
        <pt x="788" y="200" on="0"/>
        <pt x="576" y="-7" on="0"/>
        <pt x="420" y="-7" on="1"/>
        <pt x="367" y="-7" on="0"/>
        <pt x="319" y="5" on="1"/>
        <pt x="262" y="-117" on="1"/>
        <pt x="162" y="-117" on="1"/>
        <pt x="235" y="39" on="1"/>
        <pt x="150" y="85" on="0"/>
        <pt x="52" y="252" on="0"/>
        <pt x="52" y="355" on="1"/>
        <pt x="52" y="509" on="0"/>
        <pt x="264" y="716" on="0"/>
        <pt x="420" y="716" on="1"/>
        <pt x="481" y="716" on="0"/>
        <pt x="541" y="697" on="1"/>
        <pt x="595" y="811" on="1"/>
        <pt x="695" y="811" on="1"/>
        <pt x="624" y="658" on="1"/>
        <pt x="700" y="610" on="0"/>
        <pt x="788" y="451" on="0"/>
      </contour>
      <contour>
        <pt x="420" y="608" on="1"/>
        <pt x="316" y="608" on="0"/>
        <pt x="173" y="460" on="0"/>
        <pt x="173" y="354" on="1"/>
        <pt x="173" y="289" on="0"/>
        <pt x="232" y="177" on="0"/>
        <pt x="283" y="142" on="1"/>
        <pt x="495" y="596" on="1"/>
        <pt x="459" y="608" on="0"/>
      </contour>
      <contour>
        <pt x="667" y="354" on="1"/>
        <pt x="667" y="476" on="0"/>
        <pt x="575" y="553" on="1"/>
        <pt x="366" y="106" on="1"/>
        <pt x="394" y="101" on="0"/>
        <pt x="420" y="101" on="1"/>
        <pt x="524" y="101" on="0"/>
        <pt x="667" y="249" on="0"/>
      </contour>
    </TTGlyph>
    <TTGlyph name="Otilde" xMin="52" yMin="-7" xMax="788" yMax="887">
      <contour>
        <pt x="524" y="608" on="0"/>
        <pt x="316" y="608" on="0"/>
        <pt x="173" y="460" on="0"/>
        <pt x="173" y="249" on="0"/>
        <pt x="316" y="101" on="0"/>
        <pt x="524" y="101" on="0"/>
        <pt x="667" y="249" on="0"/>
        <pt x="667" y="460" on="0"/>
      </contour>
      <contour>
        <pt x="576" y="-7" on="0"/>
        <pt x="264" y="-7" on="0"/>
        <pt x="52" y="200" on="0"/>
        <pt x="52" y="509" on="0"/>
        <pt x="264" y="716" on="0"/>
        <pt x="576" y="716" on="0"/>
        <pt x="788" y="509" on="0"/>
        <pt x="788" y="200" on="0"/>
      </contour>
      <contour>
        <pt x="492" y="754" on="1"/>
        <pt x="466" y="754" on="0"/>
        <pt x="373" y="801" on="0"/>
        <pt x="360" y="801" on="1"/>
        <pt x="327" y="801" on="0"/>
        <pt x="326" y="757" on="1"/>
        <pt x="252" y="757" on="1"/>
        <pt x="252" y="815" on="0"/>
        <pt x="299" y="887" on="0"/>
        <pt x="341" y="887" on="1"/>
        <pt x="368" y="887" on="0"/>
        <pt x="464" y="840" on="0"/>
        <pt x="479" y="840" on="1"/>
        <pt x="509" y="840" on="0"/>
        <pt x="509" y="884" on="1"/>
        <pt x="584" y="884" on="1"/>
        <pt x="581" y="754" on="0"/>
      </contour>
    </TTGlyph>
    <TTGlyph name="P" xMin="97" yMin="0" xMax="642" yMax="699">
      <contour>
        <pt x="496" y="699" on="0"/>
        <pt x="642" y="577" on="0"/>
        <pt x="642" y="323" on="0"/>
        <pt x="493" y="205" on="0"/>
        <pt x="339" y="205" on="1"/>
        <pt x="215" y="205" on="1"/>
        <pt x="215" y="0" on="1"/>
        <pt x="97" y="0" on="1"/>
        <pt x="97" y="699" on="1"/>
        <pt x="337" y="699" on="1"/>
      </contour>
      <contour>
        <pt x="450" y="312" on="0"/>
        <pt x="521" y="387" on="0"/>
        <pt x="521" y="532" on="0"/>
        <pt x="431" y="592" on="0"/>
        <pt x="335" y="592" on="1"/>
        <pt x="215" y="592" on="1"/>
        <pt x="215" y="312" on="1"/>
        <pt x="352" y="312" on="1"/>
      </contour>
    </TTGlyph>
    <TTGlyph name="Q" xMin="52" yMin="-122" xMax="788" yMax="716">
      <contour>
        <pt x="576" y="716" on="0"/>
        <pt x="788" y="509" on="0"/>
        <pt x="788" y="216" on="0"/>
        <pt x="613" y="18" on="0"/>
        <pt x="479" y="-2" on="1"/>
        <pt x="479" y="-122" on="1"/>
        <pt x="361" y="-122" on="1"/>
        <pt x="361" y="-2" on="1"/>
        <pt x="226" y="18" on="0"/>
        <pt x="52" y="216" on="0"/>
        <pt x="52" y="509" on="0"/>
        <pt x="264" y="716" on="0"/>
      </contour>
      <contour>
        <pt x="361" y="220" on="1"/>
        <pt x="479" y="220" on="1"/>
        <pt x="479" y="108" on="1"/>
        <pt x="562" y="128" on="0"/>
        <pt x="667" y="265" on="0"/>
        <pt x="667" y="460" on="0"/>
        <pt x="524" y="608" on="0"/>
        <pt x="316" y="608" on="0"/>
        <pt x="173" y="460" on="0"/>
        <pt x="173" y="265" on="0"/>
        <pt x="278" y="128" on="0"/>
        <pt x="361" y="108" on="1"/>
      </contour>
    </TTGlyph>
    <TTGlyph name="R" xMin="97" yMin="0" xMax="687" yMax="699">
      <contour>
        <pt x="655" y="472" on="1"/>
        <pt x="655" y="299" on="0"/>
        <pt x="504" y="254" on="1"/>
        <pt x="687" y="0" on="1"/>
        <pt x="537" y="0" on="1"/>
        <pt x="370" y="235" on="1"/>
        <pt x="215" y="235" on="1"/>
        <pt x="215" y="0" on="1"/>
        <pt x="97" y="0" on="1"/>
        <pt x="97" y="699" on="1"/>
        <pt x="357" y="699" on="1"/>
        <pt x="517" y="699" on="0"/>
        <pt x="655" y="591" on="0"/>
      </contour>
      <contour>
        <pt x="462" y="342" on="0"/>
        <pt x="534" y="404" on="0"/>
        <pt x="534" y="541" on="0"/>
        <pt x="460" y="592" on="0"/>
        <pt x="365" y="592" on="1"/>
        <pt x="215" y="592" on="1"/>
        <pt x="215" y="342" on="1"/>
        <pt x="362" y="342" on="1"/>
      </contour>
    </TTGlyph>
    <TTGlyph name="Racute" xMin="97" yMin="0" xMax="687" yMax="932">
      <contour>
        <pt x="655" y="472" on="1"/>
        <pt x="655" y="299" on="0"/>
        <pt x="504" y="254" on="1"/>
        <pt x="687" y="0" on="1"/>
        <pt x="537" y="0" on="1"/>
        <pt x="370" y="235" on="1"/>
        <pt x="215" y="235" on="1"/>
        <pt x="215" y="0" on="1"/>
        <pt x="97" y="0" on="1"/>
        <pt x="97" y="699" on="1"/>
        <pt x="357" y="699" on="1"/>
        <pt x="517" y="699" on="0"/>
        <pt x="655" y="591" on="0"/>
      </contour>
      <contour>
        <pt x="462" y="342" on="0"/>
        <pt x="534" y="404" on="0"/>
        <pt x="534" y="541" on="0"/>
        <pt x="460" y="592" on="0"/>
        <pt x="365" y="592" on="1"/>
        <pt x="215" y="592" on="1"/>
        <pt x="215" y="342" on="1"/>
        <pt x="362" y="342" on="1"/>
      </contour>
      <contour>
        <pt x="372" y="787" on="1"/>
        <pt x="270" y="787" on="1"/>
        <pt x="376" y="932" on="1"/>
        <pt x="494" y="883" on="1"/>
      </contour>
    </TTGlyph>
    <TTGlyph name="Rcaron" xMin="97" yMin="0" xMax="687" yMax="894">
      <contour>
        <pt x="655" y="472" on="1"/>
        <pt x="655" y="299" on="0"/>
        <pt x="504" y="254" on="1"/>
        <pt x="687" y="0" on="1"/>
        <pt x="537" y="0" on="1"/>
        <pt x="370" y="235" on="1"/>
        <pt x="215" y="235" on="1"/>
        <pt x="215" y="0" on="1"/>
        <pt x="97" y="0" on="1"/>
        <pt x="97" y="699" on="1"/>
        <pt x="357" y="699" on="1"/>
        <pt x="517" y="699" on="0"/>
        <pt x="655" y="591" on="0"/>
      </contour>
      <contour>
        <pt x="462" y="342" on="0"/>
        <pt x="534" y="404" on="0"/>
        <pt x="534" y="541" on="0"/>
        <pt x="460" y="592" on="0"/>
        <pt x="365" y="592" on="1"/>
        <pt x="215" y="592" on="1"/>
        <pt x="215" y="342" on="1"/>
        <pt x="362" y="342" on="1"/>
      </contour>
      <contour>
        <pt x="396" y="760" on="1"/>
        <pt x="292" y="760" on="1"/>
        <pt x="170" y="894" on="1"/>
        <pt x="267" y="894" on="1"/>
        <pt x="344" y="838" on="1"/>
        <pt x="421" y="894" on="1"/>
        <pt x="518" y="894" on="1"/>
      </contour>
    </TTGlyph>
    <TTGlyph name="Rcommaaccent" xMin="97" yMin="-250" xMax="687" yMax="699">
      <contour>
        <pt x="655" y="472" on="1"/>
        <pt x="655" y="299" on="0"/>
        <pt x="504" y="254" on="1"/>
        <pt x="687" y="0" on="1"/>
        <pt x="537" y="0" on="1"/>
        <pt x="370" y="235" on="1"/>
        <pt x="215" y="235" on="1"/>
        <pt x="215" y="0" on="1"/>
        <pt x="97" y="0" on="1"/>
        <pt x="97" y="699" on="1"/>
        <pt x="357" y="699" on="1"/>
        <pt x="517" y="699" on="0"/>
        <pt x="655" y="591" on="0"/>
      </contour>
      <contour>
        <pt x="462" y="342" on="0"/>
        <pt x="534" y="404" on="0"/>
        <pt x="534" y="541" on="0"/>
        <pt x="460" y="592" on="0"/>
        <pt x="365" y="592" on="1"/>
        <pt x="215" y="592" on="1"/>
        <pt x="215" y="342" on="1"/>
        <pt x="362" y="342" on="1"/>
      </contour>
      <contour>
        <pt x="261" y="-250" on="1"/>
        <pt x="326" y="-55" on="1"/>
        <pt x="437" y="-55" on="1"/>
        <pt x="357" y="-250" on="1"/>
      </contour>
    </TTGlyph>
    <TTGlyph name="S" xMin="40" yMin="-8" xMax="581" yMax="716">
      <contour>
        <pt x="257" y="607" on="0"/>
        <pt x="191" y="565" on="0"/>
        <pt x="191" y="480" on="0"/>
        <pt x="257" y="435" on="0"/>
        <pt x="472" y="383" on="0"/>
        <pt x="581" y="289" on="0"/>
        <pt x="581" y="106" on="0"/>
        <pt x="443" y="-8" on="0"/>
        <pt x="331" y="-8" on="1"/>
        <pt x="167" y="-8" on="0"/>
        <pt x="40" y="105" on="1"/>
        <pt x="114" y="194" on="1"/>
        <pt x="220" y="102" on="0"/>
        <pt x="334" y="102" on="1"/>
        <pt x="391" y="102" on="0"/>
        <pt x="458" y="151" on="0"/>
        <pt x="458" y="232" on="0"/>
        <pt x="395" y="277" on="0"/>
        <pt x="241" y="314" on="0"/>
        <pt x="161" y="345" on="0"/>
        <pt x="130" y="370" on="1"/>
        <pt x="68" y="417" on="0"/>
        <pt x="68" y="611" on="0"/>
        <pt x="209" y="716" on="0"/>
        <pt x="313" y="716" on="1"/>
        <pt x="380" y="716" on="0"/>
        <pt x="512" y="672" on="0"/>
        <pt x="560" y="632" on="1"/>
        <pt x="497" y="543" on="1"/>
        <pt x="466" y="571" on="0"/>
        <pt x="360" y="607" on="0"/>
      </contour>
    </TTGlyph>
    <TTGlyph name="Scaron" xMin="40" yMin="-8" xMax="584" yMax="894">
      <contour>
        <pt x="258" y="610" on="0"/>
        <pt x="192" y="568" on="0"/>
        <pt x="192" y="483" on="0"/>
        <pt x="259" y="437" on="0"/>
        <pt x="475" y="385" on="0"/>
        <pt x="584" y="290" on="0"/>
        <pt x="584" y="106" on="0"/>
        <pt x="446" y="-8" on="0"/>
        <pt x="333" y="-8" on="1"/>
        <pt x="167" y="-8" on="0"/>
        <pt x="40" y="106" on="1"/>
        <pt x="115" y="195" on="1"/>
        <pt x="221" y="103" on="0"/>
        <pt x="336" y="103" on="1"/>
        <pt x="393" y="103" on="0"/>
        <pt x="461" y="152" on="0"/>
        <pt x="461" y="233" on="0"/>
        <pt x="397" y="279" on="0"/>
        <pt x="181" y="331" on="0"/>
        <pt x="68" y="421" on="0"/>
        <pt x="68" y="615" on="0"/>
        <pt x="210" y="720" on="0"/>
        <pt x="315" y="720" on="1"/>
        <pt x="382" y="720" on="0"/>
        <pt x="515" y="676" on="0"/>
        <pt x="563" y="636" on="1"/>
        <pt x="500" y="546" on="1"/>
        <pt x="469" y="574" on="0"/>
        <pt x="362" y="610" on="0"/>
      </contour>
      <contour>
        <pt x="368" y="760" on="1"/>
        <pt x="264" y="760" on="1"/>
        <pt x="142" y="894" on="1"/>
        <pt x="239" y="894" on="1"/>
        <pt x="316" y="838" on="1"/>
        <pt x="393" y="894" on="1"/>
        <pt x="490" y="894" on="1"/>
      </contour>
    </TTGlyph>
    <TTGlyph name="T" xMin="18" yMin="0" xMax="658" yMax="716">
      <contour>
        <pt x="398" y="0" on="1"/>
        <pt x="280" y="0" on="1"/>
        <pt x="280" y="597" on="1"/>
        <pt x="230" y="589" on="0"/>
        <pt x="132" y="550" on="0"/>
        <pt x="108" y="534" on="1"/>
        <pt x="84" y="519" on="1"/>
        <pt x="18" y="613" on="1"/>
        <pt x="67" y="657" on="0"/>
        <pt x="246" y="716" on="0"/>
        <pt x="430" y="716" on="0"/>
        <pt x="609" y="657" on="0"/>
        <pt x="658" y="613" on="1"/>
        <pt x="592" y="519" on="1"/>
        <pt x="564" y="541" on="0"/>
        <pt x="447" y="589" on="0"/>
        <pt x="398" y="597" on="1"/>
      </contour>
    </TTGlyph>
    <TTGlyph name="Thorn" xMin="97" yMin="0" xMax="642" yMax="699">
      <contour>
        <pt x="642" y="369" on="1"/>
        <pt x="642" y="236" on="0"/>
        <pt x="484" y="117" on="0"/>
        <pt x="329" y="117" on="1"/>
        <pt x="215" y="117" on="1"/>
        <pt x="215" y="0" on="1"/>
        <pt x="97" y="0" on="1"/>
        <pt x="97" y="699" on="1"/>
        <pt x="215" y="699" on="1"/>
        <pt x="215" y="611" on="1"/>
        <pt x="327" y="611" on="1"/>
        <pt x="642" y="611" on="0"/>
      </contour>
      <contour>
        <pt x="441" y="224" on="0"/>
        <pt x="521" y="301" on="0"/>
        <pt x="521" y="443" on="0"/>
        <pt x="423" y="504" on="0"/>
        <pt x="325" y="504" on="1"/>
        <pt x="215" y="504" on="1"/>
        <pt x="215" y="224" on="1"/>
        <pt x="342" y="224" on="1"/>
      </contour>
    </TTGlyph>
    <TTGlyph name="U" xMin="88" yMin="-7" xMax="680" yMax="699">
      <contour>
        <pt x="302" y="104" on="0"/>
        <pt x="466" y="104" on="0"/>
        <pt x="562" y="216" on="0"/>
        <pt x="562" y="312" on="1"/>
        <pt x="562" y="699" on="1"/>
        <pt x="680" y="699" on="1"/>
        <pt x="680" y="0" on="1"/>
        <pt x="562" y="0" on="1"/>
        <pt x="562" y="65" on="1"/>
        <pt x="488" y="-7" on="0"/>
        <pt x="384" y="-7" on="1"/>
        <pt x="254" y="-7" on="0"/>
        <pt x="88" y="156" on="0"/>
        <pt x="88" y="307" on="1"/>
        <pt x="88" y="699" on="1"/>
        <pt x="206" y="699" on="1"/>
        <pt x="206" y="312" on="1"/>
        <pt x="206" y="216" on="0"/>
      </contour>
    </TTGlyph>
    <TTGlyph name="Uacute" xMin="88" yMin="-7" xMax="680" yMax="903">
      <contour>
        <pt x="395" y="758" on="1"/>
        <pt x="293" y="758" on="1"/>
        <pt x="399" y="903" on="1"/>
        <pt x="517" y="854" on="1"/>
      </contour>
      <contour>
        <pt x="302" y="104" on="0"/>
        <pt x="466" y="104" on="0"/>
        <pt x="562" y="216" on="0"/>
        <pt x="562" y="312" on="1"/>
        <pt x="562" y="699" on="1"/>
        <pt x="680" y="699" on="1"/>
        <pt x="680" y="0" on="1"/>
        <pt x="562" y="0" on="1"/>
        <pt x="562" y="65" on="1"/>
        <pt x="488" y="-7" on="0"/>
        <pt x="384" y="-7" on="1"/>
        <pt x="254" y="-7" on="0"/>
        <pt x="88" y="156" on="0"/>
        <pt x="88" y="307" on="1"/>
        <pt x="88" y="699" on="1"/>
        <pt x="206" y="699" on="1"/>
        <pt x="206" y="312" on="1"/>
        <pt x="206" y="216" on="0"/>
      </contour>
    </TTGlyph>
    <TTGlyph name="Ucircumflex" xMin="88" yMin="-7" xMax="680" yMax="891">
      <contour>
        <pt x="302" y="104" on="0"/>
        <pt x="466" y="104" on="0"/>
        <pt x="562" y="216" on="0"/>
        <pt x="562" y="312" on="1"/>
        <pt x="562" y="699" on="1"/>
        <pt x="680" y="699" on="1"/>
        <pt x="680" y="0" on="1"/>
        <pt x="562" y="0" on="1"/>
        <pt x="562" y="65" on="1"/>
        <pt x="488" y="-7" on="0"/>
        <pt x="384" y="-7" on="1"/>
        <pt x="254" y="-7" on="0"/>
        <pt x="88" y="156" on="0"/>
        <pt x="88" y="307" on="1"/>
        <pt x="88" y="699" on="1"/>
        <pt x="206" y="699" on="1"/>
        <pt x="206" y="312" on="1"/>
        <pt x="206" y="216" on="0"/>
      </contour>
      <contour>
        <pt x="336" y="891" on="1"/>
        <pt x="440" y="891" on="1"/>
        <pt x="562" y="757" on="1"/>
        <pt x="465" y="757" on="1"/>
        <pt x="388" y="813" on="1"/>
        <pt x="311" y="757" on="1"/>
        <pt x="214" y="757" on="1"/>
      </contour>
    </TTGlyph>
    <TTGlyph name="Udieresis" xMin="88" yMin="-7" xMax="680" yMax="876">
      <contour>
        <pt x="275" y="753" on="0"/>
        <pt x="240" y="789" on="0"/>
        <pt x="240" y="840" on="0"/>
        <pt x="276" y="876" on="0"/>
        <pt x="327" y="876" on="0"/>
        <pt x="363" y="841" on="0"/>
        <pt x="363" y="790" on="0"/>
        <pt x="326" y="753" on="0"/>
      </contour>
      <contour>
        <pt x="461" y="753" on="0"/>
        <pt x="425" y="789" on="0"/>
        <pt x="425" y="840" on="0"/>
        <pt x="461" y="876" on="0"/>
        <pt x="512" y="876" on="0"/>
        <pt x="548" y="841" on="0"/>
        <pt x="548" y="790" on="0"/>
        <pt x="512" y="753" on="0"/>
      </contour>
      <contour>
        <pt x="302" y="104" on="0"/>
        <pt x="466" y="104" on="0"/>
        <pt x="562" y="216" on="0"/>
        <pt x="562" y="312" on="1"/>
        <pt x="562" y="699" on="1"/>
        <pt x="680" y="699" on="1"/>
        <pt x="680" y="0" on="1"/>
        <pt x="562" y="0" on="1"/>
        <pt x="562" y="65" on="1"/>
        <pt x="488" y="-7" on="0"/>
        <pt x="384" y="-7" on="1"/>
        <pt x="254" y="-7" on="0"/>
        <pt x="88" y="156" on="0"/>
        <pt x="88" y="307" on="1"/>
        <pt x="88" y="699" on="1"/>
        <pt x="206" y="699" on="1"/>
        <pt x="206" y="312" on="1"/>
        <pt x="206" y="216" on="0"/>
      </contour>
    </TTGlyph>
    <TTGlyph name="Ugrave" xMin="88" yMin="-7" xMax="680" yMax="902">
      <contour>
        <pt x="490" y="757" on="1"/>
        <pt x="388" y="757" on="1"/>
        <pt x="266" y="853" on="1"/>
        <pt x="384" y="902" on="1"/>
      </contour>
      <contour>
        <pt x="302" y="104" on="0"/>
        <pt x="466" y="104" on="0"/>
        <pt x="562" y="216" on="0"/>
        <pt x="562" y="312" on="1"/>
        <pt x="562" y="699" on="1"/>
        <pt x="680" y="699" on="1"/>
        <pt x="680" y="0" on="1"/>
        <pt x="562" y="0" on="1"/>
        <pt x="562" y="65" on="1"/>
        <pt x="488" y="-7" on="0"/>
        <pt x="384" y="-7" on="1"/>
        <pt x="254" y="-7" on="0"/>
        <pt x="88" y="156" on="0"/>
        <pt x="88" y="307" on="1"/>
        <pt x="88" y="699" on="1"/>
        <pt x="206" y="699" on="1"/>
        <pt x="206" y="312" on="1"/>
        <pt x="206" y="216" on="0"/>
      </contour>
    </TTGlyph>
    <TTGlyph name="V" xMin="3" yMin="0" xMax="697" yMax="699">
      <contour>
        <pt x="416" y="0" on="1"/>
        <pt x="284" y="0" on="1"/>
        <pt x="3" y="699" on="1"/>
        <pt x="135" y="699" on="1"/>
        <pt x="350" y="177" on="1"/>
        <pt x="565" y="699" on="1"/>
        <pt x="697" y="699" on="1"/>
      </contour>
    </TTGlyph>
    <TTGlyph name="W" xMin="88" yMin="-8" xMax="959" yMax="699">
      <contour>
        <pt x="844" y="699" on="1"/>
        <pt x="959" y="699" on="1"/>
        <pt x="959" y="268" on="1"/>
        <pt x="959" y="137" on="0"/>
        <pt x="830" y="-8" on="0"/>
        <pt x="589" y="-8" on="0"/>
        <pt x="523" y="86" on="1"/>
        <pt x="454" y="-8" on="0"/>
        <pt x="217" y="-8" on="0"/>
        <pt x="88" y="137" on="0"/>
        <pt x="88" y="268" on="1"/>
        <pt x="88" y="699" on="1"/>
        <pt x="203" y="699" on="1"/>
        <pt x="203" y="268" on="1"/>
        <pt x="203" y="190" on="0"/>
        <pt x="272" y="105" on="0"/>
        <pt x="397" y="105" on="0"/>
        <pt x="463" y="190" on="0"/>
        <pt x="463" y="268" on="1"/>
        <pt x="464" y="699" on="1"/>
        <pt x="582" y="699" on="1"/>
        <pt x="583" y="268" on="1"/>
        <pt x="583" y="190" on="0"/>
        <pt x="649" y="105" on="0"/>
        <pt x="774" y="105" on="0"/>
        <pt x="844" y="190" on="0"/>
        <pt x="844" y="268" on="1"/>
      </contour>
    </TTGlyph>
    <TTGlyph name="X" xMin="16" yMin="0" xMax="659" yMax="699">
      <contour>
        <pt x="512" y="0" on="1"/>
        <pt x="340" y="263" on="1"/>
        <pt x="335" y="263" on="1"/>
        <pt x="163" y="0" on="1"/>
        <pt x="16" y="0" on="1"/>
        <pt x="256" y="359" on="1"/>
        <pt x="33" y="699" on="1"/>
        <pt x="179" y="699" on="1"/>
        <pt x="335" y="463" on="1"/>
        <pt x="340" y="463" on="1"/>
        <pt x="496" y="699" on="1"/>
        <pt x="642" y="699" on="1"/>
        <pt x="419" y="359" on="1"/>
        <pt x="659" y="0" on="1"/>
      </contour>
    </TTGlyph>
    <TTGlyph name="Y" xMin="66" yMin="-115" xMax="634" yMax="700">
      <contour>
        <pt x="338" y="-4" on="1"/>
        <pt x="420" y="-4" on="0"/>
        <pt x="516" y="108" on="0"/>
        <pt x="516" y="204" on="1"/>
        <pt x="516" y="231" on="1"/>
        <pt x="437" y="164" on="0"/>
        <pt x="351" y="164" on="1"/>
        <pt x="223" y="164" on="0"/>
        <pt x="75" y="316" on="0"/>
        <pt x="75" y="468" on="1"/>
        <pt x="75" y="699" on="1"/>
        <pt x="193" y="699" on="1"/>
        <pt x="193" y="473" on="1"/>
        <pt x="193" y="275" on="0"/>
        <pt x="351" y="275" on="1"/>
        <pt x="419" y="275" on="0"/>
        <pt x="506" y="356" on="0"/>
        <pt x="516" y="426" on="1"/>
        <pt x="516" y="700" on="1"/>
        <pt x="634" y="700" on="1"/>
        <pt x="634" y="199" on="1"/>
        <pt x="634" y="48" on="0"/>
        <pt x="468" y="-115" on="0"/>
        <pt x="338" y="-115" on="1"/>
        <pt x="243" y="-115" on="0"/>
        <pt x="99" y="-25" on="0"/>
        <pt x="66" y="60" on="1"/>
        <pt x="174" y="111" on="1"/>
        <pt x="194" y="56" on="0"/>
        <pt x="278" y="-4" on="0"/>
      </contour>
    </TTGlyph>
    <TTGlyph name="Yacute" xMin="66" yMin="-115" xMax="634" yMax="887">
      <contour>
        <pt x="338" y="-4" on="1"/>
        <pt x="420" y="-4" on="0"/>
        <pt x="516" y="108" on="0"/>
        <pt x="516" y="204" on="1"/>
        <pt x="516" y="231" on="1"/>
        <pt x="437" y="164" on="0"/>
        <pt x="351" y="164" on="1"/>
        <pt x="223" y="164" on="0"/>
        <pt x="75" y="316" on="0"/>
        <pt x="75" y="468" on="1"/>
        <pt x="75" y="699" on="1"/>
        <pt x="193" y="699" on="1"/>
        <pt x="193" y="473" on="1"/>
        <pt x="193" y="275" on="0"/>
        <pt x="351" y="275" on="1"/>
        <pt x="419" y="275" on="0"/>
        <pt x="506" y="356" on="0"/>
        <pt x="516" y="426" on="1"/>
        <pt x="516" y="700" on="1"/>
        <pt x="634" y="700" on="1"/>
        <pt x="634" y="199" on="1"/>
        <pt x="634" y="48" on="0"/>
        <pt x="468" y="-115" on="0"/>
        <pt x="338" y="-115" on="1"/>
        <pt x="243" y="-115" on="0"/>
        <pt x="99" y="-25" on="0"/>
        <pt x="66" y="60" on="1"/>
        <pt x="174" y="111" on="1"/>
        <pt x="194" y="56" on="0"/>
        <pt x="278" y="-4" on="0"/>
      </contour>
      <contour>
        <pt x="389" y="742" on="1"/>
        <pt x="287" y="742" on="1"/>
        <pt x="393" y="887" on="1"/>
        <pt x="511" y="838" on="1"/>
      </contour>
    </TTGlyph>
    <TTGlyph name="Z" xMin="47" yMin="0" xMax="624" yMax="699">
      <contour>
        <pt x="454" y="591" on="1"/>
        <pt x="60" y="591" on="1"/>
        <pt x="60" y="699" on="1"/>
        <pt x="618" y="699" on="1"/>
        <pt x="618" y="607" on="1"/>
        <pt x="431" y="379" on="1"/>
        <pt x="565" y="379" on="1"/>
        <pt x="565" y="309" on="1"/>
        <pt x="373" y="309" on="1"/>
        <pt x="212" y="112" on="1"/>
        <pt x="212" y="109" on="1"/>
        <pt x="624" y="109" on="1"/>
        <pt x="624" y="0" on="1"/>
        <pt x="47" y="0" on="1"/>
        <pt x="47" y="91" on="1"/>
        <pt x="225" y="309" on="1"/>
        <pt x="87" y="309" on="1"/>
        <pt x="87" y="379" on="1"/>
        <pt x="283" y="379" on="1"/>
        <pt x="454" y="588" on="1"/>
      </contour>
    </TTGlyph>
    <TTGlyph name="Zcaron" xMin="47" yMin="0" xMax="624" yMax="894">
      <contour>
        <pt x="454" y="591" on="1"/>
        <pt x="60" y="591" on="1"/>
        <pt x="60" y="699" on="1"/>
        <pt x="618" y="699" on="1"/>
        <pt x="618" y="607" on="1"/>
        <pt x="431" y="379" on="1"/>
        <pt x="565" y="379" on="1"/>
        <pt x="565" y="309" on="1"/>
        <pt x="373" y="309" on="1"/>
        <pt x="212" y="112" on="1"/>
        <pt x="212" y="109" on="1"/>
        <pt x="624" y="109" on="1"/>
        <pt x="624" y="0" on="1"/>
        <pt x="47" y="0" on="1"/>
        <pt x="47" y="91" on="1"/>
        <pt x="225" y="309" on="1"/>
        <pt x="87" y="309" on="1"/>
        <pt x="87" y="379" on="1"/>
        <pt x="283" y="379" on="1"/>
        <pt x="454" y="588" on="1"/>
      </contour>
      <contour>
        <pt x="399" y="760" on="1"/>
        <pt x="295" y="760" on="1"/>
        <pt x="173" y="894" on="1"/>
        <pt x="270" y="894" on="1"/>
        <pt x="347" y="838" on="1"/>
        <pt x="424" y="894" on="1"/>
        <pt x="521" y="894" on="1"/>
      </contour>
    </TTGlyph>
    <TTGlyph name="a" xMin="47" yMin="-8" xMax="591" yMax="540">
      <contour>
        <pt x="197" y="-8" on="0"/>
        <pt x="47" y="144" on="0"/>
        <pt x="47" y="392" on="0"/>
        <pt x="201" y="540" on="0"/>
        <pt x="411" y="540" on="0"/>
        <pt x="479" y="440" on="1"/>
        <pt x="479" y="532" on="1"/>
        <pt x="591" y="532" on="1"/>
        <pt x="591" y="0" on="1"/>
        <pt x="479" y="0" on="1"/>
        <pt x="479" y="87" on="1"/>
        <pt x="447" y="41" on="0"/>
        <pt x="348" y="-8" on="0"/>
        <pt x="298" y="-8" on="1"/>
      </contour>
      <contour>
        <pt x="159" y="187" on="0"/>
        <pt x="257" y="91" on="0"/>
        <pt x="389" y="91" on="0"/>
        <pt x="481" y="188" on="0"/>
        <pt x="481" y="340" on="0"/>
        <pt x="389" y="442" on="0"/>
        <pt x="255" y="442" on="0"/>
        <pt x="159" y="340" on="0"/>
      </contour>
    </TTGlyph>
    <TTGlyph name="aacute" xMin="47" yMin="-8" xMax="591" yMax="745">
      <contour>
        <pt x="352" y="600" on="1"/>
        <pt x="250" y="600" on="1"/>
        <pt x="356" y="745" on="1"/>
        <pt x="474" y="696" on="1"/>
      </contour>
      <contour>
        <pt x="197" y="-8" on="0"/>
        <pt x="47" y="144" on="0"/>
        <pt x="47" y="392" on="0"/>
        <pt x="201" y="540" on="0"/>
        <pt x="411" y="540" on="0"/>
        <pt x="479" y="440" on="1"/>
        <pt x="479" y="532" on="1"/>
        <pt x="591" y="532" on="1"/>
        <pt x="591" y="0" on="1"/>
        <pt x="479" y="0" on="1"/>
        <pt x="479" y="87" on="1"/>
        <pt x="447" y="41" on="0"/>
        <pt x="348" y="-8" on="0"/>
        <pt x="298" y="-8" on="1"/>
      </contour>
      <contour>
        <pt x="159" y="187" on="0"/>
        <pt x="257" y="91" on="0"/>
        <pt x="389" y="91" on="0"/>
        <pt x="481" y="188" on="0"/>
        <pt x="481" y="340" on="0"/>
        <pt x="389" y="442" on="0"/>
        <pt x="255" y="442" on="0"/>
        <pt x="159" y="340" on="0"/>
      </contour>
    </TTGlyph>
    <TTGlyph name="acircumflex" xMin="47" yMin="-8" xMax="591" yMax="734">
      <contour>
        <pt x="266" y="734" on="1"/>
        <pt x="370" y="734" on="1"/>
        <pt x="492" y="600" on="1"/>
        <pt x="395" y="600" on="1"/>
        <pt x="318" y="656" on="1"/>
        <pt x="241" y="600" on="1"/>
        <pt x="144" y="600" on="1"/>
      </contour>
      <contour>
        <pt x="197" y="-8" on="0"/>
        <pt x="47" y="144" on="0"/>
        <pt x="47" y="392" on="0"/>
        <pt x="201" y="540" on="0"/>
        <pt x="411" y="540" on="0"/>
        <pt x="479" y="440" on="1"/>
        <pt x="479" y="532" on="1"/>
        <pt x="591" y="532" on="1"/>
        <pt x="591" y="0" on="1"/>
        <pt x="479" y="0" on="1"/>
        <pt x="479" y="87" on="1"/>
        <pt x="447" y="41" on="0"/>
        <pt x="348" y="-8" on="0"/>
        <pt x="298" y="-8" on="1"/>
      </contour>
      <contour>
        <pt x="159" y="187" on="0"/>
        <pt x="257" y="91" on="0"/>
        <pt x="389" y="91" on="0"/>
        <pt x="481" y="188" on="0"/>
        <pt x="481" y="340" on="0"/>
        <pt x="389" y="442" on="0"/>
        <pt x="255" y="442" on="0"/>
        <pt x="159" y="340" on="0"/>
      </contour>
    </TTGlyph>
    <TTGlyph name="acute" xMin="338" yMin="628" xMax="562" yMax="773">
      <contour>
        <pt x="440" y="628" on="1"/>
        <pt x="338" y="628" on="1"/>
        <pt x="444" y="773" on="1"/>
        <pt x="562" y="724" on="1"/>
      </contour>
    </TTGlyph>
    <TTGlyph name="adieresis" xMin="47" yMin="-8" xMax="591" yMax="723">
      <contour>
        <pt x="197" y="-8" on="0"/>
        <pt x="47" y="144" on="0"/>
        <pt x="47" y="392" on="0"/>
        <pt x="201" y="540" on="0"/>
        <pt x="411" y="540" on="0"/>
        <pt x="479" y="440" on="1"/>
        <pt x="479" y="532" on="1"/>
        <pt x="591" y="532" on="1"/>
        <pt x="591" y="0" on="1"/>
        <pt x="479" y="0" on="1"/>
        <pt x="479" y="87" on="1"/>
        <pt x="447" y="41" on="0"/>
        <pt x="348" y="-8" on="0"/>
        <pt x="298" y="-8" on="1"/>
      </contour>
      <contour>
        <pt x="159" y="187" on="0"/>
        <pt x="257" y="91" on="0"/>
        <pt x="389" y="91" on="0"/>
        <pt x="481" y="188" on="0"/>
        <pt x="481" y="340" on="0"/>
        <pt x="389" y="442" on="0"/>
        <pt x="255" y="442" on="0"/>
        <pt x="159" y="340" on="0"/>
      </contour>
      <contour>
        <pt x="187" y="636" on="0"/>
        <pt x="187" y="688" on="0"/>
        <pt x="222" y="723" on="0"/>
        <pt x="274" y="723" on="0"/>
        <pt x="310" y="688" on="0"/>
        <pt x="310" y="636" on="0"/>
        <pt x="274" y="600" on="0"/>
        <pt x="222" y="600" on="0"/>
      </contour>
      <contour>
        <pt x="408" y="600" on="0"/>
        <pt x="372" y="636" on="0"/>
        <pt x="372" y="687" on="0"/>
        <pt x="408" y="723" on="0"/>
        <pt x="459" y="723" on="0"/>
        <pt x="495" y="688" on="0"/>
        <pt x="495" y="636" on="0"/>
        <pt x="458" y="600" on="0"/>
      </contour>
    </TTGlyph>
    <TTGlyph name="ae" xMin="41" yMin="-8" xMax="910" yMax="540">
      <contour>
        <pt x="910" y="230" on="1"/>
        <pt x="513" y="230" on="1"/>
        <pt x="514" y="166" on="0"/>
        <pt x="605" y="88" on="0"/>
        <pt x="668" y="88" on="1"/>
        <pt x="758" y="88" on="0"/>
        <pt x="810" y="151" on="1"/>
        <pt x="874" y="81" on="1"/>
        <pt x="788" y="-8" on="0"/>
        <pt x="529" y="-8" on="0"/>
        <pt x="456" y="88" on="1"/>
        <pt x="376" y="-8" on="0"/>
        <pt x="243" y="-8" on="1"/>
        <pt x="159" y="-8" on="0"/>
        <pt x="41" y="87" on="0"/>
        <pt x="41" y="243" on="0"/>
        <pt x="156" y="317" on="0"/>
        <pt x="256" y="317" on="1"/>
        <pt x="401" y="317" on="1"/>
        <pt x="401" y="341" on="1"/>
        <pt x="401" y="447" on="0"/>
        <pt x="283" y="447" on="1"/>
        <pt x="209" y="447" on="0"/>
        <pt x="129" y="393" on="1"/>
        <pt x="79" y="463" on="1"/>
        <pt x="176" y="540" on="0"/>
        <pt x="422" y="540" on="0"/>
        <pt x="476" y="466" on="1"/>
        <pt x="548" y="540" on="0"/>
        <pt x="767" y="540" on="0"/>
        <pt x="910" y="409" on="0"/>
        <pt x="910" y="294" on="1"/>
      </contour>
      <contour>
        <pt x="400" y="198" on="1"/>
        <pt x="400" y="230" on="1"/>
        <pt x="274" y="230" on="1"/>
        <pt x="181" y="230" on="0"/>
        <pt x="162" y="202" on="1"/>
        <pt x="153" y="188" on="0"/>
        <pt x="153" y="167" on="1"/>
        <pt x="153" y="128" on="0"/>
        <pt x="213" y="87" on="0"/>
        <pt x="320" y="87" on="0"/>
        <pt x="400" y="147" on="0"/>
      </contour>
      <contour>
        <pt x="794" y="379" on="0"/>
        <pt x="720" y="444" on="0"/>
        <pt x="606" y="444" on="0"/>
        <pt x="519" y="376" on="0"/>
        <pt x="514" y="317" on="1"/>
        <pt x="798" y="316" on="1"/>
      </contour>
    </TTGlyph>
    <TTGlyph name="agrave" xMin="47" yMin="-8" xMax="591" yMax="745">
      <contour>
        <pt x="197" y="-8" on="0"/>
        <pt x="47" y="144" on="0"/>
        <pt x="47" y="392" on="0"/>
        <pt x="201" y="540" on="0"/>
        <pt x="411" y="540" on="0"/>
        <pt x="479" y="440" on="1"/>
        <pt x="479" y="532" on="1"/>
        <pt x="591" y="532" on="1"/>
        <pt x="591" y="0" on="1"/>
        <pt x="479" y="0" on="1"/>
        <pt x="479" y="87" on="1"/>
        <pt x="447" y="41" on="0"/>
        <pt x="348" y="-8" on="0"/>
        <pt x="298" y="-8" on="1"/>
      </contour>
      <contour>
        <pt x="159" y="187" on="0"/>
        <pt x="257" y="91" on="0"/>
        <pt x="389" y="91" on="0"/>
        <pt x="481" y="188" on="0"/>
        <pt x="481" y="340" on="0"/>
        <pt x="389" y="442" on="0"/>
        <pt x="255" y="442" on="0"/>
        <pt x="159" y="340" on="0"/>
      </contour>
      <contour>
        <pt x="425" y="600" on="1"/>
        <pt x="323" y="600" on="1"/>
        <pt x="201" y="696" on="1"/>
        <pt x="319" y="745" on="1"/>
      </contour>
    </TTGlyph>
    <TTGlyph name="ampersand" xMin="49" yMin="-18" xMax="672" yMax="716">
      <contour>
        <pt x="285" y="-8" on="1"/>
        <pt x="187" y="-8" on="0"/>
        <pt x="49" y="101" on="0"/>
        <pt x="49" y="196" on="1"/>
        <pt x="49" y="309" on="0"/>
        <pt x="213" y="397" on="1"/>
        <pt x="172" y="444" on="0"/>
        <pt x="139" y="504" on="0"/>
        <pt x="139" y="550" on="1"/>
        <pt x="139" y="630" on="0"/>
        <pt x="257" y="716" on="0"/>
        <pt x="417" y="716" on="0"/>
        <pt x="529" y="634" on="0"/>
        <pt x="529" y="560" on="1"/>
        <pt x="529" y="461" on="0"/>
        <pt x="369" y="373" on="1"/>
        <pt x="449" y="275" on="0"/>
        <pt x="499" y="223" on="1"/>
        <pt x="530" y="269" on="0"/>
        <pt x="547" y="330" on="1"/>
        <pt x="629" y="272" on="1"/>
        <pt x="603" y="203" on="0"/>
        <pt x="570" y="151" on="1"/>
        <pt x="610" y="110" on="0"/>
        <pt x="672" y="52" on="1"/>
        <pt x="597" y="-18" on="1"/>
        <pt x="505" y="73" on="1"/>
        <pt x="417" y="-8" on="0"/>
      </contour>
      <contour>
        <pt x="160" y="146" on="0"/>
        <pt x="236" y="89" on="0"/>
        <pt x="362" y="89" on="0"/>
        <pt x="433" y="147" on="1"/>
        <pt x="332" y="253" on="0"/>
        <pt x="273" y="325" on="1"/>
        <pt x="160" y="264" on="0"/>
        <pt x="160" y="191" on="1"/>
      </contour>
      <contour>
        <pt x="303" y="627" on="0"/>
        <pt x="250" y="585" on="0"/>
        <pt x="250" y="529" on="0"/>
        <pt x="277" y="484" on="0"/>
        <pt x="310" y="444" on="1"/>
        <pt x="423" y="500" on="0"/>
        <pt x="423" y="548" on="1"/>
        <pt x="423" y="588" on="0"/>
        <pt x="370" y="627" on="0"/>
      </contour>
    </TTGlyph>
    <TTGlyph name="approxequal" xMin="89" yMin="190" xMax="603" yMax="606">
      <contour>
        <pt x="603" y="602" on="1"/>
        <pt x="603" y="512" on="0"/>
        <pt x="522" y="414" on="0"/>
        <pt x="458" y="414" on="1"/>
        <pt x="420" y="414" on="0"/>
        <pt x="363" y="438" on="0"/>
        <pt x="303" y="475" on="1"/>
        <pt x="270" y="494" on="0"/>
        <pt x="226" y="494" on="0"/>
        <pt x="200" y="460" on="0"/>
        <pt x="195" y="418" on="1"/>
        <pt x="89" y="418" on="1"/>
        <pt x="89" y="508" on="0"/>
        <pt x="170" y="606" on="0"/>
        <pt x="234" y="606" on="1"/>
        <pt x="271" y="606" on="0"/>
        <pt x="329" y="582" on="0"/>
        <pt x="420" y="526" on="0"/>
        <pt x="466" y="526" on="0"/>
        <pt x="492" y="560" on="0"/>
        <pt x="497" y="602" on="1"/>
      </contour>
      <contour>
        <pt x="603" y="378" on="1"/>
        <pt x="603" y="288" on="0"/>
        <pt x="522" y="190" on="0"/>
        <pt x="458" y="190" on="1"/>
        <pt x="420" y="190" on="0"/>
        <pt x="363" y="214" on="0"/>
        <pt x="303" y="251" on="1"/>
        <pt x="270" y="270" on="0"/>
        <pt x="226" y="270" on="0"/>
        <pt x="200" y="236" on="0"/>
        <pt x="195" y="194" on="1"/>
        <pt x="89" y="194" on="1"/>
        <pt x="89" y="284" on="0"/>
        <pt x="170" y="382" on="0"/>
        <pt x="234" y="382" on="1"/>
        <pt x="271" y="382" on="0"/>
        <pt x="329" y="358" on="0"/>
        <pt x="420" y="302" on="0"/>
        <pt x="466" y="302" on="0"/>
        <pt x="492" y="336" on="0"/>
        <pt x="497" y="378" on="1"/>
      </contour>
    </TTGlyph>
    <TTGlyph name="aring" xMin="47" yMin="-8" xMax="591" yMax="792">
      <contour>
        <pt x="197" y="-8" on="0"/>
        <pt x="47" y="144" on="0"/>
        <pt x="47" y="392" on="0"/>
        <pt x="201" y="540" on="0"/>
        <pt x="411" y="540" on="0"/>
        <pt x="479" y="440" on="1"/>
        <pt x="479" y="532" on="1"/>
        <pt x="591" y="532" on="1"/>
        <pt x="591" y="0" on="1"/>
        <pt x="479" y="0" on="1"/>
        <pt x="479" y="87" on="1"/>
        <pt x="447" y="41" on="0"/>
        <pt x="348" y="-8" on="0"/>
        <pt x="298" y="-8" on="1"/>
      </contour>
      <contour>
        <pt x="159" y="187" on="0"/>
        <pt x="257" y="91" on="0"/>
        <pt x="389" y="91" on="0"/>
        <pt x="481" y="188" on="0"/>
        <pt x="481" y="340" on="0"/>
        <pt x="389" y="442" on="0"/>
        <pt x="255" y="442" on="0"/>
        <pt x="159" y="340" on="0"/>
      </contour>
      <contour>
        <pt x="427" y="729" on="0"/>
        <pt x="427" y="645" on="0"/>
        <pt x="361" y="583" on="0"/>
        <pt x="275" y="583" on="0"/>
        <pt x="210" y="645" on="0"/>
        <pt x="210" y="729" on="0"/>
        <pt x="275" y="792" on="0"/>
        <pt x="361" y="792" on="0"/>
      </contour>
      <contour>
        <pt x="343" y="632" on="0"/>
        <pt x="373" y="663" on="0"/>
        <pt x="373" y="712" on="0"/>
        <pt x="343" y="743" on="0"/>
        <pt x="294" y="743" on="0"/>
        <pt x="263" y="712" on="0"/>
        <pt x="263" y="663" on="0"/>
        <pt x="294" y="632" on="0"/>
      </contour>
    </TTGlyph>
    <TTGlyph name="asciicircum" xMin="22" yMin="742" xMax="367" yMax="898">
      <contour>
        <pt x="273" y="742" on="1"/>
        <pt x="196" y="825" on="1"/>
        <pt x="119" y="742" on="1"/>
        <pt x="22" y="742" on="1"/>
        <pt x="144" y="898" on="1"/>
        <pt x="246" y="898" on="1"/>
        <pt x="367" y="742" on="1"/>
      </contour>
    </TTGlyph>
    <TTGlyph name="asciitilde" xMin="47" yMin="283" xMax="529" yMax="486">
      <contour>
        <pt x="258" y="326" on="1"/>
        <pt x="213" y="352" on="0"/>
        <pt x="180" y="352" on="0"/>
        <pt x="173" y="283" on="1"/>
        <pt x="47" y="320" on="1"/>
        <pt x="54" y="400" on="0"/>
        <pt x="134" y="481" on="0"/>
        <pt x="197" y="481" on="1"/>
        <pt x="234" y="481" on="0"/>
        <pt x="294" y="455" on="1"/>
        <pt x="315" y="444" on="1"/>
        <pt x="369" y="417" on="0"/>
        <pt x="379" y="417" on="1"/>
        <pt x="395" y="417" on="0"/>
        <pt x="402" y="486" on="1"/>
        <pt x="529" y="450" on="1"/>
        <pt x="522" y="370" on="0"/>
        <pt x="442" y="287" on="0"/>
        <pt x="378" y="287" on="1"/>
        <pt x="336" y="287" on="0"/>
        <pt x="281" y="315" on="1"/>
        <pt x="282" y="314" on="1"/>
      </contour>
    </TTGlyph>
    <TTGlyph name="asterisk" xMin="61" yMin="380" xMax="371" yMax="699">
      <contour>
        <pt x="337" y="430" on="1"/>
        <pt x="242" y="494" on="1"/>
        <pt x="250" y="380" on="1"/>
        <pt x="182" y="380" on="1"/>
        <pt x="190" y="495" on="1"/>
        <pt x="95" y="431" on="1"/>
        <pt x="61" y="489" on="1"/>
        <pt x="163" y="540" on="1"/>
        <pt x="61" y="590" on="1"/>
        <pt x="95" y="649" on="1"/>
        <pt x="189" y="586" on="1"/>
        <pt x="182" y="699" on="1"/>
        <pt x="250" y="699" on="1"/>
        <pt x="243" y="586" on="1"/>
        <pt x="337" y="648" on="1"/>
        <pt x="371" y="590" on="1"/>
        <pt x="268" y="540" on="1"/>
        <pt x="371" y="489" on="1"/>
      </contour>
    </TTGlyph>
    <TTGlyph name="at" xMin="51" yMin="-126" xMax="857" yMax="673">
      <contour>
        <pt x="446" y="-126" on="1"/>
        <pt x="278" y="-126" on="0"/>
        <pt x="51" y="98" on="0"/>
        <pt x="51" y="434" on="0"/>
        <pt x="289" y="673" on="0"/>
        <pt x="626" y="673" on="0"/>
        <pt x="857" y="434" on="0"/>
        <pt x="857" y="262" on="1"/>
        <pt x="857" y="154" on="0"/>
        <pt x="775" y="21" on="0"/>
        <pt x="707" y="21" on="1"/>
        <pt x="658" y="21" on="0"/>
        <pt x="600" y="88" on="0"/>
        <pt x="598" y="150" on="1"/>
        <pt x="542" y="21" on="0"/>
        <pt x="419" y="21" on="1"/>
        <pt x="333" y="21" on="0"/>
        <pt x="202" y="159" on="0"/>
        <pt x="202" y="371" on="0"/>
        <pt x="326" y="515" on="0"/>
        <pt x="428" y="515" on="1"/>
        <pt x="474" y="515" on="0"/>
        <pt x="556" y="467" on="0"/>
        <pt x="574" y="434" on="1"/>
        <pt x="574" y="501" on="1"/>
        <pt x="670" y="501" on="1"/>
        <pt x="670" y="152" on="1"/>
        <pt x="670" y="82" on="0"/>
        <pt x="725" y="82" on="1"/>
        <pt x="756" y="82" on="0"/>
        <pt x="807" y="173" on="0"/>
        <pt x="807" y="247" on="1"/>
        <pt x="807" y="407" on="0"/>
        <pt x="614" y="629" on="0"/>
        <pt x="309" y="629" on="0"/>
        <pt x="95" y="415" on="0"/>
        <pt x="95" y="117" on="0"/>
        <pt x="297" y="-82" on="0"/>
        <pt x="446" y="-82" on="1"/>
        <pt x="566" y="-82" on="0"/>
        <pt x="630" y="-22" on="1"/>
        <pt x="652" y="-59" on="1"/>
        <pt x="617" y="-89" on="0"/>
        <pt x="501" y="-126" on="0"/>
      </contour>
      <contour>
        <pt x="575" y="334" on="0"/>
        <pt x="499" y="418" on="0"/>
        <pt x="377" y="418" on="0"/>
        <pt x="303" y="332" on="0"/>
        <pt x="303" y="207" on="0"/>
        <pt x="376" y="114" on="0"/>
        <pt x="502" y="114" on="0"/>
        <pt x="575" y="205" on="0"/>
      </contour>
    </TTGlyph>
    <TTGlyph name="atilde" xMin="47" yMin="-8" xMax="591" yMax="730">
      <contour>
        <pt x="197" y="-8" on="0"/>
        <pt x="47" y="144" on="0"/>
        <pt x="47" y="392" on="0"/>
        <pt x="201" y="540" on="0"/>
        <pt x="411" y="540" on="0"/>
        <pt x="479" y="440" on="1"/>
        <pt x="479" y="532" on="1"/>
        <pt x="591" y="532" on="1"/>
        <pt x="591" y="0" on="1"/>
        <pt x="479" y="0" on="1"/>
        <pt x="479" y="87" on="1"/>
        <pt x="447" y="41" on="0"/>
        <pt x="348" y="-8" on="0"/>
        <pt x="298" y="-8" on="1"/>
      </contour>
      <contour>
        <pt x="159" y="187" on="0"/>
        <pt x="257" y="91" on="0"/>
        <pt x="389" y="91" on="0"/>
        <pt x="481" y="188" on="0"/>
        <pt x="481" y="340" on="0"/>
        <pt x="389" y="442" on="0"/>
        <pt x="255" y="442" on="0"/>
        <pt x="159" y="340" on="0"/>
      </contour>
      <contour>
        <pt x="386" y="597" on="1"/>
        <pt x="360" y="597" on="0"/>
        <pt x="267" y="644" on="0"/>
        <pt x="254" y="644" on="1"/>
        <pt x="221" y="644" on="0"/>
        <pt x="220" y="600" on="1"/>
        <pt x="146" y="600" on="1"/>
        <pt x="146" y="658" on="0"/>
        <pt x="193" y="730" on="0"/>
        <pt x="235" y="730" on="1"/>
        <pt x="262" y="730" on="0"/>
        <pt x="358" y="683" on="0"/>
        <pt x="373" y="683" on="1"/>
        <pt x="403" y="683" on="0"/>
        <pt x="403" y="727" on="1"/>
        <pt x="478" y="727" on="1"/>
        <pt x="475" y="597" on="0"/>
      </contour>
    </TTGlyph>
    <TTGlyph name="b" xMin="81" yMin="-8" xMax="625" yMax="742">
      <contour>
        <pt x="473" y="540" on="0"/>
        <pt x="625" y="392" on="0"/>
        <pt x="625" y="146" on="0"/>
        <pt x="474" y="-8" on="0"/>
        <pt x="273" y="-8" on="0"/>
        <pt x="193" y="80" on="1"/>
        <pt x="193" y="0" on="1"/>
        <pt x="81" y="0" on="1"/>
        <pt x="81" y="742" on="1"/>
        <pt x="193" y="742" on="1"/>
        <pt x="193" y="439" on="1"/>
        <pt x="259" y="540" on="0"/>
      </contour>
      <contour>
        <pt x="191" y="189" on="0"/>
        <pt x="283" y="92" on="0"/>
        <pt x="415" y="92" on="0"/>
        <pt x="513" y="188" on="0"/>
        <pt x="513" y="341" on="0"/>
        <pt x="417" y="442" on="0"/>
        <pt x="283" y="442" on="0"/>
        <pt x="191" y="341" on="0"/>
      </contour>
    </TTGlyph>
    <TTGlyph name="backslash" xMin="28" yMin="0" xMax="492" yMax="757">
      <contour>
        <pt x="28" y="757" on="1"/>
        <pt x="128" y="757" on="1"/>
        <pt x="492" y="0" on="1"/>
        <pt x="392" y="0" on="1"/>
      </contour>
    </TTGlyph>
    <TTGlyph name="bar" xMin="87" yMin="-153" xMax="170" yMax="782">
      <contour>
        <pt x="87" y="-153" on="1"/>
        <pt x="87" y="782" on="1"/>
        <pt x="170" y="782" on="1"/>
        <pt x="170" y="-153" on="1"/>
      </contour>
    </TTGlyph>
    <TTGlyph name="braceleft" xMin="40" yMin="-146" xMax="284" yMax="757">
      <contour>
        <pt x="276" y="665" on="1"/>
        <pt x="214" y="665" on="0"/>
        <pt x="214" y="608" on="1"/>
        <pt x="214" y="391" on="1"/>
        <pt x="214" y="321" on="0"/>
        <pt x="148" y="309" on="1"/>
        <pt x="214" y="298" on="0"/>
        <pt x="214" y="228" on="1"/>
        <pt x="214" y="-7" on="1"/>
        <pt x="214" y="-33" on="0"/>
        <pt x="243" y="-53" on="0"/>
        <pt x="284" y="-53" on="1"/>
        <pt x="284" y="-146" on="1"/>
        <pt x="250" y="-146" on="1"/>
        <pt x="114" y="-146" on="0"/>
        <pt x="114" y="-14" on="1"/>
        <pt x="114" y="202" on="1"/>
        <pt x="114" y="235" on="0"/>
        <pt x="90" y="262" on="0"/>
        <pt x="64" y="262" on="1"/>
        <pt x="40" y="262" on="1"/>
        <pt x="40" y="355" on="1"/>
        <pt x="64" y="355" on="1"/>
        <pt x="90" y="355" on="0"/>
        <pt x="114" y="383" on="0"/>
        <pt x="114" y="417" on="1"/>
        <pt x="114" y="625" on="1"/>
        <pt x="114" y="757" on="0"/>
        <pt x="250" y="757" on="1"/>
        <pt x="284" y="757" on="1"/>
        <pt x="284" y="664" on="1"/>
        <pt x="281" y="665" on="0"/>
      </contour>
    </TTGlyph>
    <TTGlyph name="braceright" xMin="52" yMin="-146" xMax="296" yMax="757">
      <contour>
        <pt x="86" y="-146" on="1"/>
        <pt x="52" y="-146" on="1"/>
        <pt x="52" y="-53" on="1"/>
        <pt x="93" y="-53" on="0"/>
        <pt x="122" y="-33" on="0"/>
        <pt x="122" y="-7" on="1"/>
        <pt x="122" y="228" on="1"/>
        <pt x="122" y="298" on="0"/>
        <pt x="188" y="309" on="1"/>
        <pt x="122" y="321" on="0"/>
        <pt x="122" y="391" on="1"/>
        <pt x="122" y="608" on="1"/>
        <pt x="122" y="639" on="0"/>
        <pt x="89" y="666" on="0"/>
        <pt x="73" y="666" on="1"/>
        <pt x="70" y="666" on="1"/>
        <pt x="52" y="664" on="1"/>
        <pt x="52" y="757" on="1"/>
        <pt x="86" y="757" on="1"/>
        <pt x="222" y="757" on="0"/>
        <pt x="222" y="625" on="1"/>
        <pt x="222" y="417" on="1"/>
        <pt x="222" y="383" on="0"/>
        <pt x="246" y="355" on="0"/>
        <pt x="272" y="355" on="1"/>
        <pt x="296" y="355" on="1"/>
        <pt x="296" y="262" on="1"/>
        <pt x="272" y="262" on="1"/>
        <pt x="246" y="262" on="0"/>
        <pt x="222" y="235" on="0"/>
        <pt x="222" y="202" on="1"/>
        <pt x="222" y="-14" on="1"/>
        <pt x="222" y="-146" on="0"/>
      </contour>
    </TTGlyph>
    <TTGlyph name="bracketleft" xMin="88" yMin="-140" xMax="314" yMax="757">
      <contour>
        <pt x="314" y="757" on="1"/>
        <pt x="314" y="673" on="1"/>
        <pt x="176" y="673" on="1"/>
        <pt x="176" y="-56" on="1"/>
        <pt x="314" y="-56" on="1"/>
        <pt x="314" y="-140" on="1"/>
        <pt x="88" y="-140" on="1"/>
        <pt x="88" y="757" on="1"/>
      </contour>
    </TTGlyph>
    <TTGlyph name="bracketright" xMin="41" yMin="-140" xMax="267" yMax="757">
      <contour>
        <pt x="41" y="673" on="1"/>
        <pt x="41" y="757" on="1"/>
        <pt x="267" y="757" on="1"/>
        <pt x="267" y="-140" on="1"/>
        <pt x="41" y="-140" on="1"/>
        <pt x="41" y="-56" on="1"/>
        <pt x="179" y="-56" on="1"/>
        <pt x="179" y="673" on="1"/>
      </contour>
    </TTGlyph>
    <TTGlyph name="breve" xMin="100" yMin="578" xMax="442" yMax="726">
      <contour>
        <pt x="344" y="578" on="0"/>
        <pt x="198" y="578" on="0"/>
        <pt x="105" y="656" on="0"/>
        <pt x="100" y="726" on="1"/>
        <pt x="183" y="726" on="1"/>
        <pt x="203" y="663" on="0"/>
        <pt x="339" y="663" on="0"/>
        <pt x="359" y="726" on="1"/>
        <pt x="442" y="726" on="1"/>
        <pt x="437" y="656" on="0"/>
      </contour>
    </TTGlyph>
    <TTGlyph name="brokenbar" xMin="91" yMin="-24" xMax="185" yMax="757">
      <contour>
        <pt x="91" y="430" on="1"/>
        <pt x="91" y="757" on="1"/>
        <pt x="185" y="757" on="1"/>
        <pt x="185" y="430" on="1"/>
      </contour>
      <contour>
        <pt x="91" y="-24" on="1"/>
        <pt x="91" y="303" on="1"/>
        <pt x="185" y="303" on="1"/>
        <pt x="185" y="-24" on="1"/>
      </contour>
    </TTGlyph>
    <TTGlyph name="bullet" xMin="85" yMin="187" xMax="343" yMax="445">
      <contour>
        <pt x="85" y="263" on="0"/>
        <pt x="85" y="369" on="0"/>
        <pt x="161" y="445" on="0"/>
        <pt x="267" y="445" on="0"/>
        <pt x="343" y="369" on="0"/>
        <pt x="343" y="263" on="0"/>
        <pt x="267" y="187" on="0"/>
        <pt x="161" y="187" on="0"/>
      </contour>
    </TTGlyph>
    <TTGlyph name="c" xMin="46" yMin="-8" xMax="541" yMax="540">
      <contour>
        <pt x="317" y="-8" on="1"/>
        <pt x="206" y="-8" on="0"/>
        <pt x="46" y="143" on="0"/>
        <pt x="46" y="387" on="0"/>
        <pt x="213" y="540" on="0"/>
        <pt x="453" y="540" on="0"/>
        <pt x="536" y="457" on="1"/>
        <pt x="470" y="376" on="1"/>
        <pt x="401" y="436" on="0"/>
        <pt x="261" y="436" on="0"/>
        <pt x="158" y="343" on="0"/>
        <pt x="158" y="196" on="0"/>
        <pt x="260" y="94" on="0"/>
        <pt x="409" y="94" on="0"/>
        <pt x="475" y="162" on="1"/>
        <pt x="541" y="90" on="1"/>
        <pt x="444" y="-8" on="0"/>
      </contour>
    </TTGlyph>
    <TTGlyph name="caron" xMin="100" yMin="760" xMax="448" yMax="894">
      <contour>
        <pt x="326" y="760" on="1"/>
        <pt x="222" y="760" on="1"/>
        <pt x="100" y="894" on="1"/>
        <pt x="197" y="894" on="1"/>
        <pt x="274" y="838" on="1"/>
        <pt x="351" y="894" on="1"/>
        <pt x="448" y="894" on="1"/>
      </contour>
    </TTGlyph>
    <TTGlyph name="ccedilla" xMin="47" yMin="-212" xMax="542" yMax="540">
      <contour>
        <pt x="409" y="-117" on="1"/>
        <pt x="409" y="-155" on="0"/>
        <pt x="347" y="-212" on="0"/>
        <pt x="252" y="-212" on="0"/>
        <pt x="216" y="-190" on="1"/>
        <pt x="242" y="-133" on="1"/>
        <pt x="261" y="-143" on="0"/>
        <pt x="300" y="-143" on="0"/>
        <pt x="322" y="-120" on="0"/>
        <pt x="322" y="-88" on="0"/>
        <pt x="299" y="-63" on="0"/>
        <pt x="264" y="-63" on="0"/>
        <pt x="252" y="-68" on="1"/>
        <pt x="285" y="-6" on="1"/>
        <pt x="184" y="6" on="0"/>
        <pt x="47" y="153" on="0"/>
        <pt x="47" y="387" on="0"/>
        <pt x="214" y="540" on="0"/>
        <pt x="454" y="540" on="0"/>
        <pt x="537" y="457" on="1"/>
        <pt x="471" y="376" on="1"/>
        <pt x="402" y="436" on="0"/>
        <pt x="262" y="436" on="0"/>
        <pt x="159" y="343" on="0"/>
        <pt x="159" y="196" on="0"/>
        <pt x="260" y="94" on="0"/>
        <pt x="410" y="94" on="0"/>
        <pt x="476" y="162" on="1"/>
        <pt x="542" y="90" on="1"/>
        <pt x="460" y="8" on="0"/>
        <pt x="356" y="-5" on="1"/>
        <pt x="339" y="-38" on="1"/>
        <pt x="409" y="-47" on="0"/>
      </contour>
    </TTGlyph>
    <TTGlyph name="cedilla" xMin="42" yMin="-212" xMax="235" yMax="0">
      <contour>
        <pt x="235" y="-117" on="1"/>
        <pt x="235" y="-155" on="0"/>
        <pt x="173" y="-212" on="0"/>
        <pt x="78" y="-212" on="0"/>
        <pt x="42" y="-190" on="1"/>
        <pt x="68" y="-133" on="1"/>
        <pt x="87" y="-143" on="0"/>
        <pt x="126" y="-143" on="0"/>
        <pt x="148" y="-120" on="0"/>
        <pt x="148" y="-88" on="0"/>
        <pt x="125" y="-63" on="0"/>
        <pt x="90" y="-63" on="0"/>
        <pt x="78" y="-68" on="1"/>
        <pt x="114" y="0" on="1"/>
        <pt x="185" y="0" on="1"/>
        <pt x="165" y="-38" on="1"/>
        <pt x="235" y="-47" on="0"/>
      </contour>
    </TTGlyph>
    <TTGlyph name="cent" xMin="49" yMin="-122" xMax="544" yMax="656">
      <contour>
        <pt x="289" y="-122" on="1"/>
        <pt x="289" y="-6" on="1"/>
        <pt x="188" y="5" on="0"/>
        <pt x="49" y="152" on="0"/>
        <pt x="49" y="376" on="0"/>
        <pt x="187" y="523" on="0"/>
        <pt x="289" y="537" on="1"/>
        <pt x="289" y="656" on="1"/>
        <pt x="353" y="656" on="1"/>
        <pt x="353" y="539" on="1"/>
        <pt x="466" y="530" on="0"/>
        <pt x="539" y="457" on="1"/>
        <pt x="473" y="376" on="1"/>
        <pt x="412" y="428" on="0"/>
        <pt x="353" y="434" on="1"/>
        <pt x="353" y="95" on="1"/>
        <pt x="419" y="102" on="0"/>
        <pt x="478" y="162" on="1"/>
        <pt x="544" y="90" on="1"/>
        <pt x="461" y="5" on="0"/>
        <pt x="353" y="-6" on="1"/>
        <pt x="353" y="-122" on="1"/>
      </contour>
      <contour>
        <pt x="234" y="417" on="0"/>
        <pt x="161" y="330" on="0"/>
        <pt x="161" y="207" on="0"/>
        <pt x="232" y="115" on="0"/>
        <pt x="289" y="100" on="1"/>
        <pt x="289" y="430" on="1"/>
      </contour>
    </TTGlyph>
    <TTGlyph name="circumflex" xMin="166" yMin="600" xMax="514" yMax="734">
      <contour>
        <pt x="288" y="734" on="1"/>
        <pt x="392" y="734" on="1"/>
        <pt x="514" y="600" on="1"/>
        <pt x="417" y="600" on="1"/>
        <pt x="340" y="656" on="1"/>
        <pt x="263" y="600" on="1"/>
        <pt x="166" y="600" on="1"/>
      </contour>
    </TTGlyph>
    <TTGlyph name="colon" xMin="72" yMin="-8" xMax="221" yMax="386">
      <contour>
        <pt x="72" y="36" on="0"/>
        <pt x="72" y="98" on="0"/>
        <pt x="115" y="141" on="0"/>
        <pt x="177" y="141" on="0"/>
        <pt x="221" y="98" on="0"/>
        <pt x="221" y="36" on="0"/>
        <pt x="177" y="-8" on="0"/>
        <pt x="115" y="-8" on="0"/>
      </contour>
      <contour>
        <pt x="72" y="281" on="0"/>
        <pt x="72" y="343" on="0"/>
        <pt x="115" y="386" on="0"/>
        <pt x="177" y="386" on="0"/>
        <pt x="221" y="343" on="0"/>
        <pt x="221" y="281" on="0"/>
        <pt x="177" y="237" on="0"/>
        <pt x="115" y="237" on="0"/>
      </contour>
    </TTGlyph>
    <TTGlyph name="comma" xMin="66" yMin="-105" xMax="215" yMax="140">
      <contour>
        <pt x="66" y="65" on="1"/>
        <pt x="66" y="97" on="0"/>
        <pt x="110" y="140" on="0"/>
        <pt x="170" y="140" on="0"/>
        <pt x="215" y="97" on="0"/>
        <pt x="215" y="37" on="0"/>
        <pt x="188" y="-6" on="1"/>
        <pt x="128" y="-105" on="1"/>
        <pt x="70" y="-105" on="1"/>
        <pt x="107" y="-1" on="1"/>
        <pt x="66" y="18" on="0"/>
      </contour>
    </TTGlyph>
    <TTGlyph name="copyright" xMin="54" yMin="-12" xMax="778" yMax="712">
      <contour>
        <pt x="778" y="500" on="0"/>
        <pt x="778" y="202" on="0"/>
        <pt x="566" y="-12" on="0"/>
        <pt x="264" y="-12" on="0"/>
        <pt x="54" y="200" on="0"/>
        <pt x="54" y="498" on="0"/>
        <pt x="266" y="712" on="0"/>
        <pt x="566" y="712" on="0"/>
      </contour>
      <contour>
        <pt x="734" y="219" on="0"/>
        <pt x="734" y="481" on="0"/>
        <pt x="551" y="667" on="0"/>
        <pt x="285" y="667" on="0"/>
        <pt x="101" y="480" on="0"/>
        <pt x="101" y="217" on="0"/>
        <pt x="283" y="31" on="0"/>
        <pt x="549" y="31" on="0"/>
      </contour>
      <contour>
        <pt x="583" y="224" on="1"/>
        <pt x="515" y="153" on="0"/>
        <pt x="341" y="153" on="0"/>
        <pt x="225" y="262" on="0"/>
        <pt x="225" y="440" on="0"/>
        <pt x="345" y="550" on="0"/>
        <pt x="523" y="550" on="0"/>
        <pt x="580" y="490" on="1"/>
        <pt x="532" y="431" on="1"/>
        <pt x="480" y="475" on="0"/>
        <pt x="380" y="475" on="0"/>
        <pt x="305" y="408" on="0"/>
        <pt x="305" y="301" on="0"/>
        <pt x="380" y="227" on="0"/>
        <pt x="489" y="227" on="0"/>
        <pt x="535" y="276" on="1"/>
      </contour>
    </TTGlyph>
    <TTGlyph name="currency" xMin="60" yMin="-8" xMax="695" yMax="636">
      <contour>
        <pt x="150" y="152" on="1"/>
        <pt x="97" y="224" on="0"/>
        <pt x="97" y="408" on="0"/>
        <pt x="148" y="478" on="1"/>
        <pt x="60" y="566" on="1"/>
        <pt x="131" y="636" on="1"/>
        <pt x="221" y="547" on="1"/>
        <pt x="289" y="591" on="0"/>
        <pt x="463" y="591" on="0"/>
        <pt x="534" y="546" on="1"/>
        <pt x="624" y="636" on="1"/>
        <pt x="695" y="566" on="1"/>
        <pt x="606" y="477" on="1"/>
        <pt x="657" y="405" on="0"/>
        <pt x="657" y="226" on="0"/>
        <pt x="603" y="153" on="1"/>
        <pt x="695" y="62" on="1"/>
        <pt x="625" y="-8" on="1"/>
        <pt x="530" y="85" on="1"/>
        <pt x="463" y="43" on="0"/>
        <pt x="291" y="43" on="0"/>
        <pt x="224" y="85" on="1"/>
        <pt x="130" y="-8" on="1"/>
        <pt x="60" y="62" on="1"/>
      </contour>
      <contour>
        <pt x="307" y="149" on="0"/>
        <pt x="447" y="149" on="0"/>
        <pt x="539" y="243" on="0"/>
        <pt x="539" y="391" on="0"/>
        <pt x="447" y="484" on="0"/>
        <pt x="307" y="484" on="0"/>
        <pt x="215" y="391" on="0"/>
        <pt x="215" y="243" on="0"/>
      </contour>
    </TTGlyph>
    <TTGlyph name="d" xMin="47" yMin="-8" xMax="591" yMax="742">
      <contour>
        <pt x="197" y="-8" on="0"/>
        <pt x="47" y="144" on="0"/>
        <pt x="47" y="392" on="0"/>
        <pt x="201" y="540" on="0"/>
        <pt x="414" y="540" on="0"/>
        <pt x="479" y="450" on="1"/>
        <pt x="479" y="742" on="1"/>
        <pt x="591" y="742" on="1"/>
        <pt x="591" y="0" on="1"/>
        <pt x="479" y="0" on="1"/>
        <pt x="479" y="80" on="1"/>
        <pt x="417" y="-8" on="0"/>
        <pt x="298" y="-8" on="1"/>
      </contour>
      <contour>
        <pt x="159" y="187" on="0"/>
        <pt x="257" y="91" on="0"/>
        <pt x="389" y="91" on="0"/>
        <pt x="481" y="188" on="0"/>
        <pt x="481" y="340" on="0"/>
        <pt x="389" y="442" on="0"/>
        <pt x="255" y="442" on="0"/>
        <pt x="159" y="340" on="0"/>
      </contour>
    </TTGlyph>
    <TTGlyph name="dagger" xMin="36" yMin="-194" xMax="488" yMax="701">
      <contour>
        <pt x="206" y="-194" on="1"/>
        <pt x="206" y="392" on="1"/>
        <pt x="36" y="392" on="1"/>
        <pt x="36" y="494" on="1"/>
        <pt x="206" y="494" on="1"/>
        <pt x="206" y="701" on="1"/>
        <pt x="312" y="701" on="1"/>
        <pt x="312" y="494" on="1"/>
        <pt x="488" y="494" on="1"/>
        <pt x="488" y="392" on="1"/>
        <pt x="312" y="392" on="1"/>
        <pt x="312" y="-194" on="1"/>
      </contour>
    </TTGlyph>
    <TTGlyph name="daggerdbl" xMin="38" yMin="-194" xMax="480" yMax="701">
      <contour>
        <pt x="310" y="392" on="1"/>
        <pt x="310" y="157" on="1"/>
        <pt x="417" y="157" on="1"/>
        <pt x="417" y="75" on="1"/>
        <pt x="310" y="75" on="1"/>
        <pt x="310" y="-194" on="1"/>
        <pt x="204" y="-194" on="1"/>
        <pt x="204" y="75" on="1"/>
        <pt x="94" y="75" on="1"/>
        <pt x="94" y="157" on="1"/>
        <pt x="204" y="157" on="1"/>
        <pt x="204" y="392" on="1"/>
        <pt x="38" y="392" on="1"/>
        <pt x="38" y="494" on="1"/>
        <pt x="204" y="494" on="1"/>
        <pt x="204" y="701" on="1"/>
        <pt x="310" y="701" on="1"/>
        <pt x="310" y="494" on="1"/>
        <pt x="480" y="494" on="1"/>
        <pt x="480" y="392" on="1"/>
      </contour>
    </TTGlyph>
    <TTGlyph name="degree" xMin="54" yMin="408" xMax="362" yMax="715">
      <contour>
        <pt x="144" y="715" on="0"/>
        <pt x="272" y="715" on="0"/>
        <pt x="362" y="625" on="0"/>
        <pt x="362" y="497" on="0"/>
        <pt x="272" y="408" on="0"/>
        <pt x="144" y="408" on="0"/>
        <pt x="54" y="497" on="0"/>
        <pt x="54" y="625" on="0"/>
      </contour>
      <contour>
        <pt x="106" y="519" on="0"/>
        <pt x="165" y="459" on="0"/>
        <pt x="250" y="459" on="0"/>
        <pt x="309" y="519" on="0"/>
        <pt x="309" y="603" on="0"/>
        <pt x="250" y="662" on="0"/>
        <pt x="165" y="662" on="0"/>
        <pt x="106" y="603" on="0"/>
      </contour>
    </TTGlyph>
    <TTGlyph name="dieresis" xMin="166" yMin="601" xMax="474" yMax="724">
      <contour>
        <pt x="201" y="601" on="0"/>
        <pt x="166" y="637" on="0"/>
        <pt x="166" y="688" on="0"/>
        <pt x="202" y="724" on="0"/>
        <pt x="253" y="724" on="0"/>
        <pt x="289" y="689" on="0"/>
        <pt x="289" y="638" on="0"/>
        <pt x="252" y="601" on="0"/>
      </contour>
      <contour>
        <pt x="387" y="601" on="0"/>
        <pt x="351" y="637" on="0"/>
        <pt x="351" y="688" on="0"/>
        <pt x="387" y="724" on="0"/>
        <pt x="438" y="724" on="0"/>
        <pt x="474" y="689" on="0"/>
        <pt x="474" y="638" on="0"/>
        <pt x="438" y="601" on="0"/>
      </contour>
    </TTGlyph>
    <TTGlyph name="divide" xMin="48" yMin="136" xMax="520" yMax="640">
      <contour>
        <pt x="210" y="180" on="0"/>
        <pt x="210" y="242" on="0"/>
        <pt x="253" y="285" on="0"/>
        <pt x="315" y="285" on="0"/>
        <pt x="359" y="242" on="0"/>
        <pt x="359" y="180" on="0"/>
        <pt x="315" y="136" on="0"/>
        <pt x="253" y="136" on="0"/>
      </contour>
      <contour>
        <pt x="210" y="535" on="0"/>
        <pt x="210" y="597" on="0"/>
        <pt x="253" y="640" on="0"/>
        <pt x="315" y="640" on="0"/>
        <pt x="359" y="597" on="0"/>
        <pt x="359" y="535" on="0"/>
        <pt x="315" y="491" on="0"/>
        <pt x="253" y="491" on="0"/>
      </contour>
      <contour>
        <pt x="48" y="434" on="1"/>
        <pt x="520" y="434" on="1"/>
        <pt x="520" y="340" on="1"/>
        <pt x="48" y="340" on="1"/>
      </contour>
    </TTGlyph>
    <TTGlyph name="dollar" xMin="37" yMin="-72" xMax="573" yMax="757">
      <contour>
        <pt x="283" y="-72" on="1"/>
        <pt x="283" y="1" on="1"/>
        <pt x="146" y="15" on="0"/>
        <pt x="37" y="110" on="1"/>
        <pt x="110" y="197" on="1"/>
        <pt x="194" y="124" on="0"/>
        <pt x="283" y="110" on="1"/>
        <pt x="283" y="304" on="1"/>
        <pt x="170" y="331" on="0"/>
        <pt x="65" y="419" on="0"/>
        <pt x="65" y="592" on="0"/>
        <pt x="186" y="702" on="0"/>
        <pt x="283" y="707" on="1"/>
        <pt x="283" y="757" on="1"/>
        <pt x="347" y="757" on="1"/>
        <pt x="347" y="706" on="1"/>
        <pt x="457" y="698" on="0"/>
        <pt x="555" y="631" on="1"/>
        <pt x="490" y="539" on="1"/>
        <pt x="424" y="586" on="0"/>
        <pt x="347" y="597" on="1"/>
        <pt x="347" y="409" on="1"/>
        <pt x="350" y="409" on="1"/>
        <pt x="465" y="382" on="0"/>
        <pt x="573" y="290" on="0"/>
        <pt x="573" y="115" on="0"/>
        <pt x="449" y="5" on="0"/>
        <pt x="347" y="0" on="1"/>
        <pt x="347" y="-72" on="1"/>
      </contour>
      <contour>
        <pt x="395" y="112" on="0"/>
        <pt x="451" y="158" on="0"/>
        <pt x="451" y="228" on="0"/>
        <pt x="407" y="269" on="0"/>
        <pt x="347" y="287" on="1"/>
        <pt x="347" y="107" on="1"/>
      </contour>
      <contour>
        <pt x="238" y="596" on="0"/>
        <pt x="187" y="551" on="0"/>
        <pt x="187" y="484" on="0"/>
        <pt x="227" y="445" on="0"/>
        <pt x="283" y="427" on="1"/>
        <pt x="283" y="600" on="1"/>
      </contour>
    </TTGlyph>
    <TTGlyph name="dotaccent" xMin="112" yMin="611" xMax="261" yMax="760">
      <contour>
        <pt x="112" y="655" on="0"/>
        <pt x="112" y="717" on="0"/>
        <pt x="155" y="760" on="0"/>
        <pt x="217" y="760" on="0"/>
        <pt x="261" y="717" on="0"/>
        <pt x="261" y="655" on="0"/>
        <pt x="217" y="611" on="0"/>
        <pt x="155" y="611" on="0"/>
      </contour>
    </TTGlyph>
    <TTGlyph name="dotlessi" xMin="81" yMin="0" xMax="193" yMax="532">
      <contour>
        <pt x="81" y="532" on="1"/>
        <pt x="193" y="532" on="1"/>
        <pt x="193" y="0" on="1"/>
        <pt x="81" y="0" on="1"/>
      </contour>
    </TTGlyph>
    <TTGlyph name="e" xMin="46" yMin="-8" xMax="578" yMax="540">
      <contour>
        <pt x="323" y="540" on="1"/>
        <pt x="432" y="540" on="0"/>
        <pt x="576" y="419" on="0"/>
        <pt x="577" y="322" on="1"/>
        <pt x="578" y="320" on="1"/>
        <pt x="190" y="157" on="1"/>
        <pt x="242" y="93" on="0"/>
        <pt x="421" y="93" on="0"/>
        <pt x="479" y="163" on="1"/>
        <pt x="545" y="90" on="1"/>
        <pt x="450" y="-8" on="0"/>
        <pt x="321" y="-8" on="1"/>
        <pt x="208" y="-8" on="0"/>
        <pt x="46" y="142" on="0"/>
        <pt x="46" y="265" on="1"/>
        <pt x="46" y="350" on="0"/>
        <pt x="130" y="479" on="0"/>
        <pt x="254" y="540" on="0"/>
      </contour>
      <contour>
        <pt x="154" y="263" on="1"/>
        <pt x="154" y="250" on="0"/>
        <pt x="155" y="244" on="1"/>
        <pt x="450" y="371" on="1"/>
        <pt x="416" y="437" on="0"/>
        <pt x="329" y="437" on="1"/>
        <pt x="263" y="437" on="0"/>
        <pt x="154" y="345" on="0"/>
      </contour>
    </TTGlyph>
    <TTGlyph name="eacute" xMin="46" yMin="-8" xMax="578" yMax="745">
      <contour>
        <pt x="323" y="540" on="1"/>
        <pt x="432" y="540" on="0"/>
        <pt x="576" y="419" on="0"/>
        <pt x="577" y="322" on="1"/>
        <pt x="578" y="320" on="1"/>
        <pt x="190" y="157" on="1"/>
        <pt x="242" y="93" on="0"/>
        <pt x="421" y="93" on="0"/>
        <pt x="479" y="163" on="1"/>
        <pt x="545" y="90" on="1"/>
        <pt x="450" y="-8" on="0"/>
        <pt x="321" y="-8" on="1"/>
        <pt x="208" y="-8" on="0"/>
        <pt x="46" y="142" on="0"/>
        <pt x="46" y="265" on="1"/>
        <pt x="46" y="350" on="0"/>
        <pt x="130" y="479" on="0"/>
        <pt x="254" y="540" on="0"/>
      </contour>
      <contour>
        <pt x="154" y="263" on="1"/>
        <pt x="154" y="250" on="0"/>
        <pt x="155" y="244" on="1"/>
        <pt x="450" y="371" on="1"/>
        <pt x="416" y="437" on="0"/>
        <pt x="329" y="437" on="1"/>
        <pt x="263" y="437" on="0"/>
        <pt x="154" y="345" on="0"/>
      </contour>
      <contour>
        <pt x="343" y="600" on="1"/>
        <pt x="241" y="600" on="1"/>
        <pt x="347" y="745" on="1"/>
        <pt x="465" y="696" on="1"/>
      </contour>
    </TTGlyph>
    <TTGlyph name="ecircumflex" xMin="46" yMin="-8" xMax="578" yMax="734">
      <contour>
        <pt x="323" y="540" on="1"/>
        <pt x="432" y="540" on="0"/>
        <pt x="576" y="419" on="0"/>
        <pt x="577" y="322" on="1"/>
        <pt x="578" y="320" on="1"/>
        <pt x="190" y="157" on="1"/>
        <pt x="242" y="93" on="0"/>
        <pt x="421" y="93" on="0"/>
        <pt x="479" y="163" on="1"/>
        <pt x="545" y="90" on="1"/>
        <pt x="450" y="-8" on="0"/>
        <pt x="321" y="-8" on="1"/>
        <pt x="208" y="-8" on="0"/>
        <pt x="46" y="142" on="0"/>
        <pt x="46" y="265" on="1"/>
        <pt x="46" y="350" on="0"/>
        <pt x="130" y="479" on="0"/>
        <pt x="254" y="540" on="0"/>
      </contour>
      <contour>
        <pt x="154" y="263" on="1"/>
        <pt x="154" y="250" on="0"/>
        <pt x="155" y="244" on="1"/>
        <pt x="450" y="371" on="1"/>
        <pt x="416" y="437" on="0"/>
        <pt x="329" y="437" on="1"/>
        <pt x="263" y="437" on="0"/>
        <pt x="154" y="345" on="0"/>
      </contour>
      <contour>
        <pt x="259" y="734" on="1"/>
        <pt x="363" y="734" on="1"/>
        <pt x="485" y="600" on="1"/>
        <pt x="388" y="600" on="1"/>
        <pt x="311" y="656" on="1"/>
        <pt x="234" y="600" on="1"/>
        <pt x="137" y="600" on="1"/>
      </contour>
    </TTGlyph>
    <TTGlyph name="edieresis" xMin="46" yMin="-8" xMax="578" yMax="723">
      <contour>
        <pt x="323" y="540" on="1"/>
        <pt x="432" y="540" on="0"/>
        <pt x="576" y="419" on="0"/>
        <pt x="577" y="322" on="1"/>
        <pt x="578" y="320" on="1"/>
        <pt x="190" y="157" on="1"/>
        <pt x="242" y="93" on="0"/>
        <pt x="421" y="93" on="0"/>
        <pt x="479" y="163" on="1"/>
        <pt x="545" y="90" on="1"/>
        <pt x="450" y="-8" on="0"/>
        <pt x="321" y="-8" on="1"/>
        <pt x="208" y="-8" on="0"/>
        <pt x="46" y="142" on="0"/>
        <pt x="46" y="265" on="1"/>
        <pt x="46" y="350" on="0"/>
        <pt x="130" y="479" on="0"/>
        <pt x="254" y="540" on="0"/>
      </contour>
      <contour>
        <pt x="154" y="263" on="1"/>
        <pt x="154" y="250" on="0"/>
        <pt x="155" y="244" on="1"/>
        <pt x="450" y="371" on="1"/>
        <pt x="416" y="437" on="0"/>
        <pt x="329" y="437" on="1"/>
        <pt x="263" y="437" on="0"/>
        <pt x="154" y="345" on="0"/>
      </contour>
      <contour>
        <pt x="158" y="636" on="0"/>
        <pt x="158" y="688" on="0"/>
        <pt x="194" y="723" on="0"/>
        <pt x="245" y="723" on="0"/>
        <pt x="281" y="688" on="0"/>
        <pt x="281" y="636" on="0"/>
        <pt x="244" y="600" on="0"/>
        <pt x="193" y="600" on="0"/>
      </contour>
      <contour>
        <pt x="379" y="600" on="0"/>
        <pt x="343" y="636" on="0"/>
        <pt x="343" y="687" on="0"/>
        <pt x="379" y="723" on="0"/>
        <pt x="430" y="723" on="0"/>
        <pt x="466" y="688" on="0"/>
        <pt x="466" y="636" on="0"/>
        <pt x="430" y="600" on="0"/>
      </contour>
    </TTGlyph>
    <TTGlyph name="egrave" xMin="46" yMin="-8" xMax="578" yMax="745">
      <contour>
        <pt x="323" y="540" on="1"/>
        <pt x="432" y="540" on="0"/>
        <pt x="576" y="419" on="0"/>
        <pt x="577" y="322" on="1"/>
        <pt x="578" y="320" on="1"/>
        <pt x="190" y="157" on="1"/>
        <pt x="242" y="93" on="0"/>
        <pt x="421" y="93" on="0"/>
        <pt x="479" y="163" on="1"/>
        <pt x="545" y="90" on="1"/>
        <pt x="450" y="-8" on="0"/>
        <pt x="321" y="-8" on="1"/>
        <pt x="208" y="-8" on="0"/>
        <pt x="46" y="142" on="0"/>
        <pt x="46" y="265" on="1"/>
        <pt x="46" y="350" on="0"/>
        <pt x="130" y="479" on="0"/>
        <pt x="254" y="540" on="0"/>
      </contour>
      <contour>
        <pt x="154" y="263" on="1"/>
        <pt x="154" y="250" on="0"/>
        <pt x="155" y="244" on="1"/>
        <pt x="450" y="371" on="1"/>
        <pt x="416" y="437" on="0"/>
        <pt x="329" y="437" on="1"/>
        <pt x="263" y="437" on="0"/>
        <pt x="154" y="345" on="0"/>
      </contour>
      <contour>
        <pt x="406" y="600" on="1"/>
        <pt x="304" y="600" on="1"/>
        <pt x="182" y="696" on="1"/>
        <pt x="300" y="745" on="1"/>
      </contour>
    </TTGlyph>
    <TTGlyph name="eight" xMin="57" yMin="-8" xMax="579" yMax="713">
      <contour>
        <pt x="217" y="713" on="0"/>
        <pt x="419" y="713" on="0"/>
        <pt x="553" y="607" on="0"/>
        <pt x="553" y="446" on="0"/>
        <pt x="478" y="384" on="1"/>
        <pt x="579" y="320" on="0"/>
        <pt x="579" y="204" on="1"/>
        <pt x="579" y="114" on="0"/>
        <pt x="435" y="-8" on="0"/>
        <pt x="201" y="-8" on="0"/>
        <pt x="57" y="114" on="0"/>
        <pt x="57" y="204" on="1"/>
        <pt x="57" y="320" on="0"/>
        <pt x="158" y="384" on="1"/>
        <pt x="83" y="446" on="0"/>
        <pt x="83" y="607" on="0"/>
      </contour>
      <contour>
        <pt x="266" y="94" on="0"/>
        <pt x="370" y="94" on="0"/>
        <pt x="462" y="153" on="0"/>
        <pt x="462" y="263" on="0"/>
        <pt x="374" y="323" on="0"/>
        <pt x="262" y="323" on="0"/>
        <pt x="174" y="263" on="0"/>
        <pt x="174" y="153" on="0"/>
      </contour>
      <contour>
        <pt x="267" y="411" on="0"/>
        <pt x="369" y="411" on="0"/>
        <pt x="444" y="472" on="0"/>
        <pt x="444" y="561" on="0"/>
        <pt x="369" y="621" on="0"/>
        <pt x="267" y="621" on="0"/>
        <pt x="192" y="561" on="0"/>
        <pt x="192" y="472" on="0"/>
      </contour>
    </TTGlyph>
    <TTGlyph name="ellipsis" xMin="66" yMin="-8" xMax="633" yMax="141">
      <contour>
        <pt x="66" y="36" on="0"/>
        <pt x="66" y="98" on="0"/>
        <pt x="109" y="141" on="0"/>
        <pt x="171" y="141" on="0"/>
        <pt x="215" y="98" on="0"/>
        <pt x="215" y="36" on="0"/>
        <pt x="171" y="-8" on="0"/>
        <pt x="109" y="-8" on="0"/>
      </contour>
      <contour>
        <pt x="275" y="36" on="0"/>
        <pt x="275" y="98" on="0"/>
        <pt x="318" y="141" on="0"/>
        <pt x="380" y="141" on="0"/>
        <pt x="424" y="98" on="0"/>
        <pt x="424" y="36" on="0"/>
        <pt x="380" y="-8" on="0"/>
        <pt x="318" y="-8" on="0"/>
      </contour>
      <contour>
        <pt x="484" y="36" on="0"/>
        <pt x="484" y="98" on="0"/>
        <pt x="527" y="141" on="0"/>
        <pt x="589" y="141" on="0"/>
        <pt x="633" y="98" on="0"/>
        <pt x="633" y="36" on="0"/>
        <pt x="589" y="-8" on="0"/>
        <pt x="527" y="-8" on="0"/>
      </contour>
    </TTGlyph>
    <TTGlyph name="emdash" xMin="82" yMin="227" xMax="643" yMax="293">
      <contour>
        <pt x="82" y="227" on="1"/>
        <pt x="82" y="293" on="1"/>
        <pt x="643" y="293" on="1"/>
        <pt x="643" y="227" on="1"/>
      </contour>
    </TTGlyph>
    <TTGlyph name="endash" xMin="82" yMin="226" xMax="456" yMax="293">
      <contour>
        <pt x="82" y="226" on="1"/>
        <pt x="82" y="293" on="1"/>
        <pt x="456" y="293" on="1"/>
        <pt x="456" y="226" on="1"/>
      </contour>
    </TTGlyph>
    <TTGlyph name="equal" xMin="60" yMin="246" xMax="564" yMax="528">
      <contour>
        <pt x="60" y="528" on="1"/>
        <pt x="564" y="528" on="1"/>
        <pt x="564" y="434" on="1"/>
        <pt x="60" y="434" on="1"/>
      </contour>
      <contour>
        <pt x="60" y="340" on="1"/>
        <pt x="564" y="340" on="1"/>
        <pt x="564" y="246" on="1"/>
        <pt x="60" y="246" on="1"/>
      </contour>
    </TTGlyph>
    <TTGlyph name="eth" xMin="50" yMin="-8" xMax="547" yMax="757">
      <contour>
        <pt x="399" y="437" on="1"/>
        <pt x="361" y="500" on="0"/>
        <pt x="276" y="585" on="1"/>
        <pt x="183" y="526" on="1"/>
        <pt x="126" y="580" on="1"/>
        <pt x="220" y="640" on="1"/>
        <pt x="218" y="643" on="0"/>
        <pt x="147" y="702" on="1"/>
        <pt x="242" y="757" on="1"/>
        <pt x="278" y="729" on="0"/>
        <pt x="315" y="694" on="1"/>
        <pt x="400" y="748" on="1"/>
        <pt x="459" y="694" on="1"/>
        <pt x="371" y="637" on="1"/>
        <pt x="547" y="446" on="0"/>
        <pt x="547" y="267" on="1"/>
        <pt x="547" y="144" on="0"/>
        <pt x="417" y="-8" on="0"/>
        <pt x="193" y="-8" on="0"/>
        <pt x="50" y="126" on="0"/>
        <pt x="50" y="337" on="0"/>
        <pt x="190" y="472" on="0"/>
        <pt x="289" y="472" on="1"/>
        <pt x="360" y="472" on="0"/>
        <pt x="397" y="435" on="1"/>
      </contour>
      <contour>
        <pt x="159" y="173" on="0"/>
        <pt x="236" y="90" on="0"/>
        <pt x="361" y="90" on="0"/>
        <pt x="438" y="173" on="0"/>
        <pt x="438" y="290" on="0"/>
        <pt x="361" y="374" on="0"/>
        <pt x="236" y="374" on="0"/>
        <pt x="159" y="290" on="0"/>
      </contour>
    </TTGlyph>
    <TTGlyph name="exclam" xMin="74" yMin="-8" xMax="223" yMax="716">
      <contour>
        <pt x="78" y="716" on="1"/>
        <pt x="218" y="716" on="1"/>
        <pt x="218" y="587" on="1"/>
        <pt x="188" y="226" on="1"/>
        <pt x="108" y="226" on="1"/>
        <pt x="78" y="587" on="1"/>
      </contour>
      <contour>
        <pt x="118" y="-8" on="0"/>
        <pt x="74" y="36" on="0"/>
        <pt x="74" y="97" on="0"/>
        <pt x="118" y="141" on="0"/>
        <pt x="179" y="141" on="0"/>
        <pt x="223" y="97" on="0"/>
        <pt x="223" y="36" on="0"/>
        <pt x="179" y="-8" on="0"/>
      </contour>
    </TTGlyph>
    <TTGlyph name="exclamdown" xMin="73" yMin="-8" xMax="222" yMax="713">
      <contour>
        <pt x="216" y="-8" on="1"/>
        <pt x="77" y="-8" on="1"/>
        <pt x="77" y="118" on="1"/>
        <pt x="107" y="479" on="1"/>
        <pt x="187" y="479" on="1"/>
        <pt x="216" y="118" on="1"/>
      </contour>
      <contour>
        <pt x="117" y="564" on="0"/>
        <pt x="73" y="608" on="0"/>
        <pt x="73" y="669" on="0"/>
        <pt x="117" y="713" on="0"/>
        <pt x="178" y="713" on="0"/>
        <pt x="222" y="669" on="0"/>
        <pt x="222" y="608" on="0"/>
        <pt x="178" y="564" on="0"/>
      </contour>
    </TTGlyph>
    <TTGlyph name="f" xMin="81" yMin="0" xMax="414" yMax="716">
      <contour>
        <pt x="193" y="536" on="1"/>
        <pt x="193" y="442" on="1"/>
        <pt x="333" y="442" on="1"/>
        <pt x="333" y="352" on="1"/>
        <pt x="193" y="352" on="1"/>
        <pt x="193" y="0" on="1"/>
        <pt x="81" y="0" on="1"/>
        <pt x="81" y="533" on="1"/>
        <pt x="81" y="619" on="0"/>
        <pt x="188" y="716" on="0"/>
        <pt x="355" y="716" on="0"/>
        <pt x="414" y="663" on="1"/>
        <pt x="368" y="573" on="1"/>
        <pt x="331" y="612" on="0"/>
        <pt x="276" y="612" on="1"/>
        <pt x="193" y="612" on="0"/>
      </contour>
    </TTGlyph>
    <TTGlyph name="fi" xMin="37" yMin="0" xMax="604" yMax="827">
      <contour>
        <pt x="375" y="728" on="1"/>
        <pt x="304" y="728" on="0"/>
        <pt x="236" y="643" on="0"/>
        <pt x="236" y="583" on="1"/>
        <pt x="236" y="532" on="1"/>
        <pt x="342" y="532" on="1"/>
        <pt x="342" y="439" on="1"/>
        <pt x="236" y="439" on="1"/>
        <pt x="236" y="0" on="1"/>
        <pt x="124" y="0" on="1"/>
        <pt x="124" y="439" on="1"/>
        <pt x="37" y="439" on="1"/>
        <pt x="37" y="532" on="1"/>
        <pt x="124" y="532" on="1"/>
        <pt x="124" y="576" on="1"/>
        <pt x="124" y="684" on="0"/>
        <pt x="264" y="827" on="0"/>
        <pt x="379" y="827" on="1"/>
        <pt x="457" y="827" on="0"/>
        <pt x="572" y="742" on="0"/>
        <pt x="596" y="673" on="1"/>
        <pt x="492" y="625" on="1"/>
        <pt x="466" y="728" on="0"/>
      </contour>
      <contour>
        <pt x="604" y="0" on="1"/>
        <pt x="492" y="0" on="1"/>
        <pt x="492" y="532" on="1"/>
        <pt x="604" y="532" on="1"/>
      </contour>
    </TTGlyph>
    <TTGlyph name="five" xMin="50" yMin="-108" xMax="531" yMax="600">
      <contour>
        <pt x="486" y="600" on="1"/>
        <pt x="486" y="493" on="1"/>
        <pt x="191" y="493" on="1"/>
        <pt x="191" y="321" on="1"/>
        <pt x="235" y="345" on="0"/>
        <pt x="291" y="345" on="1"/>
        <pt x="389" y="345" on="0"/>
        <pt x="531" y="227" on="0"/>
        <pt x="531" y="25" on="0"/>
        <pt x="383" y="-108" on="0"/>
        <pt x="275" y="-108" on="1"/>
        <pt x="134" y="-108" on="0"/>
        <pt x="50" y="-14" on="1"/>
        <pt x="113" y="72" on="1"/>
        <pt x="121" y="64" on="0"/>
        <pt x="148" y="42" on="0"/>
        <pt x="232" y="5" on="0"/>
        <pt x="332" y="5" on="0"/>
        <pt x="414" y="65" on="0"/>
        <pt x="414" y="180" on="0"/>
        <pt x="327" y="243" on="0"/>
        <pt x="194" y="243" on="0"/>
        <pt x="134" y="210" on="1"/>
        <pt x="84" y="264" on="1"/>
        <pt x="84" y="600" on="1"/>
      </contour>
    </TTGlyph>
    <TTGlyph name="fl" xMin="37" yMin="-105" xMax="709" yMax="827">
      <contour>
        <pt x="699" y="0" on="1"/>
        <pt x="701" y="-45" on="0"/>
        <pt x="709" y="-100" on="1"/>
        <pt x="677" y="-105" on="0"/>
        <pt x="605" y="-105" on="0"/>
        <pt x="539" y="-70" on="0"/>
        <pt x="522" y="-36" on="1"/>
        <pt x="492" y="24" on="0"/>
        <pt x="492" y="133" on="1"/>
        <pt x="492" y="560" on="1"/>
        <pt x="492" y="728" on="0"/>
        <pt x="369" y="728" on="1"/>
        <pt x="299" y="728" on="0"/>
        <pt x="236" y="644" on="0"/>
        <pt x="236" y="583" on="1"/>
        <pt x="236" y="532" on="1"/>
        <pt x="342" y="532" on="1"/>
        <pt x="342" y="439" on="1"/>
        <pt x="236" y="439" on="1"/>
        <pt x="236" y="0" on="1"/>
        <pt x="124" y="0" on="1"/>
        <pt x="124" y="439" on="1"/>
        <pt x="37" y="439" on="1"/>
        <pt x="37" y="532" on="1"/>
        <pt x="124" y="532" on="1"/>
        <pt x="124" y="576" on="1"/>
        <pt x="124" y="684" on="0"/>
        <pt x="258" y="827" on="0"/>
        <pt x="488" y="827" on="0"/>
        <pt x="604" y="687" on="0"/>
        <pt x="604" y="566" on="1"/>
        <pt x="604" y="80" on="1"/>
        <pt x="604" y="-6" on="0"/>
        <pt x="668" y="-6" on="1"/>
        <pt x="684" y="-6" on="0"/>
      </contour>
    </TTGlyph>
    <TTGlyph name="florin" xMin="28" yMin="-212" xMax="643" yMax="757">
      <contour>
        <pt x="337" y="-110" on="0"/>
        <pt x="241" y="-212" on="0"/>
        <pt x="87" y="-212" on="0"/>
        <pt x="28" y="-159" on="1"/>
        <pt x="78" y="-75" on="1"/>
        <pt x="116" y="-111" on="0"/>
        <pt x="187" y="-111" on="0"/>
        <pt x="230" y="-59" on="0"/>
        <pt x="235" y="-25" on="1"/>
        <pt x="284" y="325" on="1"/>
        <pt x="215" y="325" on="1"/>
        <pt x="227" y="418" on="1"/>
        <pt x="296" y="418" on="1"/>
        <pt x="317" y="574" on="1"/>
        <pt x="328" y="658" on="0"/>
        <pt x="443" y="757" on="0"/>
        <pt x="591" y="757" on="0"/>
        <pt x="643" y="704" on="1"/>
        <pt x="585" y="625" on="1"/>
        <pt x="557" y="660" on="0"/>
        <pt x="485" y="660" on="0"/>
        <pt x="438" y="614" on="0"/>
        <pt x="433" y="577" on="1"/>
        <pt x="411" y="418" on="1"/>
        <pt x="554" y="418" on="1"/>
        <pt x="542" y="325" on="1"/>
        <pt x="399" y="325" on="1"/>
        <pt x="348" y="-36" on="1"/>
      </contour>
    </TTGlyph>
    <TTGlyph name="four" xMin="37" yMin="-100" xMax="533" yMax="599">
      <contour>
        <pt x="337" y="183" on="1"/>
        <pt x="337" y="311" on="1"/>
        <pt x="449" y="311" on="1"/>
        <pt x="449" y="183" on="1"/>
        <pt x="533" y="183" on="1"/>
        <pt x="533" y="76" on="1"/>
        <pt x="449" y="76" on="1"/>
        <pt x="449" y="-100" on="1"/>
        <pt x="337" y="-100" on="1"/>
        <pt x="337" y="76" on="1"/>
        <pt x="37" y="76" on="1"/>
        <pt x="37" y="180" on="1"/>
        <pt x="294" y="599" on="1"/>
        <pt x="423" y="599" on="1"/>
        <pt x="170" y="183" on="1"/>
      </contour>
    </TTGlyph>
    <TTGlyph name="fraction" xMin="-2" yMin="0" xMax="639" yMax="699">
      <contour>
        <pt x="639" y="699" on="1"/>
        <pt x="127" y="0" on="1"/>
        <pt x="-2" y="0" on="1"/>
        <pt x="510" y="699" on="1"/>
      </contour>
    </TTGlyph>
    <TTGlyph name="g" xMin="48" yMin="-212" xMax="573" yMax="540">
      <contour>
        <pt x="313" y="-113" on="1"/>
        <pt x="461" y="-113" on="0"/>
        <pt x="461" y="78" on="1"/>
        <pt x="461" y="108" on="1"/>
        <pt x="439" y="73" on="0"/>
        <pt x="344" y="24" on="0"/>
        <pt x="290" y="24" on="1"/>
        <pt x="184" y="24" on="0"/>
        <pt x="48" y="172" on="0"/>
        <pt x="48" y="392" on="0"/>
        <pt x="184" y="540" on="0"/>
        <pt x="391" y="540" on="0"/>
        <pt x="461" y="468" on="1"/>
        <pt x="461" y="532" on="1"/>
        <pt x="573" y="532" on="1"/>
        <pt x="573" y="75" on="1"/>
        <pt x="573" y="-64" on="0"/>
        <pt x="428" y="-212" on="0"/>
        <pt x="313" y="-212" on="1"/>
        <pt x="225" y="-212" on="0"/>
        <pt x="92" y="-128" on="0"/>
        <pt x="62" y="-50" on="1"/>
        <pt x="160" y="-8" on="1"/>
        <pt x="200" y="-113" on="0"/>
      </contour>
      <contour>
        <pt x="158" y="221" on="0"/>
        <pt x="239" y="126" on="0"/>
        <pt x="376" y="126" on="0"/>
        <pt x="461" y="218" on="0"/>
        <pt x="461" y="355" on="0"/>
        <pt x="375" y="450" on="0"/>
        <pt x="239" y="450" on="0"/>
        <pt x="158" y="352" on="0"/>
      </contour>
    </TTGlyph>
    <TTGlyph name="germandbls" xMin="81" yMin="0" xMax="605" yMax="757">
      <contour>
        <pt x="377" y="426" on="0"/>
        <pt x="447" y="495" on="0"/>
        <pt x="447" y="586" on="0"/>
        <pt x="394" y="652" on="0"/>
        <pt x="337" y="652" on="1"/>
        <pt x="261" y="652" on="0"/>
        <pt x="199" y="558" on="0"/>
        <pt x="199" y="466" on="1"/>
        <pt x="199" y="0" on="1"/>
        <pt x="81" y="0" on="1"/>
        <pt x="81" y="456" on="1"/>
        <pt x="81" y="528" on="0"/>
        <pt x="94" y="587" on="0"/>
        <pt x="111" y="639" on="0"/>
        <pt x="135" y="676" on="0"/>
        <pt x="173" y="716" on="0"/>
        <pt x="196" y="728" on="1"/>
        <pt x="250" y="757" on="0"/>
        <pt x="394" y="757" on="0"/>
        <pt x="492" y="717" on="0"/>
        <pt x="516" y="684" on="1"/>
        <pt x="561" y="624" on="0"/>
        <pt x="561" y="554" on="1"/>
        <pt x="561" y="451" on="0"/>
        <pt x="457" y="386" on="1"/>
        <pt x="531" y="378" on="0"/>
        <pt x="605" y="274" on="0"/>
        <pt x="605" y="206" on="1"/>
        <pt x="605" y="112" on="0"/>
        <pt x="473" y="0" on="0"/>
        <pt x="350" y="0" on="1"/>
        <pt x="309" y="0" on="1"/>
        <pt x="309" y="98" on="1"/>
        <pt x="331" y="98" on="1"/>
        <pt x="406" y="98" on="0"/>
        <pt x="487" y="147" on="0"/>
        <pt x="487" y="266" on="0"/>
        <pt x="407" y="323" on="0"/>
        <pt x="340" y="323" on="1"/>
        <pt x="317" y="323" on="0"/>
        <pt x="305" y="322" on="1"/>
        <pt x="305" y="415" on="1"/>
      </contour>
    </TTGlyph>
    <TTGlyph name="grave" xMin="316" yMin="600" xMax="540" yMax="745">
      <contour>
        <pt x="540" y="600" on="1"/>
        <pt x="438" y="600" on="1"/>
        <pt x="316" y="696" on="1"/>
        <pt x="434" y="745" on="1"/>
      </contour>
    </TTGlyph>
    <TTGlyph name="greater" xMin="76" yMin="117" xMax="547" yMax="678">
      <contour>
        <pt x="547" y="460" on="1"/>
        <pt x="547" y="334" on="1"/>
        <pt x="76" y="117" on="1"/>
        <pt x="76" y="231" on="1"/>
        <pt x="428" y="394" on="1"/>
        <pt x="428" y="405" on="1"/>
        <pt x="76" y="564" on="1"/>
        <pt x="76" y="678" on="1"/>
      </contour>
    </TTGlyph>
    <TTGlyph name="greaterequal" xMin="76" yMin="-52" xMax="548" yMax="678">
      <contour>
        <pt x="548" y="460" on="1"/>
        <pt x="548" y="334" on="1"/>
        <pt x="77" y="117" on="1"/>
        <pt x="77" y="231" on="1"/>
        <pt x="429" y="394" on="1"/>
        <pt x="429" y="405" on="1"/>
        <pt x="77" y="564" on="1"/>
        <pt x="77" y="678" on="1"/>
      </contour>
      <contour>
        <pt x="76" y="46" on="1"/>
        <pt x="548" y="46" on="1"/>
        <pt x="548" y="-52" on="1"/>
        <pt x="76" y="-52" on="1"/>
      </contour>
    </TTGlyph>
    <TTGlyph name="guillemotleft" xMin="56" yMin="64" xMax="481" yMax="416">
      <contour>
        <pt x="283" y="416" on="1"/>
        <pt x="168" y="240" on="1"/>
        <pt x="283" y="64" on="1"/>
        <pt x="175" y="64" on="1"/>
        <pt x="56" y="240" on="1"/>
        <pt x="175" y="416" on="1"/>
      </contour>
      <contour>
        <pt x="481" y="416" on="1"/>
        <pt x="366" y="240" on="1"/>
        <pt x="481" y="64" on="1"/>
        <pt x="373" y="64" on="1"/>
        <pt x="254" y="240" on="1"/>
        <pt x="373" y="416" on="1"/>
      </contour>
    </TTGlyph>
    <TTGlyph name="guillemotright" xMin="66" yMin="64" xMax="491" yMax="416">
      <contour>
        <pt x="379" y="240" on="1"/>
        <pt x="264" y="416" on="1"/>
        <pt x="372" y="416" on="1"/>
        <pt x="491" y="240" on="1"/>
        <pt x="372" y="64" on="1"/>
        <pt x="264" y="64" on="1"/>
      </contour>
      <contour>
        <pt x="181" y="240" on="1"/>
        <pt x="66" y="416" on="1"/>
        <pt x="174" y="416" on="1"/>
        <pt x="293" y="240" on="1"/>
        <pt x="174" y="64" on="1"/>
        <pt x="66" y="64" on="1"/>
      </contour>
    </TTGlyph>
    <TTGlyph name="guilsinglleft" xMin="56" yMin="64" xMax="283" yMax="416">
      <contour>
        <pt x="283" y="416" on="1"/>
        <pt x="168" y="240" on="1"/>
        <pt x="283" y="64" on="1"/>
        <pt x="175" y="64" on="1"/>
        <pt x="56" y="240" on="1"/>
        <pt x="175" y="416" on="1"/>
      </contour>
    </TTGlyph>
    <TTGlyph name="guilsinglright" xMin="66" yMin="64" xMax="293" yMax="416">
      <contour>
        <pt x="181" y="240" on="1"/>
        <pt x="66" y="416" on="1"/>
        <pt x="174" y="416" on="1"/>
        <pt x="293" y="240" on="1"/>
        <pt x="174" y="64" on="1"/>
        <pt x="66" y="64" on="1"/>
      </contour>
    </TTGlyph>
    <TTGlyph name="h" xMin="81" yMin="0" xMax="571" yMax="741">
      <contour>
        <pt x="193" y="288" on="1"/>
        <pt x="193" y="0" on="1"/>
        <pt x="81" y="0" on="1"/>
        <pt x="81" y="741" on="1"/>
        <pt x="193" y="741" on="1"/>
        <pt x="193" y="435" on="1"/>
        <pt x="217" y="484" on="0"/>
        <pt x="314" y="540" on="0"/>
        <pt x="370" y="540" on="1"/>
        <pt x="460" y="540" on="0"/>
        <pt x="571" y="430" on="0"/>
        <pt x="571" y="326" on="1"/>
        <pt x="571" y="0" on="1"/>
        <pt x="459" y="0" on="1"/>
        <pt x="459" y="292" on="1"/>
        <pt x="459" y="439" on="0"/>
        <pt x="337" y="439" on="1"/>
        <pt x="279" y="439" on="0"/>
        <pt x="193" y="362" on="0"/>
      </contour>
    </TTGlyph>
    <TTGlyph name="hbar" xMin="44" yMin="0" xMax="571" yMax="741">
      <contour>
        <pt x="351" y="661" on="1"/>
        <pt x="351" y="574" on="1"/>
        <pt x="193" y="574" on="1"/>
        <pt x="193" y="435" on="1"/>
        <pt x="217" y="484" on="0"/>
        <pt x="314" y="540" on="0"/>
        <pt x="370" y="540" on="1"/>
        <pt x="460" y="540" on="0"/>
        <pt x="571" y="430" on="0"/>
        <pt x="571" y="326" on="1"/>
        <pt x="571" y="0" on="1"/>
        <pt x="459" y="0" on="1"/>
        <pt x="459" y="292" on="1"/>
        <pt x="459" y="439" on="0"/>
        <pt x="337" y="439" on="1"/>
        <pt x="279" y="439" on="0"/>
        <pt x="193" y="362" on="0"/>
        <pt x="193" y="288" on="1"/>
        <pt x="193" y="0" on="1"/>
        <pt x="81" y="0" on="1"/>
        <pt x="81" y="574" on="1"/>
        <pt x="44" y="574" on="1"/>
        <pt x="44" y="661" on="1"/>
        <pt x="81" y="661" on="1"/>
        <pt x="81" y="741" on="1"/>
        <pt x="193" y="741" on="1"/>
        <pt x="193" y="661" on="1"/>
      </contour>
    </TTGlyph>
    <TTGlyph name="hungarumlaut" xMin="52" yMin="601" xMax="470" yMax="746">
      <contour>
        <pt x="154" y="601" on="1"/>
        <pt x="52" y="601" on="1"/>
        <pt x="158" y="746" on="1"/>
        <pt x="276" y="697" on="1"/>
      </contour>
      <contour>
        <pt x="348" y="601" on="1"/>
        <pt x="246" y="601" on="1"/>
        <pt x="352" y="746" on="1"/>
        <pt x="470" y="697" on="1"/>
      </contour>
    </TTGlyph>
    <TTGlyph name="hyphen" xMin="72" yMin="246" xMax="404" yMax="351">
      <contour>
        <pt x="72" y="246" on="1"/>
        <pt x="72" y="351" on="1"/>
        <pt x="404" y="351" on="1"/>
        <pt x="404" y="246" on="1"/>
      </contour>
    </TTGlyph>
    <TTGlyph name="i" xMin="67" yMin="0" xMax="209" yMax="759">
      <contour>
        <pt x="193" y="0" on="1"/>
        <pt x="81" y="0" on="1"/>
        <pt x="81" y="532" on="1"/>
        <pt x="193" y="532" on="1"/>
      </contour>
      <contour>
        <pt x="67" y="659" on="0"/>
        <pt x="67" y="717" on="0"/>
        <pt x="109" y="759" on="0"/>
        <pt x="167" y="759" on="0"/>
        <pt x="209" y="717" on="0"/>
        <pt x="209" y="659" on="0"/>
        <pt x="167" y="617" on="0"/>
        <pt x="109" y="617" on="0"/>
      </contour>
    </TTGlyph>
    <TTGlyph name="iacute" xMin="81" yMin="0" xMax="312" yMax="740">
      <contour>
        <pt x="190" y="600" on="1"/>
        <pt x="96" y="600" on="1"/>
        <pt x="202" y="740" on="1"/>
        <pt x="312" y="691" on="1"/>
      </contour>
      <contour>
        <pt x="81" y="532" on="1"/>
        <pt x="193" y="532" on="1"/>
        <pt x="193" y="0" on="1"/>
        <pt x="81" y="0" on="1"/>
      </contour>
    </TTGlyph>
    <TTGlyph name="icircumflex" xMin="-32" yMin="0" xMax="316" yMax="734">
      <contour>
        <pt x="81" y="532" on="1"/>
        <pt x="193" y="532" on="1"/>
        <pt x="193" y="0" on="1"/>
        <pt x="81" y="0" on="1"/>
      </contour>
      <contour>
        <pt x="90" y="734" on="1"/>
        <pt x="194" y="734" on="1"/>
        <pt x="316" y="600" on="1"/>
        <pt x="219" y="600" on="1"/>
        <pt x="142" y="656" on="1"/>
        <pt x="65" y="600" on="1"/>
        <pt x="-32" y="600" on="1"/>
      </contour>
    </TTGlyph>
    <TTGlyph name="idieresis" xMin="-8" yMin="0" xMax="300" yMax="723">
      <contour>
        <pt x="-8" y="636" on="0"/>
        <pt x="-8" y="688" on="0"/>
        <pt x="28" y="723" on="0"/>
        <pt x="79" y="723" on="0"/>
        <pt x="115" y="688" on="0"/>
        <pt x="115" y="636" on="0"/>
        <pt x="78" y="600" on="0"/>
        <pt x="27" y="600" on="0"/>
      </contour>
      <contour>
        <pt x="213" y="600" on="0"/>
        <pt x="177" y="636" on="0"/>
        <pt x="177" y="687" on="0"/>
        <pt x="213" y="723" on="0"/>
        <pt x="264" y="723" on="0"/>
        <pt x="300" y="688" on="0"/>
        <pt x="300" y="636" on="0"/>
        <pt x="264" y="600" on="0"/>
      </contour>
      <contour>
        <pt x="81" y="532" on="1"/>
        <pt x="193" y="532" on="1"/>
        <pt x="193" y="0" on="1"/>
        <pt x="81" y="0" on="1"/>
      </contour>
    </TTGlyph>
    <TTGlyph name="igrave" xMin="-24" yMin="0" xMax="200" yMax="745">
      <contour>
        <pt x="200" y="600" on="1"/>
        <pt x="98" y="600" on="1"/>
        <pt x="-24" y="696" on="1"/>
        <pt x="94" y="745" on="1"/>
      </contour>
      <contour>
        <pt x="81" y="532" on="1"/>
        <pt x="193" y="532" on="1"/>
        <pt x="193" y="0" on="1"/>
        <pt x="81" y="0" on="1"/>
      </contour>
    </TTGlyph>
    <TTGlyph name="ij" xMin="67" yMin="-212" xMax="536" yMax="759">
      <contour>
        <pt x="193" y="0" on="1"/>
        <pt x="81" y="0" on="1"/>
        <pt x="81" y="532" on="1"/>
        <pt x="193" y="532" on="1"/>
      </contour>
      <contour>
        <pt x="67" y="659" on="0"/>
        <pt x="67" y="717" on="0"/>
        <pt x="109" y="759" on="0"/>
        <pt x="167" y="759" on="0"/>
        <pt x="209" y="717" on="0"/>
        <pt x="209" y="659" on="0"/>
        <pt x="167" y="617" on="0"/>
        <pt x="109" y="617" on="0"/>
      </contour>
      <contour>
        <pt x="410" y="-25" on="1"/>
        <pt x="410" y="532" on="1"/>
        <pt x="522" y="532" on="1"/>
        <pt x="522" y="-29" on="1"/>
        <pt x="522" y="-113" on="0"/>
        <pt x="421" y="-212" on="0"/>
        <pt x="278" y="-212" on="0"/>
        <pt x="219" y="-159" on="1"/>
        <pt x="271" y="-75" on="1"/>
        <pt x="305" y="-108" on="0"/>
        <pt x="374" y="-108" on="0"/>
        <pt x="410" y="-64" on="0"/>
      </contour>
      <contour>
        <pt x="394" y="659" on="0"/>
        <pt x="394" y="717" on="0"/>
        <pt x="436" y="759" on="0"/>
        <pt x="494" y="759" on="0"/>
        <pt x="536" y="717" on="0"/>
        <pt x="536" y="659" on="0"/>
        <pt x="494" y="617" on="0"/>
        <pt x="436" y="617" on="0"/>
      </contour>
    </TTGlyph>
    <TTGlyph name="infinity" xMin="71" yMin="82" xMax="797" yMax="441">
      <contour>
        <pt x="630" y="441" on="1"/>
        <pt x="706" y="441" on="0"/>
        <pt x="797" y="339" on="0"/>
        <pt x="797" y="184" on="0"/>
        <pt x="703" y="82" on="0"/>
        <pt x="626" y="82" on="1"/>
        <pt x="564" y="82" on="0"/>
        <pt x="517" y="116" on="1"/>
        <pt x="485" y="140" on="0"/>
        <pt x="434" y="193" on="1"/>
        <pt x="383" y="140" on="0"/>
        <pt x="355" y="119" on="1"/>
        <pt x="304" y="82" on="0"/>
        <pt x="165" y="82" on="0"/>
        <pt x="71" y="184" on="0"/>
        <pt x="71" y="339" on="0"/>
        <pt x="162" y="441" on="0"/>
        <pt x="238" y="441" on="1"/>
        <pt x="297" y="441" on="0"/>
        <pt x="386" y="379" on="0"/>
        <pt x="434" y="322" on="1"/>
        <pt x="482" y="379" on="0"/>
        <pt x="571" y="441" on="0"/>
      </contour>
      <contour>
        <pt x="238" y="351" on="1"/>
        <pt x="204" y="351" on="0"/>
        <pt x="162" y="301" on="0"/>
        <pt x="162" y="226" on="0"/>
        <pt x="205" y="175" on="0"/>
        <pt x="241" y="175" on="1"/>
        <pt x="301" y="175" on="0"/>
        <pt x="376" y="259" on="1"/>
        <pt x="289" y="351" on="0"/>
      </contour>
      <contour>
        <pt x="627" y="175" on="1"/>
        <pt x="663" y="175" on="0"/>
        <pt x="706" y="226" on="0"/>
        <pt x="706" y="301" on="0"/>
        <pt x="664" y="351" on="0"/>
        <pt x="630" y="351" on="1"/>
        <pt x="579" y="351" on="0"/>
        <pt x="492" y="259" on="1"/>
        <pt x="567" y="175" on="0"/>
      </contour>
    </TTGlyph>
    <TTGlyph name="integral" xMin="13" yMin="-170" xMax="372" yMax="868">
      <contour>
        <pt x="359" y="765" on="1"/>
        <pt x="339" y="775" on="0"/>
        <pt x="300" y="775" on="0"/>
        <pt x="271" y="763" on="0"/>
        <pt x="253" y="735" on="0"/>
        <pt x="242" y="708" on="0"/>
        <pt x="240" y="682" on="1"/>
        <pt x="237" y="644" on="0"/>
        <pt x="237" y="512" on="0"/>
        <pt x="252" y="187" on="0"/>
        <pt x="252" y="39" on="0"/>
        <pt x="238" y="-50" on="0"/>
        <pt x="221" y="-89" on="1"/>
        <pt x="186" y="-170" on="0"/>
        <pt x="89" y="-170" on="1"/>
        <pt x="43" y="-170" on="0"/>
        <pt x="13" y="-153" on="1"/>
        <pt x="29" y="-60" on="1"/>
        <pt x="53" y="-72" on="0"/>
        <pt x="102" y="-72" on="0"/>
        <pt x="136" y="-46" on="0"/>
        <pt x="144" y="-18" on="1"/>
        <pt x="155" y="25" on="0"/>
        <pt x="155" y="203" on="0"/>
        <pt x="139" y="519" on="0"/>
        <pt x="139" y="663" on="0"/>
        <pt x="154" y="753" on="0"/>
        <pt x="172" y="791" on="1"/>
        <pt x="210" y="868" on="0"/>
        <pt x="311" y="868" on="1"/>
        <pt x="348" y="868" on="0"/>
        <pt x="372" y="855" on="1"/>
      </contour>
    </TTGlyph>
    <TTGlyph name="itilde" xMin="-20" yMin="0" xMax="312" yMax="730">
      <contour>
        <pt x="81" y="532" on="1"/>
        <pt x="193" y="532" on="1"/>
        <pt x="193" y="0" on="1"/>
        <pt x="81" y="0" on="1"/>
      </contour>
      <contour>
        <pt x="220" y="597" on="1"/>
        <pt x="194" y="597" on="0"/>
        <pt x="101" y="644" on="0"/>
        <pt x="88" y="644" on="1"/>
        <pt x="55" y="644" on="0"/>
        <pt x="54" y="600" on="1"/>
        <pt x="-20" y="600" on="1"/>
        <pt x="-20" y="658" on="0"/>
        <pt x="27" y="730" on="0"/>
        <pt x="69" y="730" on="1"/>
        <pt x="96" y="730" on="0"/>
        <pt x="192" y="683" on="0"/>
        <pt x="207" y="683" on="1"/>
        <pt x="237" y="683" on="0"/>
        <pt x="237" y="727" on="1"/>
        <pt x="312" y="727" on="1"/>
        <pt x="309" y="597" on="0"/>
      </contour>
    </TTGlyph>
    <TTGlyph name="j" xMin="-110" yMin="-212" xMax="207" yMax="759">
      <contour>
        <pt x="81" y="-25" on="1"/>
        <pt x="81" y="532" on="1"/>
        <pt x="193" y="532" on="1"/>
        <pt x="193" y="-29" on="1"/>
        <pt x="193" y="-113" on="0"/>
        <pt x="92" y="-212" on="0"/>
        <pt x="-51" y="-212" on="0"/>
        <pt x="-110" y="-159" on="1"/>
        <pt x="-58" y="-75" on="1"/>
        <pt x="-24" y="-108" on="0"/>
        <pt x="45" y="-108" on="0"/>
        <pt x="81" y="-64" on="0"/>
      </contour>
      <contour>
        <pt x="65" y="659" on="0"/>
        <pt x="65" y="717" on="0"/>
        <pt x="107" y="759" on="0"/>
        <pt x="165" y="759" on="0"/>
        <pt x="207" y="717" on="0"/>
        <pt x="207" y="659" on="0"/>
        <pt x="165" y="617" on="0"/>
        <pt x="107" y="617" on="0"/>
      </contour>
    </TTGlyph>
    <TTGlyph name="jcircumflex" xMin="-110" yMin="-212" xMax="314" yMax="734">
      <contour>
        <pt x="81" y="-25" on="1"/>
        <pt x="81" y="532" on="1"/>
        <pt x="193" y="532" on="1"/>
        <pt x="193" y="-29" on="1"/>
        <pt x="193" y="-113" on="0"/>
        <pt x="92" y="-212" on="0"/>
        <pt x="-51" y="-212" on="0"/>
        <pt x="-110" y="-159" on="1"/>
        <pt x="-58" y="-75" on="1"/>
        <pt x="-24" y="-108" on="0"/>
        <pt x="45" y="-108" on="0"/>
        <pt x="81" y="-64" on="0"/>
      </contour>
      <contour>
        <pt x="88" y="734" on="1"/>
        <pt x="192" y="734" on="1"/>
        <pt x="314" y="600" on="1"/>
        <pt x="217" y="600" on="1"/>
        <pt x="140" y="656" on="1"/>
        <pt x="63" y="600" on="1"/>
        <pt x="-34" y="600" on="1"/>
      </contour>
    </TTGlyph>
    <TTGlyph name="k" xMin="81" yMin="0" xMax="568" yMax="742">
      <contour>
        <pt x="193" y="0" on="1"/>
        <pt x="81" y="0" on="1"/>
        <pt x="81" y="742" on="1"/>
        <pt x="193" y="742" on="1"/>
        <pt x="193" y="306" on="1"/>
        <pt x="409" y="532" on="1"/>
        <pt x="553" y="532" on="1"/>
        <pt x="351" y="321" on="1"/>
        <pt x="568" y="0" on="1"/>
        <pt x="432" y="0" on="1"/>
        <pt x="274" y="233" on="1"/>
        <pt x="193" y="151" on="1"/>
      </contour>
    </TTGlyph>
    <TTGlyph name="kcedilla" xMin="81" yMin="-212" xMax="568" yMax="742">
      <contour>
        <pt x="193" y="0" on="1"/>
        <pt x="81" y="0" on="1"/>
        <pt x="81" y="742" on="1"/>
        <pt x="193" y="742" on="1"/>
        <pt x="193" y="306" on="1"/>
        <pt x="409" y="532" on="1"/>
        <pt x="553" y="532" on="1"/>
        <pt x="351" y="321" on="1"/>
        <pt x="568" y="0" on="1"/>
        <pt x="432" y="0" on="1"/>
        <pt x="274" y="233" on="1"/>
        <pt x="193" y="151" on="1"/>
      </contour>
      <contour>
        <pt x="401" y="-117" on="1"/>
        <pt x="401" y="-155" on="0"/>
        <pt x="339" y="-212" on="0"/>
        <pt x="244" y="-212" on="0"/>
        <pt x="208" y="-190" on="1"/>
        <pt x="234" y="-133" on="1"/>
        <pt x="253" y="-143" on="0"/>
        <pt x="292" y="-143" on="0"/>
        <pt x="314" y="-120" on="0"/>
        <pt x="314" y="-88" on="0"/>
        <pt x="291" y="-63" on="0"/>
        <pt x="256" y="-63" on="0"/>
        <pt x="244" y="-68" on="1"/>
        <pt x="280" y="0" on="1"/>
        <pt x="351" y="0" on="1"/>
        <pt x="331" y="-38" on="1"/>
        <pt x="401" y="-47" on="0"/>
      </contour>
    </TTGlyph>
    <TTGlyph name="kgreenlandic" xMin="81" yMin="0" xMax="568" yMax="532">
      <contour>
        <pt x="193" y="0" on="1"/>
        <pt x="81" y="0" on="1"/>
        <pt x="81" y="532" on="1"/>
        <pt x="193" y="532" on="1"/>
        <pt x="193" y="306" on="1"/>
        <pt x="409" y="532" on="1"/>
        <pt x="553" y="532" on="1"/>
        <pt x="351" y="321" on="1"/>
        <pt x="568" y="0" on="1"/>
        <pt x="432" y="0" on="1"/>
        <pt x="274" y="233" on="1"/>
        <pt x="193" y="151" on="1"/>
      </contour>
    </TTGlyph>
    <TTGlyph name="l" xMin="76" yMin="-8" xMax="347" yMax="699">
      <contour>
        <pt x="347" y="38" on="1"/>
        <pt x="307" y="-8" on="0"/>
        <pt x="163" y="-8" on="0"/>
        <pt x="76" y="78" on="0"/>
        <pt x="76" y="162" on="1"/>
        <pt x="76" y="699" on="1"/>
        <pt x="188" y="699" on="1"/>
        <pt x="188" y="175" on="1"/>
        <pt x="188" y="95" on="0"/>
        <pt x="248" y="95" on="1"/>
        <pt x="283" y="95" on="0"/>
        <pt x="298" y="120" on="1"/>
      </contour>
    </TTGlyph>
    <TTGlyph name="ldot" xMin="76" yMin="-8" xMax="413" yMax="699">
      <contour>
        <pt x="347" y="38" on="1"/>
        <pt x="307" y="-8" on="0"/>
        <pt x="163" y="-8" on="0"/>
        <pt x="76" y="78" on="0"/>
        <pt x="76" y="162" on="1"/>
        <pt x="76" y="699" on="1"/>
        <pt x="188" y="699" on="1"/>
        <pt x="188" y="175" on="1"/>
        <pt x="188" y="95" on="0"/>
        <pt x="248" y="95" on="1"/>
        <pt x="283" y="95" on="0"/>
        <pt x="298" y="120" on="1"/>
      </contour>
      <contour>
        <pt x="264" y="288" on="0"/>
        <pt x="264" y="350" on="0"/>
        <pt x="307" y="393" on="0"/>
        <pt x="369" y="393" on="0"/>
        <pt x="413" y="350" on="0"/>
        <pt x="413" y="288" on="0"/>
        <pt x="369" y="244" on="0"/>
        <pt x="307" y="244" on="0"/>
      </contour>
    </TTGlyph>
    <TTGlyph name="less" xMin="45" yMin="117" xMax="516" yMax="678">
      <contour>
        <pt x="45" y="334" on="1"/>
        <pt x="45" y="460" on="1"/>
        <pt x="516" y="678" on="1"/>
        <pt x="516" y="564" on="1"/>
        <pt x="164" y="405" on="1"/>
        <pt x="164" y="394" on="1"/>
        <pt x="516" y="231" on="1"/>
        <pt x="516" y="117" on="1"/>
      </contour>
    </TTGlyph>
    <TTGlyph name="lessequal" xMin="67" yMin="-52" xMax="539" yMax="678">
      <contour>
        <pt x="67" y="334" on="1"/>
        <pt x="67" y="460" on="1"/>
        <pt x="538" y="678" on="1"/>
        <pt x="538" y="564" on="1"/>
        <pt x="186" y="405" on="1"/>
        <pt x="186" y="394" on="1"/>
        <pt x="538" y="231" on="1"/>
        <pt x="538" y="117" on="1"/>
      </contour>
      <contour>
        <pt x="67" y="46" on="1"/>
        <pt x="539" y="46" on="1"/>
        <pt x="539" y="-52" on="1"/>
        <pt x="67" y="-52" on="1"/>
      </contour>
    </TTGlyph>
    <TTGlyph name="logicalnot" xMin="67" yMin="88" xMax="736" yMax="445">
      <contour>
        <pt x="67" y="445" on="1"/>
        <pt x="736" y="445" on="1"/>
        <pt x="736" y="88" on="1"/>
        <pt x="654" y="88" on="1"/>
        <pt x="654" y="357" on="1"/>
        <pt x="67" y="357" on="1"/>
      </contour>
    </TTGlyph>
    <TTGlyph name="lozenge" xMin="91" yMin="33" xMax="559" yMax="468">
      <contour>
        <pt x="91" y="33" on="1"/>
        <pt x="91" y="468" on="1"/>
        <pt x="559" y="468" on="1"/>
        <pt x="559" y="33" on="1"/>
      </contour>
    </TTGlyph>
    <TTGlyph name="lslash" xMin="22" yMin="0" xMax="291" yMax="699">
      <contour>
        <pt x="104" y="699" on="1"/>
        <pt x="216" y="699" on="1"/>
        <pt x="216" y="375" on="1"/>
        <pt x="291" y="397" on="1"/>
        <pt x="291" y="292" on="1"/>
        <pt x="216" y="270" on="1"/>
        <pt x="216" y="0" on="1"/>
        <pt x="104" y="0" on="1"/>
        <pt x="104" y="239" on="1"/>
        <pt x="22" y="216" on="1"/>
        <pt x="22" y="321" on="1"/>
        <pt x="104" y="344" on="1"/>
      </contour>
    </TTGlyph>
    <TTGlyph name="m" xMin="81" yMin="0" xMax="939" yMax="540">
      <contour>
        <pt x="193" y="288" on="1"/>
        <pt x="193" y="0" on="1"/>
        <pt x="81" y="0" on="1"/>
        <pt x="81" y="532" on="1"/>
        <pt x="193" y="532" on="1"/>
        <pt x="193" y="435" on="1"/>
        <pt x="217" y="484" on="0"/>
        <pt x="314" y="540" on="0"/>
        <pt x="370" y="540" on="1"/>
        <pt x="496" y="540" on="0"/>
        <pt x="541" y="436" on="1"/>
        <pt x="620" y="540" on="0"/>
        <pt x="738" y="540" on="1"/>
        <pt x="828" y="540" on="0"/>
        <pt x="939" y="430" on="0"/>
        <pt x="939" y="326" on="1"/>
        <pt x="939" y="0" on="1"/>
        <pt x="827" y="0" on="1"/>
        <pt x="827" y="292" on="1"/>
        <pt x="827" y="439" on="0"/>
        <pt x="705" y="439" on="1"/>
        <pt x="648" y="439" on="0"/>
        <pt x="563" y="366" on="0"/>
        <pt x="561" y="296" on="1"/>
        <pt x="561" y="0" on="1"/>
        <pt x="449" y="0" on="1"/>
        <pt x="449" y="292" on="1"/>
        <pt x="449" y="368" on="0"/>
        <pt x="395" y="439" on="0"/>
        <pt x="279" y="439" on="0"/>
        <pt x="193" y="362" on="0"/>
      </contour>
    </TTGlyph>
    <TTGlyph name="macron" xMin="59" yMin="600" xMax="366" yMax="687">
      <contour>
        <pt x="366" y="687" on="1"/>
        <pt x="366" y="600" on="1"/>
        <pt x="59" y="600" on="1"/>
        <pt x="59" y="687" on="1"/>
      </contour>
    </TTGlyph>
    <TTGlyph name="minus" xMin="48" yMin="340" xMax="520" yMax="434">
      <contour>
        <pt x="48" y="434" on="1"/>
        <pt x="520" y="434" on="1"/>
        <pt x="520" y="340" on="1"/>
        <pt x="48" y="340" on="1"/>
      </contour>
    </TTGlyph>
    <TTGlyph name="mu" xMin="86" yMin="-194" xMax="576" yMax="532">
      <contour>
        <pt x="86" y="-194" on="1"/>
        <pt x="86" y="532" on="1"/>
        <pt x="198" y="532" on="1"/>
        <pt x="198" y="240" on="1"/>
        <pt x="198" y="93" on="0"/>
        <pt x="320" y="93" on="1"/>
        <pt x="378" y="93" on="0"/>
        <pt x="464" y="170" on="0"/>
        <pt x="464" y="244" on="1"/>
        <pt x="464" y="532" on="1"/>
        <pt x="576" y="532" on="1"/>
        <pt x="576" y="0" on="1"/>
        <pt x="464" y="0" on="1"/>
        <pt x="464" y="97" on="1"/>
        <pt x="437" y="48" on="0"/>
        <pt x="342" y="-8" on="0"/>
        <pt x="238" y="-8" on="0"/>
        <pt x="198" y="9" on="1"/>
        <pt x="198" y="-194" on="1"/>
      </contour>
    </TTGlyph>
    <TTGlyph name="multiply" xMin="48" yMin="146" xMax="517" yMax="614">
      <contour>
        <pt x="283" y="443" on="1"/>
        <pt x="453" y="614" on="1"/>
        <pt x="516" y="550" on="1"/>
        <pt x="347" y="381" on="1"/>
        <pt x="517" y="210" on="1"/>
        <pt x="454" y="146" on="1"/>
        <pt x="283" y="317" on="1"/>
        <pt x="112" y="146" on="1"/>
        <pt x="48" y="210" on="1"/>
        <pt x="219" y="381" on="1"/>
        <pt x="49" y="550" on="1"/>
        <pt x="113" y="614" on="1"/>
      </contour>
    </TTGlyph>
    <TTGlyph name="n" xMin="81" yMin="0" xMax="571" yMax="540">
      <contour>
        <pt x="193" y="288" on="1"/>
        <pt x="193" y="0" on="1"/>
        <pt x="81" y="0" on="1"/>
        <pt x="81" y="532" on="1"/>
        <pt x="193" y="532" on="1"/>
        <pt x="193" y="435" on="1"/>
        <pt x="220" y="484" on="0"/>
        <pt x="315" y="540" on="0"/>
        <pt x="370" y="540" on="1"/>
        <pt x="460" y="540" on="0"/>
        <pt x="571" y="430" on="0"/>
        <pt x="571" y="326" on="1"/>
        <pt x="571" y="0" on="1"/>
        <pt x="459" y="0" on="1"/>
        <pt x="459" y="292" on="1"/>
        <pt x="459" y="439" on="0"/>
        <pt x="337" y="439" on="1"/>
        <pt x="279" y="439" on="0"/>
        <pt x="193" y="362" on="0"/>
      </contour>
    </TTGlyph>
    <TTGlyph name="nacute" xMin="81" yMin="0" xMax="571" yMax="773">
      <contour>
        <pt x="193" y="288" on="1"/>
        <pt x="193" y="0" on="1"/>
        <pt x="81" y="0" on="1"/>
        <pt x="81" y="532" on="1"/>
        <pt x="193" y="532" on="1"/>
        <pt x="193" y="435" on="1"/>
        <pt x="220" y="484" on="0"/>
        <pt x="315" y="540" on="0"/>
        <pt x="370" y="540" on="1"/>
        <pt x="460" y="540" on="0"/>
        <pt x="571" y="430" on="0"/>
        <pt x="571" y="326" on="1"/>
        <pt x="571" y="0" on="1"/>
        <pt x="459" y="0" on="1"/>
        <pt x="459" y="292" on="1"/>
        <pt x="459" y="439" on="0"/>
        <pt x="337" y="439" on="1"/>
        <pt x="279" y="439" on="0"/>
        <pt x="193" y="362" on="0"/>
      </contour>
      <contour>
        <pt x="365" y="628" on="1"/>
        <pt x="263" y="628" on="1"/>
        <pt x="369" y="773" on="1"/>
        <pt x="487" y="724" on="1"/>
      </contour>
    </TTGlyph>
    <TTGlyph name="nine" xMin="51" yMin="-108" xMax="560" yMax="612">
      <contour>
        <pt x="266" y="-2" on="1"/>
        <pt x="359" y="-2" on="0"/>
        <pt x="447" y="124" on="0"/>
        <pt x="448" y="231" on="1"/>
        <pt x="423" y="203" on="0"/>
        <pt x="329" y="154" on="0"/>
        <pt x="272" y="154" on="1"/>
        <pt x="178" y="154" on="0"/>
        <pt x="51" y="279" on="0"/>
        <pt x="51" y="486" on="0"/>
        <pt x="188" y="612" on="0"/>
        <pt x="292" y="612" on="1"/>
        <pt x="460" y="612" on="0"/>
        <pt x="524" y="462" on="1"/>
        <pt x="560" y="376" on="0"/>
        <pt x="560" y="160" on="0"/>
        <pt x="514" y="16" on="0"/>
        <pt x="474" y="-26" on="1"/>
        <pt x="396" y="-108" on="0"/>
        <pt x="169" y="-108" on="0"/>
        <pt x="77" y="-37" on="1"/>
        <pt x="136" y="50" on="1"/>
        <pt x="159" y="30" on="0"/>
        <pt x="236" y="-2" on="0"/>
      </contour>
      <contour>
        <pt x="348" y="258" on="0"/>
        <pt x="429" y="325" on="0"/>
        <pt x="429" y="432" on="0"/>
        <pt x="351" y="509" on="0"/>
        <pt x="234" y="509" on="0"/>
        <pt x="158" y="440" on="0"/>
        <pt x="158" y="332" on="0"/>
        <pt x="227" y="258" on="0"/>
      </contour>
    </TTGlyph>
    <TTGlyph name="notequal" xMin="64" yMin="65" xMax="568" yMax="700">
      <contour>
        <pt x="64" y="333" on="1"/>
        <pt x="254" y="333" on="1"/>
        <pt x="300" y="432" on="1"/>
        <pt x="64" y="432" on="1"/>
        <pt x="64" y="540" on="1"/>
        <pt x="350" y="540" on="1"/>
        <pt x="425" y="700" on="1"/>
        <pt x="525" y="700" on="1"/>
        <pt x="450" y="540" on="1"/>
        <pt x="568" y="540" on="1"/>
        <pt x="568" y="432" on="1"/>
        <pt x="400" y="432" on="1"/>
        <pt x="354" y="333" on="1"/>
        <pt x="568" y="333" on="1"/>
        <pt x="568" y="225" on="1"/>
        <pt x="303" y="225" on="1"/>
        <pt x="229" y="65" on="1"/>
        <pt x="129" y="65" on="1"/>
        <pt x="203" y="225" on="1"/>
        <pt x="64" y="225" on="1"/>
      </contour>
    </TTGlyph>
    <TTGlyph name="ntilde" xMin="81" yMin="0" xMax="571" yMax="730">
      <contour>
        <pt x="193" y="288" on="1"/>
        <pt x="193" y="0" on="1"/>
        <pt x="81" y="0" on="1"/>
        <pt x="81" y="532" on="1"/>
        <pt x="193" y="532" on="1"/>
        <pt x="193" y="435" on="1"/>
        <pt x="220" y="484" on="0"/>
        <pt x="315" y="540" on="0"/>
        <pt x="370" y="540" on="1"/>
        <pt x="460" y="540" on="0"/>
        <pt x="571" y="430" on="0"/>
        <pt x="571" y="326" on="1"/>
        <pt x="571" y="0" on="1"/>
        <pt x="459" y="0" on="1"/>
        <pt x="459" y="292" on="1"/>
        <pt x="459" y="439" on="0"/>
        <pt x="337" y="439" on="1"/>
        <pt x="279" y="439" on="0"/>
        <pt x="193" y="362" on="0"/>
      </contour>
      <contour>
        <pt x="405" y="597" on="1"/>
        <pt x="379" y="597" on="0"/>
        <pt x="286" y="644" on="0"/>
        <pt x="273" y="644" on="1"/>
        <pt x="240" y="644" on="0"/>
        <pt x="239" y="600" on="1"/>
        <pt x="165" y="600" on="1"/>
        <pt x="165" y="658" on="0"/>
        <pt x="212" y="730" on="0"/>
        <pt x="254" y="730" on="1"/>
        <pt x="281" y="730" on="0"/>
        <pt x="377" y="683" on="0"/>
        <pt x="392" y="683" on="1"/>
        <pt x="422" y="683" on="0"/>
        <pt x="422" y="727" on="1"/>
        <pt x="497" y="727" on="1"/>
        <pt x="494" y="597" on="0"/>
      </contour>
    </TTGlyph>
    <TTGlyph name="numbersign" xMin="43" yMin="0" xMax="693" yMax="716">
      <contour>
        <pt x="671" y="436" on="1"/>
        <pt x="563" y="436" on="1"/>
        <pt x="534" y="270" on="1"/>
        <pt x="657" y="270" on="1"/>
        <pt x="635" y="160" on="1"/>
        <pt x="516" y="160" on="1"/>
        <pt x="488" y="0" on="1"/>
        <pt x="377" y="0" on="1"/>
        <pt x="405" y="160" on="1"/>
        <pt x="258" y="160" on="1"/>
        <pt x="230" y="0" on="1"/>
        <pt x="118" y="0" on="1"/>
        <pt x="146" y="160" on="1"/>
        <pt x="43" y="160" on="1"/>
        <pt x="65" y="270" on="1"/>
        <pt x="165" y="270" on="1"/>
        <pt x="194" y="436" on="1"/>
        <pt x="80" y="436" on="1"/>
        <pt x="102" y="546" on="1"/>
        <pt x="213" y="546" on="1"/>
        <pt x="242" y="716" on="1"/>
        <pt x="353" y="716" on="1"/>
        <pt x="324" y="546" on="1"/>
        <pt x="471" y="546" on="1"/>
        <pt x="500" y="716" on="1"/>
        <pt x="612" y="716" on="1"/>
        <pt x="581" y="546" on="1"/>
        <pt x="693" y="546" on="1"/>
      </contour>
      <contour>
        <pt x="453" y="436" on="1"/>
        <pt x="306" y="436" on="1"/>
        <pt x="276" y="270" on="1"/>
        <pt x="423" y="270" on="1"/>
      </contour>
    </TTGlyph>
    <TTGlyph name="o" xMin="46" yMin="-8" xMax="606" yMax="540">
      <contour>
        <pt x="253" y="92" on="0"/>
        <pt x="399" y="92" on="0"/>
        <pt x="494" y="189" on="0"/>
        <pt x="494" y="343" on="0"/>
        <pt x="399" y="440" on="0"/>
        <pt x="253" y="440" on="0"/>
        <pt x="158" y="343" on="0"/>
        <pt x="158" y="189" on="0"/>
      </contour>
      <contour>
        <pt x="446" y="-8" on="0"/>
        <pt x="206" y="-8" on="0"/>
        <pt x="46" y="151" on="0"/>
        <pt x="46" y="381" on="0"/>
        <pt x="206" y="540" on="0"/>
        <pt x="446" y="540" on="0"/>
        <pt x="606" y="381" on="0"/>
        <pt x="606" y="151" on="0"/>
      </contour>
    </TTGlyph>
    <TTGlyph name="oacute" xMin="46" yMin="-8" xMax="606" yMax="745">
      <contour>
        <pt x="253" y="92" on="0"/>
        <pt x="399" y="92" on="0"/>
        <pt x="494" y="189" on="0"/>
        <pt x="494" y="343" on="0"/>
        <pt x="399" y="440" on="0"/>
        <pt x="253" y="440" on="0"/>
        <pt x="158" y="343" on="0"/>
        <pt x="158" y="189" on="0"/>
      </contour>
      <contour>
        <pt x="446" y="-8" on="0"/>
        <pt x="206" y="-8" on="0"/>
        <pt x="46" y="151" on="0"/>
        <pt x="46" y="381" on="0"/>
        <pt x="206" y="540" on="0"/>
        <pt x="446" y="540" on="0"/>
        <pt x="606" y="381" on="0"/>
        <pt x="606" y="151" on="0"/>
      </contour>
      <contour>
        <pt x="377" y="600" on="1"/>
        <pt x="275" y="600" on="1"/>
        <pt x="381" y="745" on="1"/>
        <pt x="499" y="696" on="1"/>
      </contour>
    </TTGlyph>
    <TTGlyph name="ocircumflex" xMin="46" yMin="-8" xMax="606" yMax="734">
      <contour>
        <pt x="253" y="92" on="0"/>
        <pt x="399" y="92" on="0"/>
        <pt x="494" y="189" on="0"/>
        <pt x="494" y="343" on="0"/>
        <pt x="399" y="440" on="0"/>
        <pt x="253" y="440" on="0"/>
        <pt x="158" y="343" on="0"/>
        <pt x="158" y="189" on="0"/>
      </contour>
      <contour>
        <pt x="446" y="-8" on="0"/>
        <pt x="206" y="-8" on="0"/>
        <pt x="46" y="151" on="0"/>
        <pt x="46" y="381" on="0"/>
        <pt x="206" y="540" on="0"/>
        <pt x="446" y="540" on="0"/>
        <pt x="606" y="381" on="0"/>
        <pt x="606" y="151" on="0"/>
      </contour>
      <contour>
        <pt x="275" y="734" on="1"/>
        <pt x="379" y="734" on="1"/>
        <pt x="501" y="600" on="1"/>
        <pt x="404" y="600" on="1"/>
        <pt x="327" y="656" on="1"/>
        <pt x="250" y="600" on="1"/>
        <pt x="153" y="600" on="1"/>
      </contour>
    </TTGlyph>
    <TTGlyph name="odieresis" xMin="46" yMin="-8" xMax="606" yMax="723">
      <contour>
        <pt x="168" y="636" on="0"/>
        <pt x="168" y="688" on="0"/>
        <pt x="204" y="723" on="0"/>
        <pt x="255" y="723" on="0"/>
        <pt x="291" y="688" on="0"/>
        <pt x="291" y="636" on="0"/>
        <pt x="254" y="600" on="0"/>
        <pt x="203" y="600" on="0"/>
      </contour>
      <contour>
        <pt x="389" y="600" on="0"/>
        <pt x="353" y="636" on="0"/>
        <pt x="353" y="687" on="0"/>
        <pt x="389" y="723" on="0"/>
        <pt x="440" y="723" on="0"/>
        <pt x="476" y="688" on="0"/>
        <pt x="476" y="636" on="0"/>
        <pt x="440" y="600" on="0"/>
      </contour>
      <contour>
        <pt x="253" y="92" on="0"/>
        <pt x="399" y="92" on="0"/>
        <pt x="494" y="189" on="0"/>
        <pt x="494" y="343" on="0"/>
        <pt x="399" y="440" on="0"/>
        <pt x="253" y="440" on="0"/>
        <pt x="158" y="343" on="0"/>
        <pt x="158" y="189" on="0"/>
      </contour>
      <contour>
        <pt x="446" y="-8" on="0"/>
        <pt x="206" y="-8" on="0"/>
        <pt x="46" y="151" on="0"/>
        <pt x="46" y="381" on="0"/>
        <pt x="206" y="540" on="0"/>
        <pt x="446" y="540" on="0"/>
        <pt x="606" y="381" on="0"/>
        <pt x="606" y="151" on="0"/>
      </contour>
    </TTGlyph>
    <TTGlyph name="oe" xMin="46" yMin="-8" xMax="1026" yMax="540">
      <contour>
        <pt x="771" y="540" on="1"/>
        <pt x="880" y="540" on="0"/>
        <pt x="1024" y="419" on="0"/>
        <pt x="1025" y="322" on="1"/>
        <pt x="1026" y="320" on="1"/>
        <pt x="638" y="157" on="1"/>
        <pt x="690" y="93" on="0"/>
        <pt x="869" y="93" on="0"/>
        <pt x="927" y="163" on="1"/>
        <pt x="993" y="90" on="1"/>
        <pt x="898" y="-8" on="0"/>
        <pt x="769" y="-8" on="1"/>
        <pt x="703" y="-8" on="0"/>
        <pt x="587" y="46" on="0"/>
        <pt x="548" y="96" on="1"/>
        <pt x="467" y="-8" on="0"/>
        <pt x="326" y="-8" on="1"/>
        <pt x="206" y="-8" on="0"/>
        <pt x="46" y="151" on="0"/>
        <pt x="46" y="381" on="0"/>
        <pt x="206" y="540" on="0"/>
        <pt x="326" y="540" on="1"/>
        <pt x="466" y="540" on="0"/>
        <pt x="549" y="434" on="1"/>
        <pt x="589" y="485" on="0"/>
        <pt x="708" y="540" on="0"/>
      </contour>
      <contour>
        <pt x="494" y="258" on="1"/>
        <pt x="494" y="266" on="1"/>
        <pt x="494" y="343" on="0"/>
        <pt x="399" y="440" on="0"/>
        <pt x="253" y="440" on="0"/>
        <pt x="158" y="343" on="0"/>
        <pt x="158" y="189" on="0"/>
        <pt x="253" y="92" on="0"/>
        <pt x="397" y="92" on="0"/>
        <pt x="491" y="184" on="0"/>
      </contour>
      <contour>
        <pt x="604" y="294" on="1"/>
        <pt x="606" y="276" on="0"/>
        <pt x="606" y="262" on="0"/>
        <pt x="605" y="248" on="0"/>
        <pt x="605" y="245" on="1"/>
        <pt x="898" y="371" on="1"/>
        <pt x="864" y="437" on="0"/>
        <pt x="777" y="437" on="1"/>
        <pt x="718" y="437" on="0"/>
        <pt x="615" y="362" on="0"/>
      </contour>
    </TTGlyph>
    <TTGlyph name="ogonek" xMin="18" yMin="-212" xMax="197" yMax="-8">
      <contour>
        <pt x="109" y="-49" on="1"/>
        <pt x="86" y="-87" on="0"/>
        <pt x="86" y="-146" on="0"/>
        <pt x="136" y="-146" on="0"/>
        <pt x="149" y="-122" on="1"/>
        <pt x="197" y="-156" on="1"/>
        <pt x="163" y="-212" on="0"/>
        <pt x="106" y="-212" on="1"/>
        <pt x="70" y="-212" on="0"/>
        <pt x="18" y="-164" on="0"/>
        <pt x="18" y="-84" on="0"/>
        <pt x="50" y="-38" on="1"/>
        <pt x="71" y="-8" on="1"/>
        <pt x="134" y="-8" on="1"/>
      </contour>
    </TTGlyph>
    <TTGlyph name="ograve" xMin="46" yMin="-8" xMax="606" yMax="745">
      <contour>
        <pt x="395" y="600" on="1"/>
        <pt x="293" y="600" on="1"/>
        <pt x="171" y="696" on="1"/>
        <pt x="289" y="745" on="1"/>
      </contour>
      <contour>
        <pt x="253" y="92" on="0"/>
        <pt x="399" y="92" on="0"/>
        <pt x="494" y="189" on="0"/>
        <pt x="494" y="343" on="0"/>
        <pt x="399" y="440" on="0"/>
        <pt x="253" y="440" on="0"/>
        <pt x="158" y="343" on="0"/>
        <pt x="158" y="189" on="0"/>
      </contour>
      <contour>
        <pt x="446" y="-8" on="0"/>
        <pt x="206" y="-8" on="0"/>
        <pt x="46" y="151" on="0"/>
        <pt x="46" y="381" on="0"/>
        <pt x="206" y="540" on="0"/>
        <pt x="446" y="540" on="0"/>
        <pt x="606" y="381" on="0"/>
        <pt x="606" y="151" on="0"/>
      </contour>
    </TTGlyph>
    <TTGlyph name="one" xMin="29" yMin="0" xMax="283" yMax="599">
      <contour>
        <pt x="29" y="599" on="1"/>
        <pt x="283" y="599" on="1"/>
        <pt x="283" y="0" on="1"/>
        <pt x="171" y="0" on="1"/>
        <pt x="171" y="494" on="1"/>
        <pt x="29" y="494" on="1"/>
      </contour>
    </TTGlyph>
    <TTGlyph name="onehalf" xMin="35" yMin="-8" xMax="884" yMax="757">
      <contour>
        <pt x="623" y="757" on="1"/>
        <pt x="695" y="757" on="1"/>
        <pt x="322" y="-8" on="1"/>
        <pt x="250" y="-8" on="1"/>
      </contour>
      <contour>
        <pt x="770" y="225" on="0"/>
        <pt x="805" y="273" on="0"/>
        <pt x="805" y="322" on="0"/>
        <pt x="768" y="356" on="0"/>
        <pt x="739" y="356" on="1"/>
        <pt x="690" y="356" on="0"/>
        <pt x="655" y="305" on="1"/>
        <pt x="601" y="337" on="1"/>
        <pt x="654" y="418" on="0"/>
        <pt x="740" y="418" on="1"/>
        <pt x="794" y="418" on="0"/>
        <pt x="872" y="353" on="0"/>
        <pt x="872" y="297" on="1"/>
        <pt x="872" y="266" on="0"/>
        <pt x="839" y="208" on="0"/>
        <pt x="795" y="163" on="1"/>
        <pt x="699" y="66" on="1"/>
        <pt x="884" y="66" on="1"/>
        <pt x="884" y="0" on="1"/>
        <pt x="605" y="0" on="1"/>
        <pt x="605" y="58" on="1"/>
        <pt x="729" y="183" on="1"/>
      </contour>
      <contour>
        <pt x="35" y="640" on="1"/>
        <pt x="183" y="640" on="1"/>
        <pt x="183" y="290" on="1"/>
        <pt x="118" y="290" on="1"/>
        <pt x="118" y="579" on="1"/>
        <pt x="35" y="579" on="1"/>
      </contour>
    </TTGlyph>
    <TTGlyph name="onequarter" xMin="35" yMin="-8" xMax="824" yMax="757">
      <contour>
        <pt x="591" y="757" on="1"/>
        <pt x="663" y="757" on="1"/>
        <pt x="290" y="-8" on="1"/>
        <pt x="218" y="-8" on="1"/>
      </contour>
      <contour>
        <pt x="709" y="166" on="1"/>
        <pt x="709" y="241" on="1"/>
        <pt x="774" y="241" on="1"/>
        <pt x="774" y="166" on="1"/>
        <pt x="824" y="166" on="1"/>
        <pt x="824" y="103" on="1"/>
        <pt x="774" y="103" on="1"/>
        <pt x="774" y="0" on="1"/>
        <pt x="709" y="0" on="1"/>
        <pt x="709" y="103" on="1"/>
        <pt x="534" y="103" on="1"/>
        <pt x="534" y="164" on="1"/>
        <pt x="683" y="409" on="1"/>
        <pt x="759" y="409" on="1"/>
        <pt x="611" y="166" on="1"/>
      </contour>
      <contour>
        <pt x="35" y="640" on="1"/>
        <pt x="183" y="640" on="1"/>
        <pt x="183" y="290" on="1"/>
        <pt x="118" y="290" on="1"/>
        <pt x="118" y="579" on="1"/>
        <pt x="35" y="579" on="1"/>
      </contour>
    </TTGlyph>
    <TTGlyph name="onesuperior" xMin="41" yMin="290" xMax="189" yMax="640">
      <contour>
        <pt x="41" y="640" on="1"/>
        <pt x="189" y="640" on="1"/>
        <pt x="189" y="290" on="1"/>
        <pt x="124" y="290" on="1"/>
        <pt x="124" y="579" on="1"/>
        <pt x="41" y="579" on="1"/>
      </contour>
    </TTGlyph>
    <TTGlyph name="ordfeminine" xMin="62" yMin="462" xMax="314" yMax="716">
      <contour>
        <pt x="132" y="462" on="0"/>
        <pt x="62" y="533" on="0"/>
        <pt x="62" y="647" on="0"/>
        <pt x="133" y="716" on="0"/>
        <pt x="231" y="716" on="0"/>
        <pt x="262" y="670" on="1"/>
        <pt x="262" y="713" on="1"/>
        <pt x="314" y="713" on="1"/>
        <pt x="314" y="466" on="1"/>
        <pt x="262" y="466" on="1"/>
        <pt x="262" y="506" on="1"/>
        <pt x="230" y="462" on="0"/>
      </contour>
      <contour>
        <pt x="114" y="553" on="0"/>
        <pt x="159" y="508" on="0"/>
        <pt x="220" y="508" on="0"/>
        <pt x="263" y="553" on="0"/>
        <pt x="263" y="624" on="0"/>
        <pt x="220" y="671" on="0"/>
        <pt x="158" y="671" on="0"/>
        <pt x="114" y="624" on="0"/>
      </contour>
    </TTGlyph>
    <TTGlyph name="ordmasculine" xMin="56" yMin="456" xMax="322" yMax="716">
      <contour>
        <pt x="154" y="504" on="0"/>
        <pt x="224" y="504" on="0"/>
        <pt x="269" y="550" on="0"/>
        <pt x="269" y="623" on="0"/>
        <pt x="224" y="669" on="0"/>
        <pt x="154" y="669" on="0"/>
        <pt x="109" y="623" on="0"/>
        <pt x="109" y="550" on="0"/>
      </contour>
      <contour>
        <pt x="246" y="456" on="0"/>
        <pt x="132" y="456" on="0"/>
        <pt x="56" y="531" on="0"/>
        <pt x="56" y="641" on="0"/>
        <pt x="132" y="716" on="0"/>
        <pt x="246" y="716" on="0"/>
        <pt x="322" y="641" on="0"/>
        <pt x="322" y="531" on="0"/>
      </contour>
    </TTGlyph>
    <TTGlyph name="oslash" xMin="46" yMin="-105" xMax="606" yMax="622">
      <contour>
        <pt x="326" y="-8" on="1"/>
        <pt x="298" y="-8" on="0"/>
        <pt x="261" y="-1" on="1"/>
        <pt x="213" y="-105" on="1"/>
        <pt x="113" y="-105" on="1"/>
        <pt x="177" y="32" on="1"/>
        <pt x="116" y="68" on="0"/>
        <pt x="46" y="192" on="0"/>
        <pt x="46" y="266" on="1"/>
        <pt x="46" y="381" on="0"/>
        <pt x="206" y="540" on="0"/>
        <pt x="326" y="540" on="1"/>
        <pt x="370" y="540" on="0"/>
        <pt x="409" y="528" on="1"/>
        <pt x="453" y="622" on="1"/>
        <pt x="553" y="622" on="1"/>
        <pt x="491" y="490" on="1"/>
        <pt x="545" y="452" on="0"/>
        <pt x="606" y="335" on="0"/>
        <pt x="606" y="266" on="1"/>
        <pt x="606" y="151" on="0"/>
        <pt x="446" y="-8" on="0"/>
      </contour>
      <contour>
        <pt x="253" y="440" on="0"/>
        <pt x="158" y="343" on="0"/>
        <pt x="158" y="176" on="0"/>
        <pt x="221" y="126" on="1"/>
        <pt x="366" y="436" on="1"/>
        <pt x="349" y="440" on="0"/>
        <pt x="326" y="440" on="1"/>
      </contour>
      <contour>
        <pt x="326" y="92" on="1"/>
        <pt x="399" y="92" on="0"/>
        <pt x="494" y="189" on="0"/>
        <pt x="494" y="345" on="0"/>
        <pt x="445" y="392" on="1"/>
        <pt x="305" y="93" on="1"/>
        <pt x="312" y="92" on="0"/>
      </contour>
    </TTGlyph>
    <TTGlyph name="otilde" xMin="46" yMin="-8" xMax="606" yMax="730">
      <contour>
        <pt x="253" y="92" on="0"/>
        <pt x="399" y="92" on="0"/>
        <pt x="494" y="189" on="0"/>
        <pt x="494" y="343" on="0"/>
        <pt x="399" y="440" on="0"/>
        <pt x="253" y="440" on="0"/>
        <pt x="158" y="343" on="0"/>
        <pt x="158" y="189" on="0"/>
      </contour>
      <contour>
        <pt x="446" y="-8" on="0"/>
        <pt x="206" y="-8" on="0"/>
        <pt x="46" y="151" on="0"/>
        <pt x="46" y="381" on="0"/>
        <pt x="206" y="540" on="0"/>
        <pt x="446" y="540" on="0"/>
        <pt x="606" y="381" on="0"/>
        <pt x="606" y="151" on="0"/>
      </contour>
      <contour>
        <pt x="400" y="597" on="1"/>
        <pt x="374" y="597" on="0"/>
        <pt x="281" y="644" on="0"/>
        <pt x="268" y="644" on="1"/>
        <pt x="235" y="644" on="0"/>
        <pt x="234" y="600" on="1"/>
        <pt x="160" y="600" on="1"/>
        <pt x="160" y="658" on="0"/>
        <pt x="207" y="730" on="0"/>
        <pt x="249" y="730" on="1"/>
        <pt x="276" y="730" on="0"/>
        <pt x="372" y="683" on="0"/>
        <pt x="387" y="683" on="1"/>
        <pt x="417" y="683" on="0"/>
        <pt x="417" y="727" on="1"/>
        <pt x="492" y="727" on="1"/>
        <pt x="489" y="597" on="0"/>
      </contour>
    </TTGlyph>
    <TTGlyph name="p" xMin="81" yMin="-194" xMax="625" yMax="540">
      <contour>
        <pt x="473" y="540" on="0"/>
        <pt x="625" y="392" on="0"/>
        <pt x="625" y="146" on="0"/>
        <pt x="474" y="-8" on="0"/>
        <pt x="273" y="-8" on="0"/>
        <pt x="193" y="80" on="1"/>
        <pt x="193" y="-194" on="1"/>
        <pt x="81" y="-194" on="1"/>
        <pt x="81" y="532" on="1"/>
        <pt x="193" y="532" on="1"/>
        <pt x="193" y="439" on="1"/>
        <pt x="259" y="540" on="0"/>
      </contour>
      <contour>
        <pt x="191" y="189" on="0"/>
        <pt x="283" y="92" on="0"/>
        <pt x="415" y="92" on="0"/>
        <pt x="513" y="188" on="0"/>
        <pt x="513" y="341" on="0"/>
        <pt x="417" y="442" on="0"/>
        <pt x="283" y="442" on="0"/>
        <pt x="191" y="341" on="0"/>
      </contour>
    </TTGlyph>
    <TTGlyph name="paragraph" xMin="35" yMin="-112" xMax="572" yMax="757">
      <contour>
        <pt x="35" y="556" on="1"/>
        <pt x="35" y="641" on="0"/>
        <pt x="153" y="757" on="0"/>
        <pt x="273" y="757" on="1"/>
        <pt x="572" y="757" on="1"/>
        <pt x="572" y="-112" on="1"/>
        <pt x="479" y="-112" on="1"/>
        <pt x="479" y="662" on="1"/>
        <pt x="367" y="662" on="1"/>
        <pt x="367" y="-112" on="1"/>
        <pt x="277" y="-112" on="1"/>
        <pt x="277" y="367" on="1"/>
        <pt x="253" y="364" on="0"/>
        <pt x="231" y="364" on="1"/>
        <pt x="176" y="364" on="0"/>
        <pt x="94" y="402" on="0"/>
        <pt x="74" y="432" on="1"/>
        <pt x="35" y="490" on="0"/>
      </contour>
    </TTGlyph>
    <TTGlyph name="parenleft" xMin="50" yMin="-133" xMax="299" yMax="757">
      <contour>
        <pt x="161" y="427" on="0"/>
        <pt x="161" y="197" on="0"/>
        <pt x="241" y="-52" on="0"/>
        <pt x="299" y="-133" on="1"/>
        <pt x="180" y="-133" on="1"/>
        <pt x="131" y="-65" on="0"/>
        <pt x="50" y="187" on="0"/>
        <pt x="50" y="437" on="0"/>
        <pt x="131" y="689" on="0"/>
        <pt x="180" y="757" on="1"/>
        <pt x="299" y="757" on="1"/>
        <pt x="241" y="676" on="0"/>
      </contour>
    </TTGlyph>
    <TTGlyph name="parenright" xMin="33" yMin="-133" xMax="282" yMax="757">
      <contour>
        <pt x="171" y="197" on="0"/>
        <pt x="171" y="427" on="0"/>
        <pt x="91" y="676" on="0"/>
        <pt x="33" y="757" on="1"/>
        <pt x="152" y="757" on="1"/>
        <pt x="201" y="689" on="0"/>
        <pt x="282" y="437" on="0"/>
        <pt x="282" y="187" on="0"/>
        <pt x="201" y="-65" on="0"/>
        <pt x="152" y="-133" on="1"/>
        <pt x="33" y="-133" on="1"/>
        <pt x="91" y="-52" on="0"/>
      </contour>
    </TTGlyph>
    <TTGlyph name="partialdiff" xMin="48" yMin="-8" xMax="557" yMax="713">
      <contour>
        <pt x="470" y="633" on="1"/>
        <pt x="511" y="592" on="0"/>
        <pt x="557" y="452" on="0"/>
        <pt x="557" y="283" on="0"/>
        <pt x="529" y="156" on="0"/>
        <pt x="469" y="51" on="0"/>
        <pt x="361" y="-8" on="0"/>
        <pt x="288" y="-8" on="1"/>
        <pt x="185" y="-8" on="0"/>
        <pt x="48" y="134" on="0"/>
        <pt x="48" y="338" on="0"/>
        <pt x="186" y="445" on="0"/>
        <pt x="266" y="445" on="1"/>
        <pt x="325" y="445" on="0"/>
        <pt x="417" y="403" on="0"/>
        <pt x="439" y="376" on="1"/>
        <pt x="439" y="477" on="0"/>
        <pt x="399" y="548" on="1"/>
        <pt x="362" y="613" on="0"/>
        <pt x="262" y="613" on="1"/>
        <pt x="232" y="613" on="0"/>
        <pt x="172" y="591" on="0"/>
        <pt x="158" y="580" on="1"/>
        <pt x="143" y="569" on="1"/>
        <pt x="81" y="646" on="1"/>
        <pt x="171" y="713" on="0"/>
        <pt x="391" y="713" on="0"/>
      </contour>
      <contour>
        <pt x="278" y="346" on="1"/>
        <pt x="228" y="346" on="0"/>
        <pt x="159" y="282" on="0"/>
        <pt x="159" y="171" on="0"/>
        <pt x="228" y="101" on="0"/>
        <pt x="347" y="101" on="0"/>
        <pt x="427" y="181" on="0"/>
        <pt x="435" y="246" on="1"/>
        <pt x="437" y="272" on="1"/>
        <pt x="371" y="346" on="0"/>
      </contour>
    </TTGlyph>
    <TTGlyph name="percent" xMin="44" yMin="-8" xMax="743" yMax="716">
      <contour>
        <pt x="346" y="623" on="0"/>
        <pt x="346" y="491" on="0"/>
        <pt x="259" y="397" on="0"/>
        <pt x="130" y="397" on="0"/>
        <pt x="44" y="490" on="0"/>
        <pt x="44" y="622" on="0"/>
        <pt x="131" y="716" on="0"/>
        <pt x="260" y="716" on="0"/>
      </contour>
      <contour>
        <pt x="710" y="699" on="1"/>
        <pt x="198" y="0" on="1"/>
        <pt x="69" y="0" on="1"/>
        <pt x="581" y="699" on="1"/>
      </contour>
      <contour>
        <pt x="252" y="525" on="0"/>
        <pt x="252" y="585" on="0"/>
        <pt x="218" y="626" on="0"/>
        <pt x="169" y="626" on="0"/>
        <pt x="137" y="585" on="0"/>
        <pt x="137" y="525" on="0"/>
        <pt x="171" y="484" on="0"/>
        <pt x="220" y="484" on="0"/>
      </contour>
      <contour>
        <pt x="743" y="218" on="0"/>
        <pt x="743" y="86" on="0"/>
        <pt x="656" y="-8" on="0"/>
        <pt x="527" y="-8" on="0"/>
        <pt x="441" y="85" on="0"/>
        <pt x="441" y="217" on="0"/>
        <pt x="528" y="311" on="0"/>
        <pt x="657" y="311" on="0"/>
      </contour>
      <contour>
        <pt x="651" y="118" on="0"/>
        <pt x="651" y="178" on="0"/>
        <pt x="617" y="219" on="0"/>
        <pt x="568" y="219" on="0"/>
        <pt x="536" y="178" on="0"/>
        <pt x="536" y="118" on="0"/>
        <pt x="570" y="77" on="0"/>
        <pt x="619" y="77" on="0"/>
      </contour>
    </TTGlyph>
    <TTGlyph name="period" xMin="66" yMin="-8" xMax="215" yMax="141">
      <contour>
        <pt x="66" y="36" on="0"/>
        <pt x="66" y="98" on="0"/>
        <pt x="109" y="141" on="0"/>
        <pt x="171" y="141" on="0"/>
        <pt x="215" y="98" on="0"/>
        <pt x="215" y="36" on="0"/>
        <pt x="171" y="-8" on="0"/>
        <pt x="109" y="-8" on="0"/>
      </contour>
    </TTGlyph>
    <TTGlyph name="periodcentered" xMin="71" yMin="244" xMax="220" yMax="393">
      <contour>
        <pt x="71" y="288" on="0"/>
        <pt x="71" y="350" on="0"/>
        <pt x="114" y="393" on="0"/>
        <pt x="176" y="393" on="0"/>
        <pt x="220" y="350" on="0"/>
        <pt x="220" y="288" on="0"/>
        <pt x="176" y="244" on="0"/>
        <pt x="114" y="244" on="0"/>
      </contour>
    </TTGlyph>
    <TTGlyph name="perthousand" xMin="48" yMin="-8" xMax="1130" yMax="713">
      <contour>
        <pt x="350" y="620" on="0"/>
        <pt x="350" y="488" on="0"/>
        <pt x="263" y="394" on="0"/>
        <pt x="134" y="394" on="0"/>
        <pt x="48" y="487" on="0"/>
        <pt x="48" y="619" on="0"/>
        <pt x="135" y="713" on="0"/>
        <pt x="264" y="713" on="0"/>
      </contour>
      <contour>
        <pt x="714" y="699" on="1"/>
        <pt x="202" y="0" on="1"/>
        <pt x="73" y="0" on="1"/>
        <pt x="585" y="699" on="1"/>
      </contour>
      <contour>
        <pt x="256" y="522" on="0"/>
        <pt x="256" y="582" on="0"/>
        <pt x="222" y="623" on="0"/>
        <pt x="173" y="623" on="0"/>
        <pt x="141" y="582" on="0"/>
        <pt x="141" y="522" on="0"/>
        <pt x="175" y="481" on="0"/>
        <pt x="224" y="481" on="0"/>
      </contour>
      <contour>
        <pt x="747" y="218" on="0"/>
        <pt x="747" y="86" on="0"/>
        <pt x="660" y="-8" on="0"/>
        <pt x="531" y="-8" on="0"/>
        <pt x="445" y="85" on="0"/>
        <pt x="445" y="217" on="0"/>
        <pt x="532" y="311" on="0"/>
        <pt x="661" y="311" on="0"/>
      </contour>
      <contour>
        <pt x="655" y="118" on="0"/>
        <pt x="655" y="178" on="0"/>
        <pt x="621" y="219" on="0"/>
        <pt x="572" y="219" on="0"/>
        <pt x="540" y="178" on="0"/>
        <pt x="540" y="118" on="0"/>
        <pt x="574" y="77" on="0"/>
        <pt x="623" y="77" on="0"/>
      </contour>
      <contour>
        <pt x="1130" y="218" on="0"/>
        <pt x="1130" y="86" on="0"/>
        <pt x="1043" y="-8" on="0"/>
        <pt x="914" y="-8" on="0"/>
        <pt x="828" y="85" on="0"/>
        <pt x="828" y="217" on="0"/>
        <pt x="915" y="311" on="0"/>
        <pt x="1044" y="311" on="0"/>
      </contour>
      <contour>
        <pt x="1038" y="118" on="0"/>
        <pt x="1038" y="178" on="0"/>
        <pt x="1004" y="219" on="0"/>
        <pt x="955" y="219" on="0"/>
        <pt x="923" y="178" on="0"/>
        <pt x="923" y="118" on="0"/>
        <pt x="957" y="77" on="0"/>
        <pt x="1006" y="77" on="0"/>
      </contour>
    </TTGlyph>
    <TTGlyph name="pi" xMin="30" yMin="0" xMax="719" yMax="532">
      <contour>
        <pt x="30" y="373" on="1"/>
        <pt x="30" y="443" on="0"/>
        <pt x="119" y="532" on="0"/>
        <pt x="203" y="532" on="1"/>
        <pt x="719" y="532" on="1"/>
        <pt x="719" y="432" on="1"/>
        <pt x="603" y="432" on="1"/>
        <pt x="603" y="0" on="1"/>
        <pt x="491" y="0" on="1"/>
        <pt x="491" y="432" on="1"/>
        <pt x="338" y="432" on="1"/>
        <pt x="334" y="333" on="0"/>
        <pt x="293" y="68" on="0"/>
        <pt x="267" y="0" on="1"/>
        <pt x="156" y="0" on="1"/>
        <pt x="183" y="81" on="0"/>
        <pt x="224" y="338" on="0"/>
        <pt x="226" y="432" on="1"/>
        <pt x="210" y="432" on="1"/>
        <pt x="172" y="432" on="0"/>
        <pt x="127" y="392" on="0"/>
        <pt x="127" y="340" on="0"/>
        <pt x="135" y="322" on="1"/>
        <pt x="51" y="287" on="1"/>
        <pt x="30" y="329" on="0"/>
      </contour>
    </TTGlyph>
    <TTGlyph name="plus" xMin="48" yMin="150" xMax="520" yMax="622">
      <contour>
        <pt x="239" y="150" on="1"/>
        <pt x="239" y="340" on="1"/>
        <pt x="48" y="340" on="1"/>
        <pt x="48" y="434" on="1"/>
        <pt x="239" y="434" on="1"/>
        <pt x="239" y="622" on="1"/>
        <pt x="329" y="622" on="1"/>
        <pt x="329" y="434" on="1"/>
        <pt x="520" y="434" on="1"/>
        <pt x="520" y="340" on="1"/>
        <pt x="329" y="340" on="1"/>
        <pt x="329" y="150" on="1"/>
      </contour>
    </TTGlyph>
    <TTGlyph name="plusminus" xMin="48" yMin="136" xMax="520" yMax="638">
      <contour>
        <pt x="239" y="276" on="1"/>
        <pt x="239" y="411" on="1"/>
        <pt x="48" y="411" on="1"/>
        <pt x="48" y="505" on="1"/>
        <pt x="239" y="505" on="1"/>
        <pt x="239" y="638" on="1"/>
        <pt x="329" y="638" on="1"/>
        <pt x="329" y="505" on="1"/>
        <pt x="520" y="505" on="1"/>
        <pt x="520" y="411" on="1"/>
        <pt x="329" y="411" on="1"/>
        <pt x="329" y="276" on="1"/>
      </contour>
      <contour>
        <pt x="48" y="220" on="1"/>
        <pt x="520" y="220" on="1"/>
        <pt x="520" y="136" on="1"/>
        <pt x="48" y="136" on="1"/>
      </contour>
    </TTGlyph>
    <TTGlyph name="product" xMin="92" yMin="-212" xMax="709" yMax="788">
      <contour>
        <pt x="709" y="-212" on="1"/>
        <pt x="585" y="-212" on="1"/>
        <pt x="585" y="675" on="1"/>
        <pt x="216" y="675" on="1"/>
        <pt x="216" y="-212" on="1"/>
        <pt x="92" y="-212" on="1"/>
        <pt x="92" y="788" on="1"/>
        <pt x="709" y="788" on="1"/>
      </contour>
    </TTGlyph>
    <TTGlyph name="q" xMin="47" yMin="-194" xMax="591" yMax="540">
      <contour>
        <pt x="198" y="-8" on="0"/>
        <pt x="47" y="146" on="0"/>
        <pt x="47" y="392" on="0"/>
        <pt x="199" y="540" on="0"/>
        <pt x="413" y="540" on="0"/>
        <pt x="479" y="439" on="1"/>
        <pt x="479" y="532" on="1"/>
        <pt x="591" y="532" on="1"/>
        <pt x="591" y="-194" on="1"/>
        <pt x="479" y="-194" on="1"/>
        <pt x="479" y="80" on="1"/>
        <pt x="399" y="-8" on="0"/>
      </contour>
      <contour>
        <pt x="159" y="188" on="0"/>
        <pt x="257" y="92" on="0"/>
        <pt x="389" y="92" on="0"/>
        <pt x="481" y="189" on="0"/>
        <pt x="481" y="341" on="0"/>
        <pt x="389" y="442" on="0"/>
        <pt x="255" y="442" on="0"/>
        <pt x="159" y="341" on="0"/>
      </contour>
    </TTGlyph>
    <TTGlyph name="question" xMin="36" yMin="-5" xMax="455" yMax="714">
      <contour>
        <pt x="302" y="217" on="1"/>
        <pt x="189" y="217" on="1"/>
        <pt x="189" y="278" on="1"/>
        <pt x="189" y="318" on="0"/>
        <pt x="208" y="357" on="0"/>
        <pt x="240" y="389" on="1"/>
        <pt x="313" y="462" on="1"/>
        <pt x="336" y="487" on="0"/>
        <pt x="336" y="561" on="0"/>
        <pt x="288" y="610" on="0"/>
        <pt x="212" y="610" on="0"/>
        <pt x="161" y="563" on="0"/>
        <pt x="157" y="524" on="1"/>
        <pt x="36" y="524" on="1"/>
        <pt x="46" y="613" on="0"/>
        <pt x="165" y="714" on="0"/>
        <pt x="343" y="714" on="0"/>
        <pt x="455" y="617" on="0"/>
        <pt x="455" y="530" on="1"/>
        <pt x="455" y="470" on="0"/>
        <pt x="422" y="430" on="1"/>
        <pt x="403" y="406" on="0"/>
        <pt x="383" y="386" on="0"/>
        <pt x="350" y="355" on="0"/>
        <pt x="327" y="332" on="0"/>
        <pt x="320" y="324" on="1"/>
        <pt x="302" y="302" on="0"/>
        <pt x="302" y="262" on="1"/>
      </contour>
      <contour>
        <pt x="216" y="-5" on="0"/>
        <pt x="170" y="38" on="0"/>
        <pt x="170" y="99" on="0"/>
        <pt x="215" y="143" on="0"/>
        <pt x="278" y="143" on="0"/>
        <pt x="324" y="100" on="0"/>
        <pt x="324" y="39" on="0"/>
        <pt x="279" y="-5" on="0"/>
      </contour>
    </TTGlyph>
</ttFont>
